<svg xmlns="http://www.w3.org/2000/svg" width="5240" height="916" viewBox="0 0 5240 916">
<style>
text { font-family: 'DejaVu Sans Mono', monospace; fill: #14213d; }
.edge { stroke: #6c7a89; stroke-width: 2; fill: none; }
.edge-label { font-size: 12px; font-weight: 700; fill: #415a77; }
.decision { fill: #e0fbfc; stroke: #1d3557; stroke-width: 2; }
.leaf { fill: #fefae0; stroke: #bc6c25; stroke-width: 2; }
.node-title { font-size: 12px; font-weight: 700; }
.node-meta { font-size: 11px; }
.card-bg { fill: #ffffff; fill-opacity: 0.92; stroke: #cbd5e1; stroke-width: 1.5; }
.card-header { font-size: 11px; font-weight: 800; fill: #475569; letter-spacing: 0.5px; }
.card-item { font-size: 10px; fill: #334155; }
</style>
<rect x="0" y="0" width="5240" height="916" fill="#f8f9fa" />
<line class="edge" x1="2254.2" y1="96.0" x2="891.6" y2="170.0" />
<text class="edge-label" x="1572.9" y="125.0" text-anchor="middle">yes</text>
<line class="edge" x1="891.6" y1="226.0" x2="470.0" y2="300.0" />
<text class="edge-label" x="680.8" y="255.0" text-anchor="middle">yes</text>
<line class="edge" x1="470.0" y1="356.0" x2="375.0" y2="430.0" />
<text class="edge-label" x="422.5" y="385.0" text-anchor="middle">yes</text>
<line class="edge" x1="470.0" y1="356.0" x2="565.0" y2="430.0" />
<text class="edge-label" x="517.5" y="385.0" text-anchor="middle">no</text>
<line class="edge" x1="891.6" y1="226.0" x2="1313.1" y2="300.0" />
<text class="edge-label" x="1102.3" y="255.0" text-anchor="middle">no</text>
<line class="edge" x1="1313.1" y1="356.0" x2="1111.2" y2="430.0" />
<text class="edge-label" x="1212.2" y="385.0" text-anchor="middle">yes</text>
<line class="edge" x1="1111.2" y1="486.0" x2="897.5" y2="560.0" />
<text class="edge-label" x="1004.4" y="515.0" text-anchor="middle">yes</text>
<line class="edge" x1="897.5" y1="616.0" x2="755.0" y2="690.0" />
<text class="edge-label" x="826.2" y="645.0" text-anchor="middle">yes</text>
<line class="edge" x1="897.5" y1="616.0" x2="1040.0" y2="690.0" />
<text class="edge-label" x="968.8" y="645.0" text-anchor="middle">no</text>
<line class="edge" x1="1040.0" y1="746.0" x2="945.0" y2="820.0" />
<text class="edge-label" x="992.5" y="775.0" text-anchor="middle">yes</text>
<line class="edge" x1="1040.0" y1="746.0" x2="1135.0" y2="820.0" />
<text class="edge-label" x="1087.5" y="775.0" text-anchor="middle">no</text>
<line class="edge" x1="1111.2" y1="486.0" x2="1325.0" y2="560.0" />
<text class="edge-label" x="1218.1" y="515.0" text-anchor="middle">no</text>
<line class="edge" x1="1313.1" y1="356.0" x2="1515.0" y2="430.0" />
<text class="edge-label" x="1414.1" y="385.0" text-anchor="middle">no</text>
<line class="edge" x1="2254.2" y1="96.0" x2="3616.9" y2="170.0" />
<text class="edge-label" x="2935.5" y="125.0" text-anchor="middle">no</text>
<line class="edge" x1="3616.9" y1="226.0" x2="2643.1" y2="300.0" />
<text class="edge-label" x="3130.0" y="255.0" text-anchor="middle">yes</text>
<line class="edge" x1="2643.1" y1="356.0" x2="2227.5" y2="430.0" />
<text class="edge-label" x="2435.3" y="385.0" text-anchor="middle">yes</text>
<line class="edge" x1="2227.5" y1="486.0" x2="1942.5" y2="560.0" />
<text class="edge-label" x="2085.0" y="515.0" text-anchor="middle">yes</text>
<line class="edge" x1="1942.5" y1="616.0" x2="1800.0" y2="690.0" />
<text class="edge-label" x="1871.2" y="645.0" text-anchor="middle">yes</text>
<line class="edge" x1="1800.0" y1="746.0" x2="1705.0" y2="820.0" />
<text class="edge-label" x="1752.5" y="775.0" text-anchor="middle">yes</text>
<line class="edge" x1="1800.0" y1="746.0" x2="1895.0" y2="820.0" />
<text class="edge-label" x="1847.5" y="775.0" text-anchor="middle">no</text>
<line class="edge" x1="1942.5" y1="616.0" x2="2085.0" y2="690.0" />
<text class="edge-label" x="2013.8" y="645.0" text-anchor="middle">no</text>
<line class="edge" x1="2227.5" y1="486.0" x2="2512.5" y2="560.0" />
<text class="edge-label" x="2370.0" y="515.0" text-anchor="middle">no</text>
<line class="edge" x1="2512.5" y1="616.0" x2="2370.0" y2="690.0" />
<text class="edge-label" x="2441.2" y="645.0" text-anchor="middle">yes</text>
<line class="edge" x1="2370.0" y1="746.0" x2="2275.0" y2="820.0" />
<text class="edge-label" x="2322.5" y="775.0" text-anchor="middle">yes</text>
<line class="edge" x1="2370.0" y1="746.0" x2="2465.0" y2="820.0" />
<text class="edge-label" x="2417.5" y="775.0" text-anchor="middle">no</text>
<line class="edge" x1="2512.5" y1="616.0" x2="2655.0" y2="690.0" />
<text class="edge-label" x="2583.8" y="645.0" text-anchor="middle">no</text>
<line class="edge" x1="2643.1" y1="356.0" x2="3058.8" y2="430.0" />
<text class="edge-label" x="2850.9" y="385.0" text-anchor="middle">no</text>
<line class="edge" x1="3058.8" y1="486.0" x2="2845.0" y2="560.0" />
<text class="edge-label" x="2951.9" y="515.0" text-anchor="middle">yes</text>
<line class="edge" x1="3058.8" y1="486.0" x2="3272.5" y2="560.0" />
<text class="edge-label" x="3165.6" y="515.0" text-anchor="middle">no</text>
<line class="edge" x1="3272.5" y1="616.0" x2="3130.0" y2="690.0" />
<text class="edge-label" x="3201.2" y="645.0" text-anchor="middle">yes</text>
<line class="edge" x1="3130.0" y1="746.0" x2="3035.0" y2="820.0" />
<text class="edge-label" x="3082.5" y="775.0" text-anchor="middle">yes</text>
<line class="edge" x1="3130.0" y1="746.0" x2="3225.0" y2="820.0" />
<text class="edge-label" x="3177.5" y="775.0" text-anchor="middle">no</text>
<line class="edge" x1="3272.5" y1="616.0" x2="3415.0" y2="690.0" />
<text class="edge-label" x="3343.8" y="645.0" text-anchor="middle">no</text>
<line class="edge" x1="3616.9" y1="226.0" x2="4590.6" y2="300.0" />
<text class="edge-label" x="4103.8" y="255.0" text-anchor="middle">no</text>
<line class="edge" x1="4590.6" y1="356.0" x2="4151.2" y2="430.0" />
<text class="edge-label" x="4370.9" y="385.0" text-anchor="middle">yes</text>
<line class="edge" x1="4151.2" y1="486.0" x2="3842.5" y2="560.0" />
<text class="edge-label" x="3996.9" y="515.0" text-anchor="middle">yes</text>
<line class="edge" x1="3842.5" y1="616.0" x2="3700.0" y2="690.0" />
<text class="edge-label" x="3771.2" y="645.0" text-anchor="middle">yes</text>
<line class="edge" x1="3700.0" y1="746.0" x2="3605.0" y2="820.0" />
<text class="edge-label" x="3652.5" y="775.0" text-anchor="middle">yes</text>
<line class="edge" x1="3700.0" y1="746.0" x2="3795.0" y2="820.0" />
<text class="edge-label" x="3747.5" y="775.0" text-anchor="middle">no</text>
<line class="edge" x1="3842.5" y1="616.0" x2="3985.0" y2="690.0" />
<text class="edge-label" x="3913.8" y="645.0" text-anchor="middle">no</text>
<line class="edge" x1="4151.2" y1="486.0" x2="4460.0" y2="560.0" />
<text class="edge-label" x="4305.6" y="515.0" text-anchor="middle">no</text>
<line class="edge" x1="4460.0" y1="616.0" x2="4270.0" y2="690.0" />
<text class="edge-label" x="4365.0" y="645.0" text-anchor="middle">yes</text>
<line class="edge" x1="4270.0" y1="746.0" x2="4175.0" y2="820.0" />
<text class="edge-label" x="4222.5" y="775.0" text-anchor="middle">yes</text>
<line class="edge" x1="4270.0" y1="746.0" x2="4365.0" y2="820.0" />
<text class="edge-label" x="4317.5" y="775.0" text-anchor="middle">no</text>
<line class="edge" x1="4460.0" y1="616.0" x2="4650.0" y2="690.0" />
<text class="edge-label" x="4555.0" y="645.0" text-anchor="middle">no</text>
<line class="edge" x1="4650.0" y1="746.0" x2="4555.0" y2="820.0" />
<text class="edge-label" x="4602.5" y="775.0" text-anchor="middle">yes</text>
<line class="edge" x1="4650.0" y1="746.0" x2="4745.0" y2="820.0" />
<text class="edge-label" x="4697.5" y="775.0" text-anchor="middle">no</text>
<line class="edge" x1="4590.6" y1="356.0" x2="5030.0" y2="430.0" />
<text class="edge-label" x="4810.3" y="385.0" text-anchor="middle">no</text>
<line class="edge" x1="5030.0" y1="486.0" x2="4935.0" y2="560.0" />
<text class="edge-label" x="4982.5" y="515.0" text-anchor="middle">yes</text>
<line class="edge" x1="5030.0" y1="486.0" x2="5125.0" y2="560.0" />
<text class="edge-label" x="5077.5" y="515.0" text-anchor="middle">no</text>
<rect class="decision" x="2179.2" y="40.0" width="150" height="56" rx="14" ry="14" />
<text class="node-title" x="2254.2" y="63.0" text-anchor="middle">Elevation &lt;= 2465.500</text>
<text class="node-meta" x="2254.2" y="81.0" text-anchor="middle">n=5810</text>
<rect class="decision" x="816.6" y="170.0" width="150" height="56" rx="14" ry="14" />
<text class="node-title" x="891.6" y="193.0" text-anchor="middle">Soil_Type_3 &lt;= 0.500</text>
<text class="node-meta" x="891.6" y="211.0" text-anchor="middle">n=365</text>
<rect class="decision" x="395.0" y="300.0" width="150" height="56" rx="14" ry="14" />
<text class="node-title" x="470.0" y="323.0" text-anchor="middle">Soil_Type_14 &lt;= 0.500</text>
<text class="node-meta" x="470.0" y="341.0" text-anchor="middle">n=339</text>
<rect class="leaf" x="300.0" y="430.0" width="150" height="56" rx="14" ry="14" />
<text class="node-title" x="375.0" y="453.0" text-anchor="middle">Leaf: Ponderosa_Pine</text>
<text class="node-meta" x="375.0" y="471.0" text-anchor="middle">n=333</text>
<rect class="leaf" x="490.0" y="430.0" width="150" height="56" rx="14" ry="14" />
<text class="node-title" x="565.0" y="453.0" text-anchor="middle">Leaf: Douglas_Fir</text>
<text class="node-meta" x="565.0" y="471.0" text-anchor="middle">n=6</text>
<rect class="decision" x="1238.1" y="300.0" width="150" height="56" rx="14" ry="14" />
<text class="node-title" x="1313.1" y="323.0" text-anchor="middle">Wilderness_Area_3 &lt;= 0.500</text>
<text class="node-meta" x="1313.1" y="341.0" text-anchor="middle">n=26</text>
<rect class="decision" x="1036.2" y="430.0" width="150" height="56" rx="14" ry="14" />
<text class="node-title" x="1111.2" y="453.0" text-anchor="middle">Horizontal_Distance_To_Roadways &lt;= 1330.000</text>
<text class="node-meta" x="1111.2" y="471.0" text-anchor="middle">n=21</text>
<rect class="decision" x="822.5" y="560.0" width="150" height="56" rx="14" ry="14" />
<text class="node-title" x="897.5" y="583.0" text-anchor="middle">Elevation &lt;= 2070.500</text>
<text class="node-meta" x="897.5" y="601.0" text-anchor="middle">n=16</text>
<rect class="leaf" x="680.0" y="690.0" width="150" height="56" rx="14" ry="14" />
<text class="node-title" x="755.0" y="713.0" text-anchor="middle">Leaf: Ponderosa_Pine</text>
<text class="node-meta" x="755.0" y="731.0" text-anchor="middle">n=2</text>
<rect class="decision" x="965.0" y="690.0" width="150" height="56" rx="14" ry="14" />
<text class="node-title" x="1040.0" y="713.0" text-anchor="middle">Elevation &lt;= 2345.500</text>
<text class="node-meta" x="1040.0" y="731.0" text-anchor="middle">n=14</text>
<rect class="leaf" x="870.0" y="820.0" width="150" height="56" rx="14" ry="14" />
<text class="node-title" x="945.0" y="843.0" text-anchor="middle">Leaf: Cottonwood_Willow</text>
<text class="node-meta" x="945.0" y="861.0" text-anchor="middle">n=13</text>
<rect class="leaf" x="1060.0" y="820.0" width="150" height="56" rx="14" ry="14" />
<text class="node-title" x="1135.0" y="843.0" text-anchor="middle">Leaf: Ponderosa_Pine</text>
<text class="node-meta" x="1135.0" y="861.0" text-anchor="middle">n=1</text>
<rect class="leaf" x="1250.0" y="560.0" width="150" height="56" rx="14" ry="14" />
<text class="node-title" x="1325.0" y="583.0" text-anchor="middle">Leaf: Ponderosa_Pine</text>
<text class="node-meta" x="1325.0" y="601.0" text-anchor="middle">n=5</text>
<rect class="leaf" x="1440.0" y="430.0" width="150" height="56" rx="14" ry="14" />
<text class="node-title" x="1515.0" y="453.0" text-anchor="middle">Leaf: Ponderosa_Pine</text>
<text class="node-meta" x="1515.0" y="471.0" text-anchor="middle">n=5</text>
<rect class="decision" x="3541.9" y="170.0" width="150" height="56" rx="14" ry="14" />
<text class="node-title" x="3616.9" y="193.0" text-anchor="middle">Soil_Type_4 &lt;= 0.500</text>
<text class="node-meta" x="3616.9" y="211.0" text-anchor="middle">n=5445</text>
<rect class="decision" x="2568.1" y="300.0" width="150" height="56" rx="14" ry="14" />
<text class="node-title" x="2643.1" y="323.0" text-anchor="middle">Soil_Type_2 &lt;= 0.500</text>
<text class="node-meta" x="2643.1" y="341.0" text-anchor="middle">n=5351</text>
<rect class="decision" x="2152.5" y="430.0" width="150" height="56" rx="14" ry="14" />
<text class="node-title" x="2227.5" y="453.0" text-anchor="middle">Wilderness_Area_4 &lt;= 0.500</text>
<text class="node-meta" x="2227.5" y="471.0" text-anchor="middle">n=5302</text>
<rect class="decision" x="1867.5" y="560.0" width="150" height="56" rx="14" ry="14" />
<text class="node-title" x="1942.5" y="583.0" text-anchor="middle">Soil_Type_39 &lt;= 0.500</text>
<text class="node-meta" x="1942.5" y="601.0" text-anchor="middle">n=5252</text>
<rect class="decision" x="1725.0" y="690.0" width="150" height="56" rx="14" ry="14" />
<text class="node-title" x="1800.0" y="713.0" text-anchor="middle">Elevation &lt;= 3678.500</text>
<text class="node-meta" x="1800.0" y="731.0" text-anchor="middle">n=5126</text>
<rect class="leaf" x="1630.0" y="820.0" width="150" height="56" rx="14" ry="14" />
<text class="node-title" x="1705.0" y="843.0" text-anchor="middle">Leaf: Lodgepole_Pine</text>
<text class="node-meta" x="1705.0" y="861.0" text-anchor="middle">n=5116</text>
<rect class="leaf" x="1820.0" y="820.0" width="150" height="56" rx="14" ry="14" />
<text class="node-title" x="1895.0" y="843.0" text-anchor="middle">Leaf: Krummholz</text>
<text class="node-meta" x="1895.0" y="861.0" text-anchor="middle">n=10</text>
<rect class="leaf" x="2010.0" y="690.0" width="150" height="56" rx="14" ry="14" />
<text class="node-title" x="2085.0" y="713.0" text-anchor="middle">Leaf: Spruce_Fir</text>
<text class="node-meta" x="2085.0" y="731.0" text-anchor="middle">n=126</text>
<rect class="decision" x="2437.5" y="560.0" width="150" height="56" rx="14" ry="14" />
<text class="node-title" x="2512.5" y="583.0" text-anchor="middle">Horizontal_Distance_To_Roadways &lt;= 1309.500</text>
<text class="node-meta" x="2512.5" y="601.0" text-anchor="middle">n=50</text>
<rect class="decision" x="2295.0" y="690.0" width="150" height="56" rx="14" ry="14" />
<text class="node-title" x="2370.0" y="713.0" text-anchor="middle">Horizontal_Distance_To_Fire_Points &lt;= 1192.500</text>
<text class="node-meta" x="2370.0" y="731.0" text-anchor="middle">n=48</text>
<rect class="leaf" x="2200.0" y="820.0" width="150" height="56" rx="14" ry="14" />
<text class="node-title" x="2275.0" y="843.0" text-anchor="middle">Leaf: Lodgepole_Pine</text>
<text class="node-meta" x="2275.0" y="861.0" text-anchor="middle">n=33</text>
<rect class="leaf" x="2390.0" y="820.0" width="150" height="56" rx="14" ry="14" />
<text class="node-title" x="2465.0" y="843.0" text-anchor="middle">Leaf: Ponderosa_Pine</text>
<text class="node-meta" x="2465.0" y="861.0" text-anchor="middle">n=15</text>
<rect class="leaf" x="2580.0" y="690.0" width="150" height="56" rx="14" ry="14" />
<text class="node-title" x="2655.0" y="713.0" text-anchor="middle">Leaf: Douglas_Fir</text>
<text class="node-meta" x="2655.0" y="731.0" text-anchor="middle">n=2</text>
<rect class="decision" x="2983.8" y="430.0" width="150" height="56" rx="14" ry="14" />
<text class="node-title" x="3058.8" y="453.0" text-anchor="middle">Aspect &lt;= 2.500</text>
<text class="node-meta" x="3058.8" y="471.0" text-anchor="middle">n=49</text>
<rect class="leaf" x="2770.0" y="560.0" width="150" height="56" rx="14" ry="14" />
<text class="node-title" x="2845.0" y="583.0" text-anchor="middle">Leaf: Aspen</text>
<text class="node-meta" x="2845.0" y="601.0" text-anchor="middle">n=1</text>
<rect class="decision" x="3197.5" y="560.0" width="150" height="56" rx="14" ry="14" />
<text class="node-title" x="3272.5" y="583.0" text-anchor="middle">Aspect &lt;= 317.500</text>
<text class="node-meta" x="3272.5" y="601.0" text-anchor="middle">n=48</text>
<rect class="decision" x="3055.0" y="690.0" width="150" height="56" rx="14" ry="14" />
<text class="node-title" x="3130.0" y="713.0" text-anchor="middle">Aspect &lt;= 284.000</text>
<text class="node-meta" x="3130.0" y="731.0" text-anchor="middle">n=46</text>
<rect class="leaf" x="2960.0" y="820.0" width="150" height="56" rx="14" ry="14" />
<text class="node-title" x="3035.0" y="843.0" text-anchor="middle">Leaf: Ponderosa_Pine</text>
<text class="node-meta" x="3035.0" y="861.0" text-anchor="middle">n=43</text>
<rect class="leaf" x="3150.0" y="820.0" width="150" height="56" rx="14" ry="14" />
<text class="node-title" x="3225.0" y="843.0" text-anchor="middle">Leaf: Lodgepole_Pine</text>
<text class="node-meta" x="3225.0" y="861.0" text-anchor="middle">n=3</text>
<rect class="leaf" x="3340.0" y="690.0" width="150" height="56" rx="14" ry="14" />
<text class="node-title" x="3415.0" y="713.0" text-anchor="middle">Leaf: Douglas_Fir</text>
<text class="node-meta" x="3415.0" y="731.0" text-anchor="middle">n=2</text>
<rect class="decision" x="4515.6" y="300.0" width="150" height="56" rx="14" ry="14" />
<text class="node-title" x="4590.6" y="323.0" text-anchor="middle">Elevation &lt;= 2864.000</text>
<text class="node-meta" x="4590.6" y="341.0" text-anchor="middle">n=94</text>
<rect class="decision" x="4076.2" y="430.0" width="150" height="56" rx="14" ry="14" />
<text class="node-title" x="4151.2" y="453.0" text-anchor="middle">Elevation &lt;= 2675.500</text>
<text class="node-meta" x="4151.2" y="471.0" text-anchor="middle">n=85</text>
<rect class="decision" x="3767.5" y="560.0" width="150" height="56" rx="14" ry="14" />
<text class="node-title" x="3842.5" y="583.0" text-anchor="middle">Aspect &lt;= 259.000</text>
<text class="node-meta" x="3842.5" y="601.0" text-anchor="middle">n=52</text>
<rect class="decision" x="3625.0" y="690.0" width="150" height="56" rx="14" ry="14" />
<text class="node-title" x="3700.0" y="713.0" text-anchor="middle">Aspect &lt;= 239.500</text>
<text class="node-meta" x="3700.0" y="731.0" text-anchor="middle">n=51</text>
<rect class="leaf" x="3530.0" y="820.0" width="150" height="56" rx="14" ry="14" />
<text class="node-title" x="3605.0" y="843.0" text-anchor="middle">Leaf: Ponderosa_Pine</text>
<text class="node-meta" x="3605.0" y="861.0" text-anchor="middle">n=50</text>
<rect class="leaf" x="3720.0" y="820.0" width="150" height="56" rx="14" ry="14" />
<text class="node-title" x="3795.0" y="843.0" text-anchor="middle">Leaf: Douglas_Fir</text>
<text class="node-meta" x="3795.0" y="861.0" text-anchor="middle">n=1</text>
<rect class="leaf" x="3910.0" y="690.0" width="150" height="56" rx="14" ry="14" />
<text class="node-title" x="3985.0" y="713.0" text-anchor="middle">Leaf: Lodgepole_Pine</text>
<text class="node-meta" x="3985.0" y="731.0" text-anchor="middle">n=1</text>
<rect class="decision" x="4385.0" y="560.0" width="150" height="56" rx="14" ry="14" />
<text class="node-title" x="4460.0" y="583.0" text-anchor="middle">Slope &lt;= 17.500</text>
<text class="node-meta" x="4460.0" y="601.0" text-anchor="middle">n=33</text>
<rect class="decision" x="4195.0" y="690.0" width="150" height="56" rx="14" ry="14" />
<text class="node-title" x="4270.0" y="713.0" text-anchor="middle">Aspect &lt;= 259.500</text>
<text class="node-meta" x="4270.0" y="731.0" text-anchor="middle">n=8</text>
<rect class="leaf" x="4100.0" y="820.0" width="150" height="56" rx="14" ry="14" />
<text class="node-title" x="4175.0" y="843.0" text-anchor="middle">Leaf: Ponderosa_Pine</text>
<text class="node-meta" x="4175.0" y="861.0" text-anchor="middle">n=7</text>
<rect class="leaf" x="4290.0" y="820.0" width="150" height="56" rx="14" ry="14" />
<text class="node-title" x="4365.0" y="843.0" text-anchor="middle">Leaf: Spruce_Fir</text>
<text class="node-meta" x="4365.0" y="861.0" text-anchor="middle">n=1</text>
<rect class="decision" x="4575.0" y="690.0" width="150" height="56" rx="14" ry="14" />
<text class="node-title" x="4650.0" y="713.0" text-anchor="middle">Hillshade_Noon &lt;= 242.500</text>
<text class="node-meta" x="4650.0" y="731.0" text-anchor="middle">n=25</text>
<rect class="leaf" x="4480.0" y="820.0" width="150" height="56" rx="14" ry="14" />
<text class="node-title" x="4555.0" y="843.0" text-anchor="middle">Leaf: Ponderosa_Pine</text>
<text class="node-meta" x="4555.0" y="861.0" text-anchor="middle">n=7</text>
<rect class="leaf" x="4670.0" y="820.0" width="150" height="56" rx="14" ry="14" />
<text class="node-title" x="4745.0" y="843.0" text-anchor="middle">Leaf: Lodgepole_Pine</text>
<text class="node-meta" x="4745.0" y="861.0" text-anchor="middle">n=18</text>
<rect class="decision" x="4955.0" y="430.0" width="150" height="56" rx="14" ry="14" />
<text class="node-title" x="5030.0" y="453.0" text-anchor="middle">Aspect &lt;= 177.000</text>
<text class="node-meta" x="5030.0" y="471.0" text-anchor="middle">n=9</text>
<rect class="leaf" x="4860.0" y="560.0" width="150" height="56" rx="14" ry="14" />
<text class="node-title" x="4935.0" y="583.0" text-anchor="middle">Leaf: Krummholz</text>
<text class="node-meta" x="4935.0" y="601.0" text-anchor="middle">n=2</text>
<rect class="leaf" x="5050.0" y="560.0" width="150" height="56" rx="14" ry="14" />
<text class="node-title" x="5125.0" y="583.0" text-anchor="middle">Leaf: Lodgepole_Pine</text>
<text class="node-meta" x="5125.0" y="601.0" text-anchor="middle">n=7</text>
<g transform="translate(15, 15)">
  <rect class="card-bg" x="0" y="0" width="250" height="323" rx="8" />
  <text class="card-header" x="12" y="22">EVALUATION METRICS</text>
  <text class="card-item" x="18" y="43">• checked samples = 5810</text>
  <text class="card-item" x="18" y="58">• correct predictions = 3239</text>
  <text class="card-item" x="18" y="73">• tree depth = 6</text>
  <text class="card-item" x="18" y="88">• node count = 51</text>
  <text class="card-item" x="18" y="103">• accuracy = 55.7487%</text>
  <text class="card-header" x="12" y="125">TRAINING OPTIONS</text>
  <text class="card-item" x="18" y="146">• impurityMeasure = Entropy</text>
  <text class="card-item" x="18" y="161">• splitSelectionMode = MeanGainFiltered</text>
  <text class="card-item" x="18" y="176">• pruningMode = PessimisticError</text>
  <text class="card-item" x="18" y="191">• maxDepth = 6</text>
  <text class="card-item" x="18" y="206">• minSamplesToSplit = 2</text>
  <text class="card-item" x="18" y="221">• minSamplesPerLeaf = 1</text>
  <text class="card-item" x="18" y="236">• parallelMode = VDTa</text>
  <text class="card-item" x="18" y="251">• maxThreadCount = 28</text>
  <text class="card-item" x="18" y="266">• minFeaturesToParallelize = 4</text>
  <text class="card-item" x="18" y="281">• minRowsToParallelize = 16</text>
  <text class="card-item" x="18" y="296">• pruningConfidenceFactor = 0.0005</text>
  <text class="card-item" x="18" y="311">• ccpAlpha = 2000.0000</text>
</g>
</svg>