<svg xmlns="http://www.w3.org/2000/svg" width="1440" height="656" viewBox="0 0 1440 656">
<style>
text { font-family: 'DejaVu Sans Mono', monospace; fill: #14213d; }
.edge { stroke: #6c7a89; stroke-width: 2; fill: none; }
.edge-label { font-size: 12px; font-weight: 700; fill: #415a77; }
.decision { fill: #e0fbfc; stroke: #1d3557; stroke-width: 2; }
.leaf { fill: #fefae0; stroke: #bc6c25; stroke-width: 2; }
.node-title { font-size: 12px; font-weight: 700; }
.node-meta { font-size: 11px; }
.card-bg { fill: #ffffff; fill-opacity: 0.92; stroke: #cbd5e1; stroke-width: 1.5; }
.card-header { font-size: 11px; font-weight: 800; fill: #475569; letter-spacing: 0.5px; }
.card-item { font-size: 10px; fill: #334155; }
</style>
<rect x="0" y="0" width="1440" height="656" fill="#f8f9fa" />
<line class="edge" x1="909.4" y1="96.0" x2="588.8" y2="170.0" />
<text class="edge-label" x="749.1" y="125.0" text-anchor="middle">yes</text>
<line class="edge" x1="588.8" y1="226.0" x2="375.0" y2="300.0" />
<text class="edge-label" x="481.9" y="255.0" text-anchor="middle">yes</text>
<line class="edge" x1="588.8" y1="226.0" x2="802.5" y2="300.0" />
<text class="edge-label" x="695.6" y="255.0" text-anchor="middle">no</text>
<line class="edge" x1="802.5" y1="356.0" x2="660.0" y2="430.0" />
<text class="edge-label" x="731.2" y="385.0" text-anchor="middle">yes</text>
<line class="edge" x1="660.0" y1="486.0" x2="565.0" y2="560.0" />
<text class="edge-label" x="612.5" y="515.0" text-anchor="middle">yes</text>
<line class="edge" x1="660.0" y1="486.0" x2="755.0" y2="560.0" />
<text class="edge-label" x="707.5" y="515.0" text-anchor="middle">no</text>
<line class="edge" x1="802.5" y1="356.0" x2="945.0" y2="430.0" />
<text class="edge-label" x="873.8" y="385.0" text-anchor="middle">no</text>
<line class="edge" x1="909.4" y1="96.0" x2="1230.0" y2="170.0" />
<text class="edge-label" x="1069.7" y="125.0" text-anchor="middle">no</text>
<line class="edge" x1="1230.0" y1="226.0" x2="1135.0" y2="300.0" />
<text class="edge-label" x="1182.5" y="255.0" text-anchor="middle">yes</text>
<line class="edge" x1="1230.0" y1="226.0" x2="1325.0" y2="300.0" />
<text class="edge-label" x="1277.5" y="255.0" text-anchor="middle">no</text>
<rect class="decision" x="834.4" y="40.0" width="150" height="56" rx="14" ry="14" />
<text class="node-title" x="909.4" y="63.0" text-anchor="middle">Elevation &lt;= 3044.500</text>
<text class="node-meta" x="909.4" y="81.0" text-anchor="middle">n=581012</text>
<rect class="decision" x="513.8" y="170.0" width="150" height="56" rx="14" ry="14" />
<text class="node-title" x="588.8" y="193.0" text-anchor="middle">Elevation &lt;= 2510.500</text>
<text class="node-meta" x="588.8" y="211.0" text-anchor="middle">n=336915</text>
<rect class="leaf" x="300.0" y="300.0" width="150" height="56" rx="14" ry="14" />
<text class="node-title" x="375.0" y="323.0" text-anchor="middle">Leaf: Ponderosa_Pine</text>
<text class="node-meta" x="375.0" y="341.0" text-anchor="middle">n=42801</text>
<rect class="decision" x="727.5" y="300.0" width="150" height="56" rx="14" ry="14" />
<text class="node-title" x="802.5" y="323.0" text-anchor="middle">Soil_Type_4 &lt;= 0.500</text>
<text class="node-meta" x="802.5" y="341.0" text-anchor="middle">n=294114</text>
<rect class="decision" x="585.0" y="430.0" width="150" height="56" rx="14" ry="14" />
<text class="node-title" x="660.0" y="453.0" text-anchor="middle">Soil_Type_2 &lt;= 0.500</text>
<text class="node-meta" x="660.0" y="471.0" text-anchor="middle">n=285070</text>
<rect class="leaf" x="490.0" y="560.0" width="150" height="56" rx="14" ry="14" />
<text class="node-title" x="565.0" y="583.0" text-anchor="middle">Leaf: Lodgepole_Pine</text>
<text class="node-meta" x="565.0" y="601.0" text-anchor="middle">n=280725</text>
<rect class="leaf" x="680.0" y="560.0" width="150" height="56" rx="14" ry="14" />
<text class="node-title" x="755.0" y="583.0" text-anchor="middle">Leaf: Ponderosa_Pine</text>
<text class="node-meta" x="755.0" y="601.0" text-anchor="middle">n=4345</text>
<rect class="leaf" x="870.0" y="430.0" width="150" height="56" rx="14" ry="14" />
<text class="node-title" x="945.0" y="453.0" text-anchor="middle">Leaf: Ponderosa_Pine</text>
<text class="node-meta" x="945.0" y="471.0" text-anchor="middle">n=9044</text>
<rect class="decision" x="1155.0" y="170.0" width="150" height="56" rx="14" ry="14" />
<text class="node-title" x="1230.0" y="193.0" text-anchor="middle">Elevation &lt;= 3318.500</text>
<text class="node-meta" x="1230.0" y="211.0" text-anchor="middle">n=244097</text>
<rect class="leaf" x="1060.0" y="300.0" width="150" height="56" rx="14" ry="14" />
<text class="node-title" x="1135.0" y="323.0" text-anchor="middle">Leaf: Spruce_Fir</text>
<text class="node-meta" x="1135.0" y="341.0" text-anchor="middle">n=209255</text>
<rect class="leaf" x="1250.0" y="300.0" width="150" height="56" rx="14" ry="14" />
<text class="node-title" x="1325.0" y="323.0" text-anchor="middle">Leaf: Spruce_Fir</text>
<text class="node-meta" x="1325.0" y="341.0" text-anchor="middle">n=34842</text>
<g transform="translate(15, 15)">
  <rect class="card-bg" x="0" y="0" width="250" height="125" rx="8" />
  <text class="card-header" x="12" y="22">EVALUATION METRICS</text>
  <text class="card-item" x="18" y="43">• checked samples = 581012</text>
  <text class="card-item" x="18" y="58">• correct predictions = 393048</text>
  <text class="card-item" x="18" y="73">• tree depth = 4</text>
  <text class="card-item" x="18" y="88">• node count = 11</text>
  <text class="card-item" x="18" y="103">• accuracy = 67.6489%</text>
</g>
</svg>