<svg xmlns="http://www.w3.org/2000/svg" width="1180" height="720" viewBox="0 0 1180 720">
<style>
text { font-family: 'Segoe UI', Arial, sans-serif; fill: #111827; }
.title { font-size: 22px; font-weight: 700; }
.subtitle { font-size: 13px; fill: #4b5563; }
.axis { stroke: #9ca3af; stroke-width: 1; }
.legend-box { fill: #f9fafb; stroke: #d1d5db; }
.note-box { fill: rgba(255,255,255,0.92); stroke: #9ca3af; }
.metric-label { font-size: 11px; fill: #374151; }
.value-label { font-size: 10px; font-weight: 600; }
</style>
<rect width="100%" height="100%" fill="#ffffff"/>
<text class="title" x="40" y="42">Porównanie algorytmów drzew decyzyjnych</text>
<text class="subtitle" x="40" y="68">Zbiór: covertype_10x_smaller.csv | max_depth=5 | pruning=wyłączone</text>
<rect class="note-box" x="820" y="18" width="340" height="88" rx="8"/>
<text class="metric-label" x="835" y="42">covertype_10x_smaller.csv</text>
<text class="metric-label" x="835" y="60">max_depth = 5, pruning = None</text>
<text class="metric-label" x="835" y="78">metryki: czas [ms], accuracy [%], node count</text>
<text class="metric-label" x="835" y="96">próbki: 58101</text>
<line class="axis" x1="220" y1="540" x2="1100" y2="540"/>
<rect x="281.6" y="151.1" width="48.4" height="388.9" fill="#2563eb" rx="3"/>
<text class="value-label" x="305.8" y="145.1" text-anchor="middle">311666.4</text>
<rect x="501.6" y="539.5" width="48.4" height="0.5" fill="#2563eb" rx="3"/>
<text class="value-label" x="525.8" y="533.5" text-anchor="middle">361.7</text>
<rect x="721.6" y="537.0" width="48.4" height="3.0" fill="#2563eb" rx="3"/>
<text class="value-label" x="745.8" y="531.0" text-anchor="middle">2373.9</text>
<rect x="941.6" y="536.5" width="48.4" height="3.5" fill="#2563eb" rx="3"/>
<text class="value-label" x="965.8" y="530.5" text-anchor="middle">2790.0</text>
<text class="metric-label" x="240" y="592" fill="#2563eb">■ czas [ms]</text>
<rect x="330.0" y="314.9" width="48.4" height="225.1" fill="#16a34a" rx="3"/>
<text class="value-label" x="354.2" y="308.9" text-anchor="middle">53.6</text>
<rect x="550.0" y="241.5" width="48.4" height="298.5" fill="#16a34a" rx="3"/>
<text class="value-label" x="574.2" y="235.5" text-anchor="middle">71.1</text>
<rect x="770.0" y="241.5" width="48.4" height="298.5" fill="#16a34a" rx="3"/>
<text class="value-label" x="794.2" y="235.5" text-anchor="middle">71.1</text>
<rect x="990.0" y="308.5" width="48.4" height="231.5" fill="#16a34a" rx="3"/>
<text class="value-label" x="1014.2" y="302.5" text-anchor="middle">55.1</text>
<text class="metric-label" x="420" y="592" fill="#16a34a">■ accuracy [%]</text>
<rect x="378.4" y="367.4" width="48.4" height="172.6" fill="#dc2626" rx="3"/>
<text class="value-label" x="402.6" y="361.4" text-anchor="middle">29.0</text>
<rect x="598.4" y="165.0" width="48.4" height="375.0" fill="#dc2626" rx="3"/>
<text class="value-label" x="622.6" y="159.0" text-anchor="middle">63.0</text>
<rect x="818.4" y="165.0" width="48.4" height="375.0" fill="#dc2626" rx="3"/>
<text class="value-label" x="842.6" y="159.0" text-anchor="middle">63.0</text>
<rect x="1038.4" y="236.4" width="48.4" height="303.6" fill="#dc2626" rx="3"/>
<text class="value-label" x="1062.6" y="230.4" text-anchor="middle">51.0</text>
<text class="metric-label" x="600" y="592" fill="#dc2626">■ node count</text>
<text class="metric-label" x="330.0" y="564" text-anchor="middle">Python C4.5</text>
<text class="metric-label" x="330.0" y="578" text-anchor="middle">(c4dot5)</text>
<text class="metric-label" x="550.0" y="564" text-anchor="middle">Python CART</text>
<text class="metric-label" x="550.0" y="578" text-anchor="middle">(scikit-learn)</text>
<text class="metric-label" x="770.0" y="564" text-anchor="middle">C++ CART</text>
<text class="metric-label" x="990.0" y="564" text-anchor="middle">C++ C4.5</text>
<rect class="legend-box" x="40" y="650" width="560" height="88" rx="8"/>
<text class="metric-label" x="58" y="674">Python C4.5: c4dot5 | Python CART: sklearn DecisionTreeClassifier (Gini)</text>
<text class="metric-label" x="58" y="692">C++ C4.5: Entropy + MeanGainFiltered | C++ CART: Gini + MaxGain | wątki C++: 28</text>
<text class="metric-label" x="58" y="710">Źródło danych: porównanie.csv | benchmark równoległy (4 procesy)</text>
</svg>