<svg xmlns="http://www.w3.org/2000/svg" width="6380" height="786" viewBox="0 0 6380 786">
<style>
text { font-family: 'DejaVu Sans Mono', monospace; fill: #14213d; }
.edge { stroke: #6c7a89; stroke-width: 2; fill: none; }
.edge-label { font-size: 12px; font-weight: 700; fill: #415a77; }
.decision { fill: #e0fbfc; stroke: #1d3557; stroke-width: 2; }
.leaf { fill: #fefae0; stroke: #bc6c25; stroke-width: 2; }
.node-title { font-size: 12px; font-weight: 700; }
.node-meta { font-size: 11px; }
.card-bg { fill: #ffffff; fill-opacity: 0.92; stroke: #cbd5e1; stroke-width: 1.5; }
.card-header { font-size: 11px; font-weight: 800; fill: #475569; letter-spacing: 0.5px; }
.card-item { font-size: 10px; fill: #334155; }
</style>
<rect x="0" y="0" width="6380" height="786" fill="#f8f9fa" />
<line class="edge" x1="3320.0" y1="96.0" x2="1800.0" y2="170.0" />
<text class="edge-label" x="2560.0" y="125.0" text-anchor="middle">yes</text>
<line class="edge" x1="1800.0" y1="226.0" x2="1040.0" y2="300.0" />
<text class="edge-label" x="1420.0" y="255.0" text-anchor="middle">yes</text>
<line class="edge" x1="1040.0" y1="356.0" x2="660.0" y2="430.0" />
<text class="edge-label" x="850.0" y="385.0" text-anchor="middle">yes</text>
<line class="edge" x1="660.0" y1="486.0" x2="470.0" y2="560.0" />
<text class="edge-label" x="565.0" y="515.0" text-anchor="middle">yes</text>
<line class="edge" x1="470.0" y1="616.0" x2="375.0" y2="690.0" />
<text class="edge-label" x="422.5" y="645.0" text-anchor="middle">yes</text>
<line class="edge" x1="470.0" y1="616.0" x2="565.0" y2="690.0" />
<text class="edge-label" x="517.5" y="645.0" text-anchor="middle">no</text>
<line class="edge" x1="660.0" y1="486.0" x2="850.0" y2="560.0" />
<text class="edge-label" x="755.0" y="515.0" text-anchor="middle">no</text>
<line class="edge" x1="850.0" y1="616.0" x2="755.0" y2="690.0" />
<text class="edge-label" x="802.5" y="645.0" text-anchor="middle">yes</text>
<line class="edge" x1="850.0" y1="616.0" x2="945.0" y2="690.0" />
<text class="edge-label" x="897.5" y="645.0" text-anchor="middle">no</text>
<line class="edge" x1="1040.0" y1="356.0" x2="1420.0" y2="430.0" />
<text class="edge-label" x="1230.0" y="385.0" text-anchor="middle">no</text>
<line class="edge" x1="1420.0" y1="486.0" x2="1230.0" y2="560.0" />
<text class="edge-label" x="1325.0" y="515.0" text-anchor="middle">yes</text>
<line class="edge" x1="1230.0" y1="616.0" x2="1135.0" y2="690.0" />
<text class="edge-label" x="1182.5" y="645.0" text-anchor="middle">yes</text>
<line class="edge" x1="1230.0" y1="616.0" x2="1325.0" y2="690.0" />
<text class="edge-label" x="1277.5" y="645.0" text-anchor="middle">no</text>
<line class="edge" x1="1420.0" y1="486.0" x2="1610.0" y2="560.0" />
<text class="edge-label" x="1515.0" y="515.0" text-anchor="middle">no</text>
<line class="edge" x1="1610.0" y1="616.0" x2="1515.0" y2="690.0" />
<text class="edge-label" x="1562.5" y="645.0" text-anchor="middle">yes</text>
<line class="edge" x1="1610.0" y1="616.0" x2="1705.0" y2="690.0" />
<text class="edge-label" x="1657.5" y="645.0" text-anchor="middle">no</text>
<line class="edge" x1="1800.0" y1="226.0" x2="2560.0" y2="300.0" />
<text class="edge-label" x="2180.0" y="255.0" text-anchor="middle">no</text>
<line class="edge" x1="2560.0" y1="356.0" x2="2180.0" y2="430.0" />
<text class="edge-label" x="2370.0" y="385.0" text-anchor="middle">yes</text>
<line class="edge" x1="2180.0" y1="486.0" x2="1990.0" y2="560.0" />
<text class="edge-label" x="2085.0" y="515.0" text-anchor="middle">yes</text>
<line class="edge" x1="1990.0" y1="616.0" x2="1895.0" y2="690.0" />
<text class="edge-label" x="1942.5" y="645.0" text-anchor="middle">yes</text>
<line class="edge" x1="1990.0" y1="616.0" x2="2085.0" y2="690.0" />
<text class="edge-label" x="2037.5" y="645.0" text-anchor="middle">no</text>
<line class="edge" x1="2180.0" y1="486.0" x2="2370.0" y2="560.0" />
<text class="edge-label" x="2275.0" y="515.0" text-anchor="middle">no</text>
<line class="edge" x1="2370.0" y1="616.0" x2="2275.0" y2="690.0" />
<text class="edge-label" x="2322.5" y="645.0" text-anchor="middle">yes</text>
<line class="edge" x1="2370.0" y1="616.0" x2="2465.0" y2="690.0" />
<text class="edge-label" x="2417.5" y="645.0" text-anchor="middle">no</text>
<line class="edge" x1="2560.0" y1="356.0" x2="2940.0" y2="430.0" />
<text class="edge-label" x="2750.0" y="385.0" text-anchor="middle">no</text>
<line class="edge" x1="2940.0" y1="486.0" x2="2750.0" y2="560.0" />
<text class="edge-label" x="2845.0" y="515.0" text-anchor="middle">yes</text>
<line class="edge" x1="2750.0" y1="616.0" x2="2655.0" y2="690.0" />
<text class="edge-label" x="2702.5" y="645.0" text-anchor="middle">yes</text>
<line class="edge" x1="2750.0" y1="616.0" x2="2845.0" y2="690.0" />
<text class="edge-label" x="2797.5" y="645.0" text-anchor="middle">no</text>
<line class="edge" x1="2940.0" y1="486.0" x2="3130.0" y2="560.0" />
<text class="edge-label" x="3035.0" y="515.0" text-anchor="middle">no</text>
<line class="edge" x1="3130.0" y1="616.0" x2="3035.0" y2="690.0" />
<text class="edge-label" x="3082.5" y="645.0" text-anchor="middle">yes</text>
<line class="edge" x1="3130.0" y1="616.0" x2="3225.0" y2="690.0" />
<text class="edge-label" x="3177.5" y="645.0" text-anchor="middle">no</text>
<line class="edge" x1="3320.0" y1="96.0" x2="4840.0" y2="170.0" />
<text class="edge-label" x="4080.0" y="125.0" text-anchor="middle">no</text>
<line class="edge" x1="4840.0" y1="226.0" x2="4080.0" y2="300.0" />
<text class="edge-label" x="4460.0" y="255.0" text-anchor="middle">yes</text>
<line class="edge" x1="4080.0" y1="356.0" x2="3700.0" y2="430.0" />
<text class="edge-label" x="3890.0" y="385.0" text-anchor="middle">yes</text>
<line class="edge" x1="3700.0" y1="486.0" x2="3510.0" y2="560.0" />
<text class="edge-label" x="3605.0" y="515.0" text-anchor="middle">yes</text>
<line class="edge" x1="3510.0" y1="616.0" x2="3415.0" y2="690.0" />
<text class="edge-label" x="3462.5" y="645.0" text-anchor="middle">yes</text>
<line class="edge" x1="3510.0" y1="616.0" x2="3605.0" y2="690.0" />
<text class="edge-label" x="3557.5" y="645.0" text-anchor="middle">no</text>
<line class="edge" x1="3700.0" y1="486.0" x2="3890.0" y2="560.0" />
<text class="edge-label" x="3795.0" y="515.0" text-anchor="middle">no</text>
<line class="edge" x1="3890.0" y1="616.0" x2="3795.0" y2="690.0" />
<text class="edge-label" x="3842.5" y="645.0" text-anchor="middle">yes</text>
<line class="edge" x1="3890.0" y1="616.0" x2="3985.0" y2="690.0" />
<text class="edge-label" x="3937.5" y="645.0" text-anchor="middle">no</text>
<line class="edge" x1="4080.0" y1="356.0" x2="4460.0" y2="430.0" />
<text class="edge-label" x="4270.0" y="385.0" text-anchor="middle">no</text>
<line class="edge" x1="4460.0" y1="486.0" x2="4270.0" y2="560.0" />
<text class="edge-label" x="4365.0" y="515.0" text-anchor="middle">yes</text>
<line class="edge" x1="4270.0" y1="616.0" x2="4175.0" y2="690.0" />
<text class="edge-label" x="4222.5" y="645.0" text-anchor="middle">yes</text>
<line class="edge" x1="4270.0" y1="616.0" x2="4365.0" y2="690.0" />
<text class="edge-label" x="4317.5" y="645.0" text-anchor="middle">no</text>
<line class="edge" x1="4460.0" y1="486.0" x2="4650.0" y2="560.0" />
<text class="edge-label" x="4555.0" y="515.0" text-anchor="middle">no</text>
<line class="edge" x1="4650.0" y1="616.0" x2="4555.0" y2="690.0" />
<text class="edge-label" x="4602.5" y="645.0" text-anchor="middle">yes</text>
<line class="edge" x1="4650.0" y1="616.0" x2="4745.0" y2="690.0" />
<text class="edge-label" x="4697.5" y="645.0" text-anchor="middle">no</text>
<line class="edge" x1="4840.0" y1="226.0" x2="5600.0" y2="300.0" />
<text class="edge-label" x="5220.0" y="255.0" text-anchor="middle">no</text>
<line class="edge" x1="5600.0" y1="356.0" x2="5220.0" y2="430.0" />
<text class="edge-label" x="5410.0" y="385.0" text-anchor="middle">yes</text>
<line class="edge" x1="5220.0" y1="486.0" x2="5030.0" y2="560.0" />
<text class="edge-label" x="5125.0" y="515.0" text-anchor="middle">yes</text>
<line class="edge" x1="5030.0" y1="616.0" x2="4935.0" y2="690.0" />
<text class="edge-label" x="4982.5" y="645.0" text-anchor="middle">yes</text>
<line class="edge" x1="5030.0" y1="616.0" x2="5125.0" y2="690.0" />
<text class="edge-label" x="5077.5" y="645.0" text-anchor="middle">no</text>
<line class="edge" x1="5220.0" y1="486.0" x2="5410.0" y2="560.0" />
<text class="edge-label" x="5315.0" y="515.0" text-anchor="middle">no</text>
<line class="edge" x1="5410.0" y1="616.0" x2="5315.0" y2="690.0" />
<text class="edge-label" x="5362.5" y="645.0" text-anchor="middle">yes</text>
<line class="edge" x1="5410.0" y1="616.0" x2="5505.0" y2="690.0" />
<text class="edge-label" x="5457.5" y="645.0" text-anchor="middle">no</text>
<line class="edge" x1="5600.0" y1="356.0" x2="5980.0" y2="430.0" />
<text class="edge-label" x="5790.0" y="385.0" text-anchor="middle">no</text>
<line class="edge" x1="5980.0" y1="486.0" x2="5790.0" y2="560.0" />
<text class="edge-label" x="5885.0" y="515.0" text-anchor="middle">yes</text>
<line class="edge" x1="5790.0" y1="616.0" x2="5695.0" y2="690.0" />
<text class="edge-label" x="5742.5" y="645.0" text-anchor="middle">yes</text>
<line class="edge" x1="5790.0" y1="616.0" x2="5885.0" y2="690.0" />
<text class="edge-label" x="5837.5" y="645.0" text-anchor="middle">no</text>
<line class="edge" x1="5980.0" y1="486.0" x2="6170.0" y2="560.0" />
<text class="edge-label" x="6075.0" y="515.0" text-anchor="middle">no</text>
<line class="edge" x1="6170.0" y1="616.0" x2="6075.0" y2="690.0" />
<text class="edge-label" x="6122.5" y="645.0" text-anchor="middle">yes</text>
<line class="edge" x1="6170.0" y1="616.0" x2="6265.0" y2="690.0" />
<text class="edge-label" x="6217.5" y="645.0" text-anchor="middle">no</text>
<rect class="decision" x="3245.0" y="40.0" width="150" height="56" rx="14" ry="14" />
<text class="node-title" x="3320.0" y="63.0" text-anchor="middle">Elevation &lt;= 3050.500</text>
<text class="node-meta" x="3320.0" y="81.0" text-anchor="middle">n=58101</text>
<rect class="decision" x="1725.0" y="170.0" width="150" height="56" rx="14" ry="14" />
<text class="node-title" x="1800.0" y="193.0" text-anchor="middle">Elevation &lt;= 2507.500</text>
<text class="node-meta" x="1800.0" y="211.0" text-anchor="middle">n=34063</text>
<rect class="decision" x="965.0" y="300.0" width="150" height="56" rx="14" ry="14" />
<text class="node-title" x="1040.0" y="323.0" text-anchor="middle">Horizontal_Distance_To_Hydrology &lt;= 15.000</text>
<text class="node-meta" x="1040.0" y="341.0" text-anchor="middle">n=4245</text>
<rect class="decision" x="585.0" y="430.0" width="150" height="56" rx="14" ry="14" />
<text class="node-title" x="660.0" y="453.0" text-anchor="middle">Elevation &lt;= 2344.500</text>
<text class="node-meta" x="660.0" y="471.0" text-anchor="middle">n=297</text>
<rect class="decision" x="395.0" y="560.0" width="150" height="56" rx="14" ry="14" />
<text class="node-title" x="470.0" y="583.0" text-anchor="middle">Slope &lt;= 10.500</text>
<text class="node-meta" x="470.0" y="601.0" text-anchor="middle">n=160</text>
<rect class="leaf" x="300.0" y="690.0" width="150" height="56" rx="14" ry="14" />
<text class="node-title" x="375.0" y="713.0" text-anchor="middle">Leaf: Cottonwood_Willow</text>
<text class="node-meta" x="375.0" y="731.0" text-anchor="middle">n=53</text>
<rect class="leaf" x="490.0" y="690.0" width="150" height="56" rx="14" ry="14" />
<text class="node-title" x="565.0" y="713.0" text-anchor="middle">Leaf: Cottonwood_Willow</text>
<text class="node-meta" x="565.0" y="731.0" text-anchor="middle">n=107</text>
<rect class="decision" x="775.0" y="560.0" width="150" height="56" rx="14" ry="14" />
<text class="node-title" x="850.0" y="583.0" text-anchor="middle">Wilderness_Area_3 &lt;= 0.500</text>
<text class="node-meta" x="850.0" y="601.0" text-anchor="middle">n=137</text>
<rect class="leaf" x="680.0" y="690.0" width="150" height="56" rx="14" ry="14" />
<text class="node-title" x="755.0" y="713.0" text-anchor="middle">Leaf: Lodgepole_Pine</text>
<text class="node-meta" x="755.0" y="731.0" text-anchor="middle">n=53</text>
<rect class="leaf" x="870.0" y="690.0" width="150" height="56" rx="14" ry="14" />
<text class="node-title" x="945.0" y="713.0" text-anchor="middle">Leaf: Douglas_Fir</text>
<text class="node-meta" x="945.0" y="731.0" text-anchor="middle">n=84</text>
<rect class="decision" x="1345.0" y="430.0" width="150" height="56" rx="14" ry="14" />
<text class="node-title" x="1420.0" y="453.0" text-anchor="middle">Elevation &lt;= 2424.500</text>
<text class="node-meta" x="1420.0" y="471.0" text-anchor="middle">n=3948</text>
<rect class="decision" x="1155.0" y="560.0" width="150" height="56" rx="14" ry="14" />
<text class="node-title" x="1230.0" y="583.0" text-anchor="middle">Soil_Type_3 &lt;= 0.500</text>
<text class="node-meta" x="1230.0" y="601.0" text-anchor="middle">n=2921</text>
<rect class="leaf" x="1060.0" y="690.0" width="150" height="56" rx="14" ry="14" />
<text class="node-title" x="1135.0" y="713.0" text-anchor="middle">Leaf: Ponderosa_Pine</text>
<text class="node-meta" x="1135.0" y="731.0" text-anchor="middle">n=2669</text>
<rect class="leaf" x="1250.0" y="690.0" width="150" height="56" rx="14" ry="14" />
<text class="node-title" x="1325.0" y="713.0" text-anchor="middle">Leaf: Ponderosa_Pine</text>
<text class="node-meta" x="1325.0" y="731.0" text-anchor="middle">n=252</text>
<rect class="decision" x="1535.0" y="560.0" width="150" height="56" rx="14" ry="14" />
<text class="node-title" x="1610.0" y="583.0" text-anchor="middle">Soil_Type_4 &lt;= 0.500</text>
<text class="node-meta" x="1610.0" y="601.0" text-anchor="middle">n=1027</text>
<rect class="leaf" x="1440.0" y="690.0" width="150" height="56" rx="14" ry="14" />
<text class="node-title" x="1515.0" y="713.0" text-anchor="middle">Leaf: Ponderosa_Pine</text>
<text class="node-meta" x="1515.0" y="731.0" text-anchor="middle">n=863</text>
<rect class="leaf" x="1630.0" y="690.0" width="150" height="56" rx="14" ry="14" />
<text class="node-title" x="1705.0" y="713.0" text-anchor="middle">Leaf: Ponderosa_Pine</text>
<text class="node-meta" x="1705.0" y="731.0" text-anchor="middle">n=164</text>
<rect class="decision" x="2485.0" y="300.0" width="150" height="56" rx="14" ry="14" />
<text class="node-title" x="2560.0" y="323.0" text-anchor="middle">Elevation &lt;= 2959.500</text>
<text class="node-meta" x="2560.0" y="341.0" text-anchor="middle">n=29818</text>
<rect class="decision" x="2105.0" y="430.0" width="150" height="56" rx="14" ry="14" />
<text class="node-title" x="2180.0" y="453.0" text-anchor="middle">Soil_Type_4 &lt;= 0.500</text>
<text class="node-meta" x="2180.0" y="471.0" text-anchor="middle">n=21228</text>
<rect class="decision" x="1915.0" y="560.0" width="150" height="56" rx="14" ry="14" />
<text class="node-title" x="1990.0" y="583.0" text-anchor="middle">Soil_Type_2 &lt;= 0.500</text>
<text class="node-meta" x="1990.0" y="601.0" text-anchor="middle">n=20364</text>
<rect class="leaf" x="1820.0" y="690.0" width="150" height="56" rx="14" ry="14" />
<text class="node-title" x="1895.0" y="713.0" text-anchor="middle">Leaf: Lodgepole_Pine</text>
<text class="node-meta" x="1895.0" y="731.0" text-anchor="middle">n=19905</text>
<rect class="leaf" x="2010.0" y="690.0" width="150" height="56" rx="14" ry="14" />
<text class="node-title" x="2085.0" y="713.0" text-anchor="middle">Leaf: Ponderosa_Pine</text>
<text class="node-meta" x="2085.0" y="731.0" text-anchor="middle">n=459</text>
<rect class="decision" x="2295.0" y="560.0" width="150" height="56" rx="14" ry="14" />
<text class="node-title" x="2370.0" y="583.0" text-anchor="middle">Elevation &lt;= 2663.500</text>
<text class="node-meta" x="2370.0" y="601.0" text-anchor="middle">n=864</text>
<rect class="leaf" x="2200.0" y="690.0" width="150" height="56" rx="14" ry="14" />
<text class="node-title" x="2275.0" y="713.0" text-anchor="middle">Leaf: Ponderosa_Pine</text>
<text class="node-meta" x="2275.0" y="731.0" text-anchor="middle">n=405</text>
<rect class="leaf" x="2390.0" y="690.0" width="150" height="56" rx="14" ry="14" />
<text class="node-title" x="2465.0" y="713.0" text-anchor="middle">Leaf: Lodgepole_Pine</text>
<text class="node-meta" x="2465.0" y="731.0" text-anchor="middle">n=459</text>
<rect class="decision" x="2865.0" y="430.0" width="150" height="56" rx="14" ry="14" />
<text class="node-title" x="2940.0" y="453.0" text-anchor="middle">Horizontal_Distance_To_Hydrology &lt;= 205.500</text>
<text class="node-meta" x="2940.0" y="471.0" text-anchor="middle">n=8590</text>
<rect class="decision" x="2675.0" y="560.0" width="150" height="56" rx="14" ry="14" />
<text class="node-title" x="2750.0" y="583.0" text-anchor="middle">Soil_Type_23 &lt;= 0.500</text>
<text class="node-meta" x="2750.0" y="601.0" text-anchor="middle">n=3436</text>
<rect class="leaf" x="2580.0" y="690.0" width="150" height="56" rx="14" ry="14" />
<text class="node-title" x="2655.0" y="713.0" text-anchor="middle">Leaf: Lodgepole_Pine</text>
<text class="node-meta" x="2655.0" y="731.0" text-anchor="middle">n=2775</text>
<rect class="leaf" x="2770.0" y="690.0" width="150" height="56" rx="14" ry="14" />
<text class="node-title" x="2845.0" y="713.0" text-anchor="middle">Leaf: Spruce_Fir</text>
<text class="node-meta" x="2845.0" y="731.0" text-anchor="middle">n=661</text>
<rect class="decision" x="3055.0" y="560.0" width="150" height="56" rx="14" ry="14" />
<text class="node-title" x="3130.0" y="583.0" text-anchor="middle">Hillshade_Noon &lt;= 216.500</text>
<text class="node-meta" x="3130.0" y="601.0" text-anchor="middle">n=5154</text>
<rect class="leaf" x="2960.0" y="690.0" width="150" height="56" rx="14" ry="14" />
<text class="node-title" x="3035.0" y="713.0" text-anchor="middle">Leaf: Lodgepole_Pine</text>
<text class="node-meta" x="3035.0" y="731.0" text-anchor="middle">n=1375</text>
<rect class="leaf" x="3150.0" y="690.0" width="150" height="56" rx="14" ry="14" />
<text class="node-title" x="3225.0" y="713.0" text-anchor="middle">Leaf: Lodgepole_Pine</text>
<text class="node-meta" x="3225.0" y="731.0" text-anchor="middle">n=3779</text>
<rect class="decision" x="4765.0" y="170.0" width="150" height="56" rx="14" ry="14" />
<text class="node-title" x="4840.0" y="193.0" text-anchor="middle">Elevation &lt;= 3321.500</text>
<text class="node-meta" x="4840.0" y="211.0" text-anchor="middle">n=24038</text>
<rect class="decision" x="4005.0" y="300.0" width="150" height="56" rx="14" ry="14" />
<text class="node-title" x="4080.0" y="323.0" text-anchor="middle">Hillshade_Noon &lt;= 240.500</text>
<text class="node-meta" x="4080.0" y="341.0" text-anchor="middle">n=20731</text>
<rect class="decision" x="3625.0" y="430.0" width="150" height="56" rx="14" ry="14" />
<text class="node-title" x="3700.0" y="453.0" text-anchor="middle">Horizontal_Distance_To_Roadways &lt;= 815.500</text>
<text class="node-meta" x="3700.0" y="471.0" text-anchor="middle">n=16225</text>
<rect class="decision" x="3435.0" y="560.0" width="150" height="56" rx="14" ry="14" />
<text class="node-title" x="3510.0" y="583.0" text-anchor="middle">Wilderness_Area_3 &lt;= 0.500</text>
<text class="node-meta" x="3510.0" y="601.0" text-anchor="middle">n=1934</text>
<rect class="leaf" x="3340.0" y="690.0" width="150" height="56" rx="14" ry="14" />
<text class="node-title" x="3415.0" y="713.0" text-anchor="middle">Leaf: Spruce_Fir</text>
<text class="node-meta" x="3415.0" y="731.0" text-anchor="middle">n=1415</text>
<rect class="leaf" x="3530.0" y="690.0" width="150" height="56" rx="14" ry="14" />
<text class="node-title" x="3605.0" y="713.0" text-anchor="middle">Leaf: Lodgepole_Pine</text>
<text class="node-meta" x="3605.0" y="731.0" text-anchor="middle">n=519</text>
<rect class="decision" x="3815.0" y="560.0" width="150" height="56" rx="14" ry="14" />
<text class="node-title" x="3890.0" y="583.0" text-anchor="middle">Elevation &lt;= 3117.500</text>
<text class="node-meta" x="3890.0" y="601.0" text-anchor="middle">n=14291</text>
<rect class="leaf" x="3720.0" y="690.0" width="150" height="56" rx="14" ry="14" />
<text class="node-title" x="3795.0" y="713.0" text-anchor="middle">Leaf: Spruce_Fir</text>
<text class="node-meta" x="3795.0" y="731.0" text-anchor="middle">n=3803</text>
<rect class="leaf" x="3910.0" y="690.0" width="150" height="56" rx="14" ry="14" />
<text class="node-title" x="3985.0" y="713.0" text-anchor="middle">Leaf: Spruce_Fir</text>
<text class="node-meta" x="3985.0" y="731.0" text-anchor="middle">n=10488</text>
<rect class="decision" x="4385.0" y="430.0" width="150" height="56" rx="14" ry="14" />
<text class="node-title" x="4460.0" y="453.0" text-anchor="middle">Horizontal_Distance_To_Hydrology &lt;= 330.500</text>
<text class="node-meta" x="4460.0" y="471.0" text-anchor="middle">n=4506</text>
<rect class="decision" x="4195.0" y="560.0" width="150" height="56" rx="14" ry="14" />
<text class="node-title" x="4270.0" y="583.0" text-anchor="middle">Elevation &lt;= 3197.500</text>
<text class="node-meta" x="4270.0" y="601.0" text-anchor="middle">n=2465</text>
<rect class="leaf" x="4100.0" y="690.0" width="150" height="56" rx="14" ry="14" />
<text class="node-title" x="4175.0" y="713.0" text-anchor="middle">Leaf: Spruce_Fir</text>
<text class="node-meta" x="4175.0" y="731.0" text-anchor="middle">n=1547</text>
<rect class="leaf" x="4290.0" y="690.0" width="150" height="56" rx="14" ry="14" />
<text class="node-title" x="4365.0" y="713.0" text-anchor="middle">Leaf: Spruce_Fir</text>
<text class="node-meta" x="4365.0" y="731.0" text-anchor="middle">n=918</text>
<rect class="decision" x="4575.0" y="560.0" width="150" height="56" rx="14" ry="14" />
<text class="node-title" x="4650.0" y="583.0" text-anchor="middle">Elevation &lt;= 3209.500</text>
<text class="node-meta" x="4650.0" y="601.0" text-anchor="middle">n=2041</text>
<rect class="leaf" x="4480.0" y="690.0" width="150" height="56" rx="14" ry="14" />
<text class="node-title" x="4555.0" y="713.0" text-anchor="middle">Leaf: Lodgepole_Pine</text>
<text class="node-meta" x="4555.0" y="731.0" text-anchor="middle">n=1160</text>
<rect class="leaf" x="4670.0" y="690.0" width="150" height="56" rx="14" ry="14" />
<text class="node-title" x="4745.0" y="713.0" text-anchor="middle">Leaf: Lodgepole_Pine</text>
<text class="node-meta" x="4745.0" y="731.0" text-anchor="middle">n=881</text>
<rect class="decision" x="5525.0" y="300.0" width="150" height="56" rx="14" ry="14" />
<text class="node-title" x="5600.0" y="323.0" text-anchor="middle">Wilderness_Area_3 &lt;= 0.500</text>
<text class="node-meta" x="5600.0" y="341.0" text-anchor="middle">n=3307</text>
<rect class="decision" x="5145.0" y="430.0" width="150" height="56" rx="14" ry="14" />
<text class="node-title" x="5220.0" y="453.0" text-anchor="middle">Horizontal_Distance_To_Hydrology &lt;= 298.500</text>
<text class="node-meta" x="5220.0" y="471.0" text-anchor="middle">n=1640</text>
<rect class="decision" x="4955.0" y="560.0" width="150" height="56" rx="14" ry="14" />
<text class="node-title" x="5030.0" y="583.0" text-anchor="middle">Hillshade_9am &lt;= 203.500</text>
<text class="node-meta" x="5030.0" y="601.0" text-anchor="middle">n=608</text>
<rect class="leaf" x="4860.0" y="690.0" width="150" height="56" rx="14" ry="14" />
<text class="node-title" x="4935.0" y="713.0" text-anchor="middle">Leaf: Spruce_Fir</text>
<text class="node-meta" x="4935.0" y="731.0" text-anchor="middle">n=216</text>
<rect class="leaf" x="5050.0" y="690.0" width="150" height="56" rx="14" ry="14" />
<text class="node-title" x="5125.0" y="713.0" text-anchor="middle">Leaf: Krummholz</text>
<text class="node-meta" x="5125.0" y="731.0" text-anchor="middle">n=392</text>
<rect class="decision" x="5335.0" y="560.0" width="150" height="56" rx="14" ry="14" />
<text class="node-title" x="5410.0" y="583.0" text-anchor="middle">Horizontal_Distance_To_Fire_Points &lt;= 373.500</text>
<text class="node-meta" x="5410.0" y="601.0" text-anchor="middle">n=1032</text>
<rect class="leaf" x="5240.0" y="690.0" width="150" height="56" rx="14" ry="14" />
<text class="node-title" x="5315.0" y="713.0" text-anchor="middle">Leaf: Krummholz</text>
<text class="node-meta" x="5315.0" y="731.0" text-anchor="middle">n=43</text>
<rect class="leaf" x="5430.0" y="690.0" width="150" height="56" rx="14" ry="14" />
<text class="node-title" x="5505.0" y="713.0" text-anchor="middle">Leaf: Spruce_Fir</text>
<text class="node-meta" x="5505.0" y="731.0" text-anchor="middle">n=989</text>
<rect class="decision" x="5905.0" y="430.0" width="150" height="56" rx="14" ry="14" />
<text class="node-title" x="5980.0" y="453.0" text-anchor="middle">Soil_Type_32 &lt;= 0.500</text>
<text class="node-meta" x="5980.0" y="471.0" text-anchor="middle">n=1667</text>
<rect class="decision" x="5715.0" y="560.0" width="150" height="56" rx="14" ry="14" />
<text class="node-title" x="5790.0" y="583.0" text-anchor="middle">Elevation &lt;= 3351.500</text>
<text class="node-meta" x="5790.0" y="601.0" text-anchor="middle">n=1241</text>
<rect class="leaf" x="5620.0" y="690.0" width="150" height="56" rx="14" ry="14" />
<text class="node-title" x="5695.0" y="713.0" text-anchor="middle">Leaf: Spruce_Fir</text>
<text class="node-meta" x="5695.0" y="731.0" text-anchor="middle">n=307</text>
<rect class="leaf" x="5810.0" y="690.0" width="150" height="56" rx="14" ry="14" />
<text class="node-title" x="5885.0" y="713.0" text-anchor="middle">Leaf: Krummholz</text>
<text class="node-meta" x="5885.0" y="731.0" text-anchor="middle">n=934</text>
<rect class="decision" x="6095.0" y="560.0" width="150" height="56" rx="14" ry="14" />
<text class="node-title" x="6170.0" y="583.0" text-anchor="middle">Horizontal_Distance_To_Roadways &lt;= 862.000</text>
<text class="node-meta" x="6170.0" y="601.0" text-anchor="middle">n=426</text>
<rect class="leaf" x="6000.0" y="690.0" width="150" height="56" rx="14" ry="14" />
<text class="node-title" x="6075.0" y="713.0" text-anchor="middle">Leaf: Krummholz</text>
<text class="node-meta" x="6075.0" y="731.0" text-anchor="middle">n=15</text>
<rect class="leaf" x="6190.0" y="690.0" width="150" height="56" rx="14" ry="14" />
<text class="node-title" x="6265.0" y="713.0" text-anchor="middle">Leaf: Spruce_Fir</text>
<text class="node-meta" x="6265.0" y="731.0" text-anchor="middle">n=411</text>
<g transform="translate(15, 15)">
  <rect class="card-bg" x="0" y="0" width="250" height="155" rx="8" />
  <text class="card-header" x="12" y="22">EVALUATION METRICS</text>
  <text class="card-item" x="18" y="43">• checked samples = 58101</text>
  <text class="card-item" x="18" y="58">• correct predictions = 41298</text>
  <text class="card-item" x="18" y="73">• tree depth = 5</text>
  <text class="card-item" x="18" y="88">• node count = 63</text>
  <text class="card-item" x="18" y="103">• accuracy = 71.0797%</text>
  <text class="card-item" x="18" y="118">• build time = 200.3587 ms</text>
  <text class="card-item" x="18" y="133">• prune time = 0.0000 ms</text>
</g>
</svg>