<svg xmlns="http://www.w3.org/2000/svg" width="8780" height="1306" viewBox="0 0 8780 1306">
<style>
text { font-family: 'DejaVu Sans Mono', monospace; fill: #14213d; }
.edge { stroke: #6c7a89; stroke-width: 2; fill: none; }
.edge-label { font-size: 12px; font-weight: 700; fill: #415a77; }
.decision { fill: #e0fbfc; stroke: #1d3557; stroke-width: 2; }
.leaf { fill: #fefae0; stroke: #bc6c25; stroke-width: 2; }
.node-title { font-size: 12px; font-weight: 700; }
.node-meta { font-size: 11px; }
</style>
<rect x="0" y="0" width="8780" height="1306" fill="#f8f9fa" />
<line class="edge" x1="5175.2" y1="96.0" x2="2873.0" y2="170.0" />
<text class="edge-label" x="4024.1" y="125.0" text-anchor="middle">yes</text>
<line class="edge" x1="2873.0" y1="226.0" x2="1526.6" y2="300.0" />
<text class="edge-label" x="2199.8" y="255.0" text-anchor="middle">yes</text>
<line class="edge" x1="1526.6" y1="356.0" x2="744.4" y2="430.0" />
<text class="edge-label" x="1135.5" y="385.0" text-anchor="middle">yes</text>
<line class="edge" x1="744.4" y1="486.0" x2="518.8" y2="560.0" />
<text class="edge-label" x="631.6" y="515.0" text-anchor="middle">yes</text>
<line class="edge" x1="518.8" y1="616.0" x2="352.5" y2="690.0" />
<text class="edge-label" x="435.6" y="645.0" text-anchor="middle">yes</text>
<line class="edge" x1="352.5" y1="746.0" x2="210.0" y2="820.0" />
<text class="edge-label" x="281.2" y="775.0" text-anchor="middle">yes</text>
<line class="edge" x1="210.0" y1="876.0" x2="115.0" y2="950.0" />
<text class="edge-label" x="162.5" y="905.0" text-anchor="middle">yes</text>
<line class="edge" x1="210.0" y1="876.0" x2="305.0" y2="950.0" />
<text class="edge-label" x="257.5" y="905.0" text-anchor="middle">no</text>
<line class="edge" x1="352.5" y1="746.0" x2="495.0" y2="820.0" />
<text class="edge-label" x="423.8" y="775.0" text-anchor="middle">no</text>
<line class="edge" x1="518.8" y1="616.0" x2="685.0" y2="690.0" />
<text class="edge-label" x="601.9" y="645.0" text-anchor="middle">no</text>
<line class="edge" x1="744.4" y1="486.0" x2="970.0" y2="560.0" />
<text class="edge-label" x="857.2" y="515.0" text-anchor="middle">no</text>
<line class="edge" x1="970.0" y1="616.0" x2="875.0" y2="690.0" />
<text class="edge-label" x="922.5" y="645.0" text-anchor="middle">yes</text>
<line class="edge" x1="970.0" y1="616.0" x2="1065.0" y2="690.0" />
<text class="edge-label" x="1017.5" y="645.0" text-anchor="middle">no</text>
<line class="edge" x1="1526.6" y1="356.0" x2="2308.9" y2="430.0" />
<text class="edge-label" x="1917.8" y="385.0" text-anchor="middle">no</text>
<line class="edge" x1="2308.9" y1="486.0" x2="1652.8" y2="560.0" />
<text class="edge-label" x="1980.9" y="515.0" text-anchor="middle">yes</text>
<line class="edge" x1="1652.8" y1="616.0" x2="1255.0" y2="690.0" />
<text class="edge-label" x="1453.9" y="645.0" text-anchor="middle">yes</text>
<line class="edge" x1="1652.8" y1="616.0" x2="2050.6" y2="690.0" />
<text class="edge-label" x="1851.7" y="645.0" text-anchor="middle">no</text>
<line class="edge" x1="2050.6" y1="746.0" x2="1611.2" y2="820.0" />
<text class="edge-label" x="1830.9" y="775.0" text-anchor="middle">yes</text>
<line class="edge" x1="1611.2" y1="876.0" x2="1445.0" y2="950.0" />
<text class="edge-label" x="1528.1" y="905.0" text-anchor="middle">yes</text>
<line class="edge" x1="1611.2" y1="876.0" x2="1777.5" y2="950.0" />
<text class="edge-label" x="1694.4" y="905.0" text-anchor="middle">no</text>
<line class="edge" x1="1777.5" y1="1006.0" x2="1635.0" y2="1080.0" />
<text class="edge-label" x="1706.2" y="1035.0" text-anchor="middle">yes</text>
<line class="edge" x1="1777.5" y1="1006.0" x2="1920.0" y2="1080.0" />
<text class="edge-label" x="1848.8" y="1035.0" text-anchor="middle">no</text>
<line class="edge" x1="1920.0" y1="1136.0" x2="1825.0" y2="1210.0" />
<text class="edge-label" x="1872.5" y="1165.0" text-anchor="middle">yes</text>
<line class="edge" x1="1920.0" y1="1136.0" x2="2015.0" y2="1210.0" />
<text class="edge-label" x="1967.5" y="1165.0" text-anchor="middle">no</text>
<line class="edge" x1="2050.6" y1="746.0" x2="2490.0" y2="820.0" />
<text class="edge-label" x="2270.3" y="775.0" text-anchor="middle">no</text>
<line class="edge" x1="2490.0" y1="876.0" x2="2300.0" y2="950.0" />
<text class="edge-label" x="2395.0" y="905.0" text-anchor="middle">yes</text>
<line class="edge" x1="2300.0" y1="1006.0" x2="2205.0" y2="1080.0" />
<text class="edge-label" x="2252.5" y="1035.0" text-anchor="middle">yes</text>
<line class="edge" x1="2300.0" y1="1006.0" x2="2395.0" y2="1080.0" />
<text class="edge-label" x="2347.5" y="1035.0" text-anchor="middle">no</text>
<line class="edge" x1="2490.0" y1="876.0" x2="2680.0" y2="950.0" />
<text class="edge-label" x="2585.0" y="905.0" text-anchor="middle">no</text>
<line class="edge" x1="2680.0" y1="1006.0" x2="2585.0" y2="1080.0" />
<text class="edge-label" x="2632.5" y="1035.0" text-anchor="middle">yes</text>
<line class="edge" x1="2680.0" y1="1006.0" x2="2775.0" y2="1080.0" />
<text class="edge-label" x="2727.5" y="1035.0" text-anchor="middle">no</text>
<line class="edge" x1="2308.9" y1="486.0" x2="2965.0" y2="560.0" />
<text class="edge-label" x="2637.0" y="515.0" text-anchor="middle">no</text>
<line class="edge" x1="2873.0" y1="226.0" x2="4219.3" y2="300.0" />
<text class="edge-label" x="3546.1" y="255.0" text-anchor="middle">no</text>
<line class="edge" x1="4219.3" y1="356.0" x2="3297.5" y2="430.0" />
<text class="edge-label" x="3758.4" y="385.0" text-anchor="middle">yes</text>
<line class="edge" x1="3297.5" y1="486.0" x2="3155.0" y2="560.0" />
<text class="edge-label" x="3226.2" y="515.0" text-anchor="middle">yes</text>
<line class="edge" x1="3297.5" y1="486.0" x2="3440.0" y2="560.0" />
<text class="edge-label" x="3368.8" y="515.0" text-anchor="middle">no</text>
<line class="edge" x1="3440.0" y1="616.0" x2="3345.0" y2="690.0" />
<text class="edge-label" x="3392.5" y="645.0" text-anchor="middle">yes</text>
<line class="edge" x1="3440.0" y1="616.0" x2="3535.0" y2="690.0" />
<text class="edge-label" x="3487.5" y="645.0" text-anchor="middle">no</text>
<line class="edge" x1="4219.3" y1="356.0" x2="5141.1" y2="430.0" />
<text class="edge-label" x="4680.2" y="385.0" text-anchor="middle">no</text>
<line class="edge" x1="5141.1" y1="486.0" x2="4354.4" y2="560.0" />
<text class="edge-label" x="4747.7" y="515.0" text-anchor="middle">yes</text>
<line class="edge" x1="4354.4" y1="616.0" x2="4128.8" y2="690.0" />
<text class="edge-label" x="4241.6" y="645.0" text-anchor="middle">yes</text>
<line class="edge" x1="4128.8" y1="746.0" x2="3962.5" y2="820.0" />
<text class="edge-label" x="4045.6" y="775.0" text-anchor="middle">yes</text>
<line class="edge" x1="3962.5" y1="876.0" x2="3820.0" y2="950.0" />
<text class="edge-label" x="3891.2" y="905.0" text-anchor="middle">yes</text>
<line class="edge" x1="3820.0" y1="1006.0" x2="3725.0" y2="1080.0" />
<text class="edge-label" x="3772.5" y="1035.0" text-anchor="middle">yes</text>
<line class="edge" x1="3820.0" y1="1006.0" x2="3915.0" y2="1080.0" />
<text class="edge-label" x="3867.5" y="1035.0" text-anchor="middle">no</text>
<line class="edge" x1="3962.5" y1="876.0" x2="4105.0" y2="950.0" />
<text class="edge-label" x="4033.8" y="905.0" text-anchor="middle">no</text>
<line class="edge" x1="4128.8" y1="746.0" x2="4295.0" y2="820.0" />
<text class="edge-label" x="4211.9" y="775.0" text-anchor="middle">no</text>
<line class="edge" x1="4354.4" y1="616.0" x2="4580.0" y2="690.0" />
<text class="edge-label" x="4467.2" y="645.0" text-anchor="middle">no</text>
<line class="edge" x1="4580.0" y1="746.0" x2="4485.0" y2="820.0" />
<text class="edge-label" x="4532.5" y="775.0" text-anchor="middle">yes</text>
<line class="edge" x1="4580.0" y1="746.0" x2="4675.0" y2="820.0" />
<text class="edge-label" x="4627.5" y="775.0" text-anchor="middle">no</text>
<line class="edge" x1="5141.1" y1="486.0" x2="5927.8" y2="560.0" />
<text class="edge-label" x="5534.5" y="515.0" text-anchor="middle">no</text>
<line class="edge" x1="5927.8" y1="616.0" x2="5423.1" y2="690.0" />
<text class="edge-label" x="5675.5" y="645.0" text-anchor="middle">yes</text>
<line class="edge" x1="5423.1" y1="746.0" x2="5007.5" y2="820.0" />
<text class="edge-label" x="5215.3" y="775.0" text-anchor="middle">yes</text>
<line class="edge" x1="5007.5" y1="876.0" x2="4865.0" y2="950.0" />
<text class="edge-label" x="4936.2" y="905.0" text-anchor="middle">yes</text>
<line class="edge" x1="5007.5" y1="876.0" x2="5150.0" y2="950.0" />
<text class="edge-label" x="5078.8" y="905.0" text-anchor="middle">no</text>
<line class="edge" x1="5150.0" y1="1006.0" x2="5055.0" y2="1080.0" />
<text class="edge-label" x="5102.5" y="1035.0" text-anchor="middle">yes</text>
<line class="edge" x1="5150.0" y1="1006.0" x2="5245.0" y2="1080.0" />
<text class="edge-label" x="5197.5" y="1035.0" text-anchor="middle">no</text>
<line class="edge" x1="5423.1" y1="746.0" x2="5838.8" y2="820.0" />
<text class="edge-label" x="5630.9" y="775.0" text-anchor="middle">no</text>
<line class="edge" x1="5838.8" y1="876.0" x2="5672.5" y2="950.0" />
<text class="edge-label" x="5755.6" y="905.0" text-anchor="middle">yes</text>
<line class="edge" x1="5672.5" y1="1006.0" x2="5530.0" y2="1080.0" />
<text class="edge-label" x="5601.2" y="1035.0" text-anchor="middle">yes</text>
<line class="edge" x1="5530.0" y1="1136.0" x2="5435.0" y2="1210.0" />
<text class="edge-label" x="5482.5" y="1165.0" text-anchor="middle">yes</text>
<line class="edge" x1="5530.0" y1="1136.0" x2="5625.0" y2="1210.0" />
<text class="edge-label" x="5577.5" y="1165.0" text-anchor="middle">no</text>
<line class="edge" x1="5672.5" y1="1006.0" x2="5815.0" y2="1080.0" />
<text class="edge-label" x="5743.8" y="1035.0" text-anchor="middle">no</text>
<line class="edge" x1="5838.8" y1="876.0" x2="6005.0" y2="950.0" />
<text class="edge-label" x="5921.9" y="905.0" text-anchor="middle">no</text>
<line class="edge" x1="5927.8" y1="616.0" x2="6432.5" y2="690.0" />
<text class="edge-label" x="6180.2" y="645.0" text-anchor="middle">no</text>
<line class="edge" x1="6432.5" y1="746.0" x2="6290.0" y2="820.0" />
<text class="edge-label" x="6361.2" y="775.0" text-anchor="middle">yes</text>
<line class="edge" x1="6290.0" y1="876.0" x2="6195.0" y2="950.0" />
<text class="edge-label" x="6242.5" y="905.0" text-anchor="middle">yes</text>
<line class="edge" x1="6290.0" y1="876.0" x2="6385.0" y2="950.0" />
<text class="edge-label" x="6337.5" y="905.0" text-anchor="middle">no</text>
<line class="edge" x1="6432.5" y1="746.0" x2="6575.0" y2="820.0" />
<text class="edge-label" x="6503.8" y="775.0" text-anchor="middle">no</text>
<line class="edge" x1="5175.2" y1="96.0" x2="7477.5" y2="170.0" />
<text class="edge-label" x="6326.4" y="125.0" text-anchor="middle">no</text>
<line class="edge" x1="7477.5" y1="226.0" x2="6931.2" y2="300.0" />
<text class="edge-label" x="7204.4" y="255.0" text-anchor="middle">yes</text>
<line class="edge" x1="6931.2" y1="356.0" x2="6765.0" y2="430.0" />
<text class="edge-label" x="6848.1" y="385.0" text-anchor="middle">yes</text>
<line class="edge" x1="6931.2" y1="356.0" x2="7097.5" y2="430.0" />
<text class="edge-label" x="7014.4" y="385.0" text-anchor="middle">no</text>
<line class="edge" x1="7097.5" y1="486.0" x2="6955.0" y2="560.0" />
<text class="edge-label" x="7026.2" y="515.0" text-anchor="middle">yes</text>
<line class="edge" x1="7097.5" y1="486.0" x2="7240.0" y2="560.0" />
<text class="edge-label" x="7168.8" y="515.0" text-anchor="middle">no</text>
<line class="edge" x1="7240.0" y1="616.0" x2="7145.0" y2="690.0" />
<text class="edge-label" x="7192.5" y="645.0" text-anchor="middle">yes</text>
<line class="edge" x1="7240.0" y1="616.0" x2="7335.0" y2="690.0" />
<text class="edge-label" x="7287.5" y="645.0" text-anchor="middle">no</text>
<line class="edge" x1="7477.5" y1="226.0" x2="8023.8" y2="300.0" />
<text class="edge-label" x="7750.6" y="255.0" text-anchor="middle">no</text>
<line class="edge" x1="8023.8" y1="356.0" x2="7620.0" y2="430.0" />
<text class="edge-label" x="7821.9" y="385.0" text-anchor="middle">yes</text>
<line class="edge" x1="7620.0" y1="486.0" x2="7525.0" y2="560.0" />
<text class="edge-label" x="7572.5" y="515.0" text-anchor="middle">yes</text>
<line class="edge" x1="7620.0" y1="486.0" x2="7715.0" y2="560.0" />
<text class="edge-label" x="7667.5" y="515.0" text-anchor="middle">no</text>
<line class="edge" x1="8023.8" y1="356.0" x2="8427.5" y2="430.0" />
<text class="edge-label" x="8225.6" y="385.0" text-anchor="middle">no</text>
<line class="edge" x1="8427.5" y1="486.0" x2="8190.0" y2="560.0" />
<text class="edge-label" x="8308.8" y="515.0" text-anchor="middle">yes</text>
<line class="edge" x1="8190.0" y1="616.0" x2="8000.0" y2="690.0" />
<text class="edge-label" x="8095.0" y="645.0" text-anchor="middle">yes</text>
<line class="edge" x1="8000.0" y1="746.0" x2="7905.0" y2="820.0" />
<text class="edge-label" x="7952.5" y="775.0" text-anchor="middle">yes</text>
<line class="edge" x1="8000.0" y1="746.0" x2="8095.0" y2="820.0" />
<text class="edge-label" x="8047.5" y="775.0" text-anchor="middle">no</text>
<line class="edge" x1="8190.0" y1="616.0" x2="8380.0" y2="690.0" />
<text class="edge-label" x="8285.0" y="645.0" text-anchor="middle">no</text>
<line class="edge" x1="8380.0" y1="746.0" x2="8285.0" y2="820.0" />
<text class="edge-label" x="8332.5" y="775.0" text-anchor="middle">yes</text>
<line class="edge" x1="8380.0" y1="746.0" x2="8475.0" y2="820.0" />
<text class="edge-label" x="8427.5" y="775.0" text-anchor="middle">no</text>
<line class="edge" x1="8427.5" y1="486.0" x2="8665.0" y2="560.0" />
<text class="edge-label" x="8546.2" y="515.0" text-anchor="middle">no</text>
<rect class="decision" x="5100.2" y="40.0" width="150" height="56" rx="14" ry="14" />
<text class="node-title" x="5175.2" y="63.0" text-anchor="middle">Glucose &lt;= 143.500</text>
<text class="node-meta" x="5175.2" y="81.0" text-anchor="middle">n=768</text>
<rect class="decision" x="2798.0" y="170.0" width="150" height="56" rx="14" ry="14" />
<text class="node-title" x="2873.0" y="193.0" text-anchor="middle">Age &lt;= 28.500</text>
<text class="node-meta" x="2873.0" y="211.0" text-anchor="middle">n=592</text>
<rect class="decision" x="1451.6" y="300.0" width="150" height="56" rx="14" ry="14" />
<text class="node-title" x="1526.6" y="323.0" text-anchor="middle">BMI &lt;= 30.300</text>
<text class="node-meta" x="1526.6" y="341.0" text-anchor="middle">n=319</text>
<rect class="decision" x="669.4" y="430.0" width="150" height="56" rx="14" ry="14" />
<text class="node-title" x="744.4" y="453.0" text-anchor="middle">Glucose &lt;= 121.000</text>
<text class="node-meta" x="744.4" y="471.0" text-anchor="middle">n=161</text>
<rect class="decision" x="443.8" y="560.0" width="150" height="56" rx="14" ry="14" />
<text class="node-title" x="518.8" y="583.0" text-anchor="middle">DiabetesPedigreeFunction &lt;= 0.672</text>
<text class="node-meta" x="518.8" y="601.0" text-anchor="middle">n=132</text>
<rect class="decision" x="277.5" y="690.0" width="150" height="56" rx="14" ry="14" />
<text class="node-title" x="352.5" y="713.0" text-anchor="middle">SkinThickness &lt;= 5.000</text>
<text class="node-meta" x="352.5" y="731.0" text-anchor="middle">n=118</text>
<rect class="decision" x="135.0" y="820.0" width="150" height="56" rx="14" ry="14" />
<text class="node-title" x="210.0" y="843.0" text-anchor="middle">Age &lt;= 22.500</text>
<text class="node-meta" x="210.0" y="861.0" text-anchor="middle">n=31</text>
<rect class="leaf" x="40.0" y="950.0" width="150" height="56" rx="14" ry="14" />
<text class="node-title" x="115.0" y="973.0" text-anchor="middle">Leaf: 0</text>
<text class="node-meta" x="115.0" y="991.0" text-anchor="middle">n=11</text>
<rect class="leaf" x="230.0" y="950.0" width="150" height="56" rx="14" ry="14" />
<text class="node-title" x="305.0" y="973.0" text-anchor="middle">Leaf: 0</text>
<text class="node-meta" x="305.0" y="991.0" text-anchor="middle">n=20</text>
<rect class="leaf" x="420.0" y="820.0" width="150" height="56" rx="14" ry="14" />
<text class="node-title" x="495.0" y="843.0" text-anchor="middle">Leaf: 0</text>
<text class="node-meta" x="495.0" y="861.0" text-anchor="middle">n=87</text>
<rect class="leaf" x="610.0" y="690.0" width="150" height="56" rx="14" ry="14" />
<text class="node-title" x="685.0" y="713.0" text-anchor="middle">Leaf: 0</text>
<text class="node-meta" x="685.0" y="731.0" text-anchor="middle">n=14</text>
<rect class="decision" x="895.0" y="560.0" width="150" height="56" rx="14" ry="14" />
<text class="node-title" x="970.0" y="583.0" text-anchor="middle">Insulin &lt;= 117.500</text>
<text class="node-meta" x="970.0" y="601.0" text-anchor="middle">n=29</text>
<rect class="leaf" x="800.0" y="690.0" width="150" height="56" rx="14" ry="14" />
<text class="node-title" x="875.0" y="713.0" text-anchor="middle">Leaf: 0</text>
<text class="node-meta" x="875.0" y="731.0" text-anchor="middle">n=16</text>
<rect class="leaf" x="990.0" y="690.0" width="150" height="56" rx="14" ry="14" />
<text class="node-title" x="1065.0" y="713.0" text-anchor="middle">Leaf: 0</text>
<text class="node-meta" x="1065.0" y="731.0" text-anchor="middle">n=13</text>
<rect class="decision" x="2233.9" y="430.0" width="150" height="56" rx="14" ry="14" />
<text class="node-title" x="2308.9" y="453.0" text-anchor="middle">Glucose &lt;= 130.000</text>
<text class="node-meta" x="2308.9" y="471.0" text-anchor="middle">n=158</text>
<rect class="decision" x="1577.8" y="560.0" width="150" height="56" rx="14" ry="14" />
<text class="node-title" x="1652.8" y="583.0" text-anchor="middle">BloodPressure &lt;= 53.000</text>
<text class="node-meta" x="1652.8" y="601.0" text-anchor="middle">n=139</text>
<rect class="leaf" x="1180.0" y="690.0" width="150" height="56" rx="14" ry="14" />
<text class="node-title" x="1255.0" y="713.0" text-anchor="middle">Leaf: 0</text>
<text class="node-meta" x="1255.0" y="731.0" text-anchor="middle">n=14</text>
<rect class="decision" x="1975.6" y="690.0" width="150" height="56" rx="14" ry="14" />
<text class="node-title" x="2050.6" y="713.0" text-anchor="middle">DiabetesPedigreeFunction &lt;= 0.500</text>
<text class="node-meta" x="2050.6" y="731.0" text-anchor="middle">n=125</text>
<rect class="decision" x="1536.2" y="820.0" width="150" height="56" rx="14" ry="14" />
<text class="node-title" x="1611.2" y="843.0" text-anchor="middle">BloodPressure &lt;= 69.000</text>
<text class="node-meta" x="1611.2" y="861.0" text-anchor="middle">n=77</text>
<rect class="leaf" x="1370.0" y="950.0" width="150" height="56" rx="14" ry="14" />
<text class="node-title" x="1445.0" y="973.0" text-anchor="middle">Leaf: 0</text>
<text class="node-meta" x="1445.0" y="991.0" text-anchor="middle">n=35</text>
<rect class="decision" x="1702.5" y="950.0" width="150" height="56" rx="14" ry="14" />
<text class="node-title" x="1777.5" y="973.0" text-anchor="middle">Insulin &lt;= 36.500</text>
<text class="node-meta" x="1777.5" y="991.0" text-anchor="middle">n=42</text>
<rect class="leaf" x="1560.0" y="1080.0" width="150" height="56" rx="14" ry="14" />
<text class="node-title" x="1635.0" y="1103.0" text-anchor="middle">Leaf: 0</text>
<text class="node-meta" x="1635.0" y="1121.0" text-anchor="middle">n=16</text>
<rect class="decision" x="1845.0" y="1080.0" width="150" height="56" rx="14" ry="14" />
<text class="node-title" x="1920.0" y="1103.0" text-anchor="middle">SkinThickness &lt;= 35.000</text>
<text class="node-meta" x="1920.0" y="1121.0" text-anchor="middle">n=26</text>
<rect class="leaf" x="1750.0" y="1210.0" width="150" height="56" rx="14" ry="14" />
<text class="node-title" x="1825.0" y="1233.0" text-anchor="middle">Leaf: 0</text>
<text class="node-meta" x="1825.0" y="1251.0" text-anchor="middle">n=16</text>
<rect class="leaf" x="1940.0" y="1210.0" width="150" height="56" rx="14" ry="14" />
<text class="node-title" x="2015.0" y="1233.0" text-anchor="middle">Leaf: 0</text>
<text class="node-meta" x="2015.0" y="1251.0" text-anchor="middle">n=10</text>
<rect class="decision" x="2415.0" y="820.0" width="150" height="56" rx="14" ry="14" />
<text class="node-title" x="2490.0" y="843.0" text-anchor="middle">BloodPressure &lt;= 69.000</text>
<text class="node-meta" x="2490.0" y="861.0" text-anchor="middle">n=48</text>
<rect class="decision" x="2225.0" y="950.0" width="150" height="56" rx="14" ry="14" />
<text class="node-title" x="2300.0" y="973.0" text-anchor="middle">SkinThickness &lt;= 31.000</text>
<text class="node-meta" x="2300.0" y="991.0" text-anchor="middle">n=21</text>
<rect class="leaf" x="2130.0" y="1080.0" width="150" height="56" rx="14" ry="14" />
<text class="node-title" x="2205.0" y="1103.0" text-anchor="middle">Leaf: 0</text>
<text class="node-meta" x="2205.0" y="1121.0" text-anchor="middle">n=10</text>
<rect class="leaf" x="2320.0" y="1080.0" width="150" height="56" rx="14" ry="14" />
<text class="node-title" x="2395.0" y="1103.0" text-anchor="middle">Leaf: 1</text>
<text class="node-meta" x="2395.0" y="1121.0" text-anchor="middle">n=11</text>
<rect class="decision" x="2605.0" y="950.0" width="150" height="56" rx="14" ry="14" />
<text class="node-title" x="2680.0" y="973.0" text-anchor="middle">SkinThickness &lt;= 25.500</text>
<text class="node-meta" x="2680.0" y="991.0" text-anchor="middle">n=27</text>
<rect class="leaf" x="2510.0" y="1080.0" width="150" height="56" rx="14" ry="14" />
<text class="node-title" x="2585.0" y="1103.0" text-anchor="middle">Leaf: 0</text>
<text class="node-meta" x="2585.0" y="1121.0" text-anchor="middle">n=10</text>
<rect class="leaf" x="2700.0" y="1080.0" width="150" height="56" rx="14" ry="14" />
<text class="node-title" x="2775.0" y="1103.0" text-anchor="middle">Leaf: 0</text>
<text class="node-meta" x="2775.0" y="1121.0" text-anchor="middle">n=17</text>
<rect class="leaf" x="2890.0" y="560.0" width="150" height="56" rx="14" ry="14" />
<text class="node-title" x="2965.0" y="583.0" text-anchor="middle">Leaf: 1</text>
<text class="node-meta" x="2965.0" y="601.0" text-anchor="middle">n=19</text>
<rect class="decision" x="4144.3" y="300.0" width="150" height="56" rx="14" ry="14" />
<text class="node-title" x="4219.3" y="323.0" text-anchor="middle">BMI &lt;= 27.350</text>
<text class="node-meta" x="4219.3" y="341.0" text-anchor="middle">n=273</text>
<rect class="decision" x="3222.5" y="430.0" width="150" height="56" rx="14" ry="14" />
<text class="node-title" x="3297.5" y="453.0" text-anchor="middle">BloodPressure &lt;= 60.500</text>
<text class="node-meta" x="3297.5" y="471.0" text-anchor="middle">n=61</text>
<rect class="leaf" x="3080.0" y="560.0" width="150" height="56" rx="14" ry="14" />
<text class="node-title" x="3155.0" y="583.0" text-anchor="middle">Leaf: 0</text>
<text class="node-meta" x="3155.0" y="601.0" text-anchor="middle">n=12</text>
<rect class="decision" x="3365.0" y="560.0" width="150" height="56" rx="14" ry="14" />
<text class="node-title" x="3440.0" y="583.0" text-anchor="middle">Age &lt;= 51.500</text>
<text class="node-meta" x="3440.0" y="601.0" text-anchor="middle">n=49</text>
<rect class="leaf" x="3270.0" y="690.0" width="150" height="56" rx="14" ry="14" />
<text class="node-title" x="3345.0" y="713.0" text-anchor="middle">Leaf: 0</text>
<text class="node-meta" x="3345.0" y="731.0" text-anchor="middle">n=31</text>
<rect class="leaf" x="3460.0" y="690.0" width="150" height="56" rx="14" ry="14" />
<text class="node-title" x="3535.0" y="713.0" text-anchor="middle">Leaf: 0</text>
<text class="node-meta" x="3535.0" y="731.0" text-anchor="middle">n=18</text>
<rect class="decision" x="5066.1" y="430.0" width="150" height="56" rx="14" ry="14" />
<text class="node-title" x="5141.1" y="453.0" text-anchor="middle">Glucose &lt;= 107.500</text>
<text class="node-meta" x="5141.1" y="471.0" text-anchor="middle">n=212</text>
<rect class="decision" x="4279.4" y="560.0" width="150" height="56" rx="14" ry="14" />
<text class="node-title" x="4354.4" y="583.0" text-anchor="middle">DiabetesPedigreeFunction &lt;= 0.635</text>
<text class="node-meta" x="4354.4" y="601.0" text-anchor="middle">n=88</text>
<rect class="decision" x="4053.8" y="690.0" width="150" height="56" rx="14" ry="14" />
<text class="node-title" x="4128.8" y="713.0" text-anchor="middle">SkinThickness &lt;= 36.500</text>
<text class="node-meta" x="4128.8" y="731.0" text-anchor="middle">n=67</text>
<rect class="decision" x="3887.5" y="820.0" width="150" height="56" rx="14" ry="14" />
<text class="node-title" x="3962.5" y="843.0" text-anchor="middle">BMI &lt;= 34.700</text>
<text class="node-meta" x="3962.5" y="861.0" text-anchor="middle">n=53</text>
<rect class="decision" x="3745.0" y="950.0" width="150" height="56" rx="14" ry="14" />
<text class="node-title" x="3820.0" y="973.0" text-anchor="middle">Glucose &lt;= 93.500</text>
<text class="node-meta" x="3820.0" y="991.0" text-anchor="middle">n=36</text>
<rect class="leaf" x="3650.0" y="1080.0" width="150" height="56" rx="14" ry="14" />
<text class="node-title" x="3725.0" y="1103.0" text-anchor="middle">Leaf: 0</text>
<text class="node-meta" x="3725.0" y="1121.0" text-anchor="middle">n=19</text>
<rect class="leaf" x="3840.0" y="1080.0" width="150" height="56" rx="14" ry="14" />
<text class="node-title" x="3915.0" y="1103.0" text-anchor="middle">Leaf: 0</text>
<text class="node-meta" x="3915.0" y="1121.0" text-anchor="middle">n=17</text>
<rect class="leaf" x="4030.0" y="950.0" width="150" height="56" rx="14" ry="14" />
<text class="node-title" x="4105.0" y="973.0" text-anchor="middle">Leaf: 0</text>
<text class="node-meta" x="4105.0" y="991.0" text-anchor="middle">n=17</text>
<rect class="leaf" x="4220.0" y="820.0" width="150" height="56" rx="14" ry="14" />
<text class="node-title" x="4295.0" y="843.0" text-anchor="middle">Leaf: 0</text>
<text class="node-meta" x="4295.0" y="861.0" text-anchor="middle">n=14</text>
<rect class="decision" x="4505.0" y="690.0" width="150" height="56" rx="14" ry="14" />
<text class="node-title" x="4580.0" y="713.0" text-anchor="middle">Age &lt;= 37.000</text>
<text class="node-meta" x="4580.0" y="731.0" text-anchor="middle">n=21</text>
<rect class="leaf" x="4410.0" y="820.0" width="150" height="56" rx="14" ry="14" />
<text class="node-title" x="4485.0" y="843.0" text-anchor="middle">Leaf: 0</text>
<text class="node-meta" x="4485.0" y="861.0" text-anchor="middle">n=10</text>
<rect class="leaf" x="4600.0" y="820.0" width="150" height="56" rx="14" ry="14" />
<text class="node-title" x="4675.0" y="843.0" text-anchor="middle">Leaf: 1</text>
<text class="node-meta" x="4675.0" y="861.0" text-anchor="middle">n=11</text>
<rect class="decision" x="5852.8" y="560.0" width="150" height="56" rx="14" ry="14" />
<text class="node-title" x="5927.8" y="583.0" text-anchor="middle">DiabetesPedigreeFunction &lt;= 0.528</text>
<text class="node-meta" x="5927.8" y="601.0" text-anchor="middle">n=124</text>
<rect class="decision" x="5348.1" y="690.0" width="150" height="56" rx="14" ry="14" />
<text class="node-title" x="5423.1" y="713.0" text-anchor="middle">BloodPressure &lt;= 73.000</text>
<text class="node-meta" x="5423.1" y="731.0" text-anchor="middle">n=80</text>
<rect class="decision" x="4932.5" y="820.0" width="150" height="56" rx="14" ry="14" />
<text class="node-title" x="5007.5" y="843.0" text-anchor="middle">Age &lt;= 34.500</text>
<text class="node-meta" x="5007.5" y="861.0" text-anchor="middle">n=33</text>
<rect class="leaf" x="4790.0" y="950.0" width="150" height="56" rx="14" ry="14" />
<text class="node-title" x="4865.0" y="973.0" text-anchor="middle">Leaf: 0</text>
<text class="node-meta" x="4865.0" y="991.0" text-anchor="middle">n=13</text>
<rect class="decision" x="5075.0" y="950.0" width="150" height="56" rx="14" ry="14" />
<text class="node-title" x="5150.0" y="973.0" text-anchor="middle">BloodPressure &lt;= 67.000</text>
<text class="node-meta" x="5150.0" y="991.0" text-anchor="middle">n=20</text>
<rect class="leaf" x="4980.0" y="1080.0" width="150" height="56" rx="14" ry="14" />
<text class="node-title" x="5055.0" y="1103.0" text-anchor="middle">Leaf: 1</text>
<text class="node-meta" x="5055.0" y="1121.0" text-anchor="middle">n=10</text>
<rect class="leaf" x="5170.0" y="1080.0" width="150" height="56" rx="14" ry="14" />
<text class="node-title" x="5245.0" y="1103.0" text-anchor="middle">Leaf: 1</text>
<text class="node-meta" x="5245.0" y="1121.0" text-anchor="middle">n=10</text>
<rect class="decision" x="5763.8" y="820.0" width="150" height="56" rx="14" ry="14" />
<text class="node-title" x="5838.8" y="843.0" text-anchor="middle">Insulin &lt;= 126.000</text>
<text class="node-meta" x="5838.8" y="861.0" text-anchor="middle">n=47</text>
<rect class="decision" x="5597.5" y="950.0" width="150" height="56" rx="14" ry="14" />
<text class="node-title" x="5672.5" y="973.0" text-anchor="middle">BloodPressure &lt;= 84.500</text>
<text class="node-meta" x="5672.5" y="991.0" text-anchor="middle">n=37</text>
<rect class="decision" x="5455.0" y="1080.0" width="150" height="56" rx="14" ry="14" />
<text class="node-title" x="5530.0" y="1103.0" text-anchor="middle">SkinThickness &lt;= 7.500</text>
<text class="node-meta" x="5530.0" y="1121.0" text-anchor="middle">n=20</text>
<rect class="leaf" x="5360.0" y="1210.0" width="150" height="56" rx="14" ry="14" />
<text class="node-title" x="5435.0" y="1233.0" text-anchor="middle">Leaf: 0</text>
<text class="node-meta" x="5435.0" y="1251.0" text-anchor="middle">n=10</text>
<rect class="leaf" x="5550.0" y="1210.0" width="150" height="56" rx="14" ry="14" />
<text class="node-title" x="5625.0" y="1233.0" text-anchor="middle">Leaf: 0</text>
<text class="node-meta" x="5625.0" y="1251.0" text-anchor="middle">n=10</text>
<rect class="leaf" x="5740.0" y="1080.0" width="150" height="56" rx="14" ry="14" />
<text class="node-title" x="5815.0" y="1103.0" text-anchor="middle">Leaf: 0</text>
<text class="node-meta" x="5815.0" y="1121.0" text-anchor="middle">n=17</text>
<rect class="leaf" x="5930.0" y="950.0" width="150" height="56" rx="14" ry="14" />
<text class="node-title" x="6005.0" y="973.0" text-anchor="middle">Leaf: 1</text>
<text class="node-meta" x="6005.0" y="991.0" text-anchor="middle">n=10</text>
<rect class="decision" x="6357.5" y="690.0" width="150" height="56" rx="14" ry="14" />
<text class="node-title" x="6432.5" y="713.0" text-anchor="middle">DiabetesPedigreeFunction &lt;= 0.944</text>
<text class="node-meta" x="6432.5" y="731.0" text-anchor="middle">n=44</text>
<rect class="decision" x="6215.0" y="820.0" width="150" height="56" rx="14" ry="14" />
<text class="node-title" x="6290.0" y="843.0" text-anchor="middle">DiabetesPedigreeFunction &lt;= 0.673</text>
<text class="node-meta" x="6290.0" y="861.0" text-anchor="middle">n=31</text>
<rect class="leaf" x="6120.0" y="950.0" width="150" height="56" rx="14" ry="14" />
<text class="node-title" x="6195.0" y="973.0" text-anchor="middle">Leaf: 1</text>
<text class="node-meta" x="6195.0" y="991.0" text-anchor="middle">n=14</text>
<rect class="leaf" x="6310.0" y="950.0" width="150" height="56" rx="14" ry="14" />
<text class="node-title" x="6385.0" y="973.0" text-anchor="middle">Leaf: 1</text>
<text class="node-meta" x="6385.0" y="991.0" text-anchor="middle">n=17</text>
<rect class="leaf" x="6500.0" y="820.0" width="150" height="56" rx="14" ry="14" />
<text class="node-title" x="6575.0" y="843.0" text-anchor="middle">Leaf: 1</text>
<text class="node-meta" x="6575.0" y="861.0" text-anchor="middle">n=13</text>
<rect class="decision" x="7402.5" y="170.0" width="150" height="56" rx="14" ry="14" />
<text class="node-title" x="7477.5" y="193.0" text-anchor="middle">Glucose &lt;= 154.500</text>
<text class="node-meta" x="7477.5" y="211.0" text-anchor="middle">n=176</text>
<rect class="decision" x="6856.2" y="300.0" width="150" height="56" rx="14" ry="14" />
<text class="node-title" x="6931.2" y="323.0" text-anchor="middle">DiabetesPedigreeFunction &lt;= 0.332</text>
<text class="node-meta" x="6931.2" y="341.0" text-anchor="middle">n=54</text>
<rect class="leaf" x="6690.0" y="430.0" width="150" height="56" rx="14" ry="14" />
<text class="node-title" x="6765.0" y="453.0" text-anchor="middle">Leaf: 0</text>
<text class="node-meta" x="6765.0" y="471.0" text-anchor="middle">n=18</text>
<rect class="decision" x="7022.5" y="430.0" width="150" height="56" rx="14" ry="14" />
<text class="node-title" x="7097.5" y="453.0" text-anchor="middle">Age &lt;= 30.500</text>
<text class="node-meta" x="7097.5" y="471.0" text-anchor="middle">n=36</text>
<rect class="leaf" x="6880.0" y="560.0" width="150" height="56" rx="14" ry="14" />
<text class="node-title" x="6955.0" y="583.0" text-anchor="middle">Leaf: 0</text>
<text class="node-meta" x="6955.0" y="601.0" text-anchor="middle">n=13</text>
<rect class="decision" x="7165.0" y="560.0" width="150" height="56" rx="14" ry="14" />
<text class="node-title" x="7240.0" y="583.0" text-anchor="middle">Glucose &lt;= 149.500</text>
<text class="node-meta" x="7240.0" y="601.0" text-anchor="middle">n=23</text>
<rect class="leaf" x="7070.0" y="690.0" width="150" height="56" rx="14" ry="14" />
<text class="node-title" x="7145.0" y="713.0" text-anchor="middle">Leaf: 1</text>
<text class="node-meta" x="7145.0" y="731.0" text-anchor="middle">n=12</text>
<rect class="leaf" x="7260.0" y="690.0" width="150" height="56" rx="14" ry="14" />
<text class="node-title" x="7335.0" y="713.0" text-anchor="middle">Leaf: 1</text>
<text class="node-meta" x="7335.0" y="731.0" text-anchor="middle">n=11</text>
<rect class="decision" x="7948.8" y="300.0" width="150" height="56" rx="14" ry="14" />
<text class="node-title" x="8023.8" y="323.0" text-anchor="middle">BMI &lt;= 29.850</text>
<text class="node-meta" x="8023.8" y="341.0" text-anchor="middle">n=122</text>
<rect class="decision" x="7545.0" y="430.0" width="150" height="56" rx="14" ry="14" />
<text class="node-title" x="7620.0" y="453.0" text-anchor="middle">BMI &lt;= 25.850</text>
<text class="node-meta" x="7620.0" y="471.0" text-anchor="middle">n=22</text>
<rect class="leaf" x="7450.0" y="560.0" width="150" height="56" rx="14" ry="14" />
<text class="node-title" x="7525.0" y="583.0" text-anchor="middle">Leaf: 1</text>
<text class="node-meta" x="7525.0" y="601.0" text-anchor="middle">n=11</text>
<rect class="leaf" x="7640.0" y="560.0" width="150" height="56" rx="14" ry="14" />
<text class="node-title" x="7715.0" y="583.0" text-anchor="middle">Leaf: 0</text>
<text class="node-meta" x="7715.0" y="601.0" text-anchor="middle">n=11</text>
<rect class="decision" x="8352.5" y="430.0" width="150" height="56" rx="14" ry="14" />
<text class="node-title" x="8427.5" y="453.0" text-anchor="middle">Insulin &lt;= 357.500</text>
<text class="node-meta" x="8427.5" y="471.0" text-anchor="middle">n=100</text>
<rect class="decision" x="8115.0" y="560.0" width="150" height="56" rx="14" ry="14" />
<text class="node-title" x="8190.0" y="583.0" text-anchor="middle">Age &lt;= 44.500</text>
<text class="node-meta" x="8190.0" y="601.0" text-anchor="middle">n=84</text>
<rect class="decision" x="7925.0" y="690.0" width="150" height="56" rx="14" ry="14" />
<text class="node-title" x="8000.0" y="713.0" text-anchor="middle">DiabetesPedigreeFunction &lt;= 0.306</text>
<text class="node-meta" x="8000.0" y="731.0" text-anchor="middle">n=62</text>
<rect class="leaf" x="7830.0" y="820.0" width="150" height="56" rx="14" ry="14" />
<text class="node-title" x="7905.0" y="843.0" text-anchor="middle">Leaf: 1</text>
<text class="node-meta" x="7905.0" y="861.0" text-anchor="middle">n=18</text>
<rect class="leaf" x="8020.0" y="820.0" width="150" height="56" rx="14" ry="14" />
<text class="node-title" x="8095.0" y="843.0" text-anchor="middle">Leaf: 1</text>
<text class="node-meta" x="8095.0" y="861.0" text-anchor="middle">n=44</text>
<rect class="decision" x="8305.0" y="690.0" width="150" height="56" rx="14" ry="14" />
<text class="node-title" x="8380.0" y="713.0" text-anchor="middle">SkinThickness &lt;= 25.000</text>
<text class="node-meta" x="8380.0" y="731.0" text-anchor="middle">n=22</text>
<rect class="leaf" x="8210.0" y="820.0" width="150" height="56" rx="14" ry="14" />
<text class="node-title" x="8285.0" y="843.0" text-anchor="middle">Leaf: 1</text>
<text class="node-meta" x="8285.0" y="861.0" text-anchor="middle">n=10</text>
<rect class="leaf" x="8400.0" y="820.0" width="150" height="56" rx="14" ry="14" />
<text class="node-title" x="8475.0" y="843.0" text-anchor="middle">Leaf: 1</text>
<text class="node-meta" x="8475.0" y="861.0" text-anchor="middle">n=12</text>
<rect class="leaf" x="8590.0" y="560.0" width="150" height="56" rx="14" ry="14" />
<text class="node-title" x="8665.0" y="583.0" text-anchor="middle">Leaf: 1</text>
<text class="node-meta" x="8665.0" y="601.0" text-anchor="middle">n=16</text>
</svg>