<svg xmlns="http://www.w3.org/2000/svg" width="9160" height="2086" viewBox="0 0 9160 2086">
<style>
text { font-family: 'DejaVu Sans Mono', monospace; fill: #14213d; }
.edge { stroke: #6c7a89; stroke-width: 2; fill: none; }
.edge-label { font-size: 12px; font-weight: 700; fill: #415a77; }
.decision { fill: #e0fbfc; stroke: #1d3557; stroke-width: 2; }
.leaf { fill: #fefae0; stroke: #bc6c25; stroke-width: 2; }
.node-title { font-size: 12px; font-weight: 700; }
.node-meta { font-size: 11px; }
</style>
<rect x="0" y="0" width="9160" height="2086" fill="#f8f9fa" />
<line class="edge" x1="7162.6" y1="96.0" x2="6046.1" y2="170.0" />
<text class="edge-label" x="6604.3" y="125.0" text-anchor="middle">yes</text>
<line class="edge" x1="6046.1" y1="226.0" x2="4329.7" y2="300.0" />
<text class="edge-label" x="5187.9" y="255.0" text-anchor="middle">yes</text>
<line class="edge" x1="4329.7" y1="356.0" x2="1419.4" y2="430.0" />
<text class="edge-label" x="2874.6" y="385.0" text-anchor="middle">yes</text>
<line class="edge" x1="1419.4" y1="486.0" x2="441.6" y2="560.0" />
<text class="edge-label" x="930.5" y="515.0" text-anchor="middle">yes</text>
<line class="edge" x1="441.6" y1="616.0" x2="115.0" y2="690.0" />
<text class="edge-label" x="278.3" y="645.0" text-anchor="middle">yes</text>
<line class="edge" x1="441.6" y1="616.0" x2="768.1" y2="690.0" />
<text class="edge-label" x="604.8" y="645.0" text-anchor="middle">no</text>
<line class="edge" x1="768.1" y1="746.0" x2="471.2" y2="820.0" />
<text class="edge-label" x="619.7" y="775.0" text-anchor="middle">yes</text>
<line class="edge" x1="471.2" y1="876.0" x2="305.0" y2="950.0" />
<text class="edge-label" x="388.1" y="905.0" text-anchor="middle">yes</text>
<line class="edge" x1="471.2" y1="876.0" x2="637.5" y2="950.0" />
<text class="edge-label" x="554.4" y="905.0" text-anchor="middle">no</text>
<line class="edge" x1="637.5" y1="1006.0" x2="495.0" y2="1080.0" />
<text class="edge-label" x="566.2" y="1035.0" text-anchor="middle">yes</text>
<line class="edge" x1="637.5" y1="1006.0" x2="780.0" y2="1080.0" />
<text class="edge-label" x="708.8" y="1035.0" text-anchor="middle">no</text>
<line class="edge" x1="780.0" y1="1136.0" x2="685.0" y2="1210.0" />
<text class="edge-label" x="732.5" y="1165.0" text-anchor="middle">yes</text>
<line class="edge" x1="780.0" y1="1136.0" x2="875.0" y2="1210.0" />
<text class="edge-label" x="827.5" y="1165.0" text-anchor="middle">no</text>
<line class="edge" x1="768.1" y1="746.0" x2="1065.0" y2="820.0" />
<text class="edge-label" x="916.6" y="775.0" text-anchor="middle">no</text>
<line class="edge" x1="1419.4" y1="486.0" x2="2397.3" y2="560.0" />
<text class="edge-label" x="1908.4" y="515.0" text-anchor="middle">no</text>
<line class="edge" x1="2397.3" y1="616.0" x2="1611.2" y2="690.0" />
<text class="edge-label" x="2004.3" y="645.0" text-anchor="middle">yes</text>
<line class="edge" x1="1611.2" y1="746.0" x2="1397.5" y2="820.0" />
<text class="edge-label" x="1504.4" y="775.0" text-anchor="middle">yes</text>
<line class="edge" x1="1397.5" y1="876.0" x2="1255.0" y2="950.0" />
<text class="edge-label" x="1326.2" y="905.0" text-anchor="middle">yes</text>
<line class="edge" x1="1397.5" y1="876.0" x2="1540.0" y2="950.0" />
<text class="edge-label" x="1468.8" y="905.0" text-anchor="middle">no</text>
<line class="edge" x1="1540.0" y1="1006.0" x2="1445.0" y2="1080.0" />
<text class="edge-label" x="1492.5" y="1035.0" text-anchor="middle">yes</text>
<line class="edge" x1="1540.0" y1="1006.0" x2="1635.0" y2="1080.0" />
<text class="edge-label" x="1587.5" y="1035.0" text-anchor="middle">no</text>
<line class="edge" x1="1611.2" y1="746.0" x2="1825.0" y2="820.0" />
<text class="edge-label" x="1718.1" y="775.0" text-anchor="middle">no</text>
<line class="edge" x1="2397.3" y1="616.0" x2="3183.4" y2="690.0" />
<text class="edge-label" x="2790.4" y="645.0" text-anchor="middle">no</text>
<line class="edge" x1="3183.4" y1="746.0" x2="2015.0" y2="820.0" />
<text class="edge-label" x="2599.2" y="775.0" text-anchor="middle">yes</text>
<line class="edge" x1="3183.4" y1="746.0" x2="4351.8" y2="820.0" />
<text class="edge-label" x="3767.6" y="775.0" text-anchor="middle">no</text>
<line class="edge" x1="4351.8" y1="876.0" x2="2696.3" y2="950.0" />
<text class="edge-label" x="3524.1" y="905.0" text-anchor="middle">yes</text>
<line class="edge" x1="2696.3" y1="1006.0" x2="2300.0" y2="1080.0" />
<text class="edge-label" x="2498.2" y="1035.0" text-anchor="middle">yes</text>
<line class="edge" x1="2300.0" y1="1136.0" x2="2205.0" y2="1210.0" />
<text class="edge-label" x="2252.5" y="1165.0" text-anchor="middle">yes</text>
<line class="edge" x1="2300.0" y1="1136.0" x2="2395.0" y2="1210.0" />
<text class="edge-label" x="2347.5" y="1165.0" text-anchor="middle">no</text>
<line class="edge" x1="2696.3" y1="1006.0" x2="3092.7" y2="1080.0" />
<text class="edge-label" x="2894.5" y="1035.0" text-anchor="middle">no</text>
<line class="edge" x1="3092.7" y1="1136.0" x2="2585.0" y2="1210.0" />
<text class="edge-label" x="2838.8" y="1165.0" text-anchor="middle">yes</text>
<line class="edge" x1="3092.7" y1="1136.0" x2="3600.3" y2="1210.0" />
<text class="edge-label" x="3346.5" y="1165.0" text-anchor="middle">no</text>
<line class="edge" x1="3600.3" y1="1266.0" x2="3238.1" y2="1340.0" />
<text class="edge-label" x="3419.2" y="1295.0" text-anchor="middle">yes</text>
<line class="edge" x1="3238.1" y1="1396.0" x2="2941.2" y2="1470.0" />
<text class="edge-label" x="3089.7" y="1425.0" text-anchor="middle">yes</text>
<line class="edge" x1="2941.2" y1="1526.0" x2="2775.0" y2="1600.0" />
<text class="edge-label" x="2858.1" y="1555.0" text-anchor="middle">yes</text>
<line class="edge" x1="2941.2" y1="1526.0" x2="3107.5" y2="1600.0" />
<text class="edge-label" x="3024.4" y="1555.0" text-anchor="middle">no</text>
<line class="edge" x1="3107.5" y1="1656.0" x2="2965.0" y2="1730.0" />
<text class="edge-label" x="3036.2" y="1685.0" text-anchor="middle">yes</text>
<line class="edge" x1="3107.5" y1="1656.0" x2="3250.0" y2="1730.0" />
<text class="edge-label" x="3178.8" y="1685.0" text-anchor="middle">no</text>
<line class="edge" x1="3250.0" y1="1786.0" x2="3155.0" y2="1860.0" />
<text class="edge-label" x="3202.5" y="1815.0" text-anchor="middle">yes</text>
<line class="edge" x1="3250.0" y1="1786.0" x2="3345.0" y2="1860.0" />
<text class="edge-label" x="3297.5" y="1815.0" text-anchor="middle">no</text>
<line class="edge" x1="3238.1" y1="1396.0" x2="3535.0" y2="1470.0" />
<text class="edge-label" x="3386.6" y="1425.0" text-anchor="middle">no</text>
<line class="edge" x1="3600.3" y1="1266.0" x2="3962.5" y2="1340.0" />
<text class="edge-label" x="3781.4" y="1295.0" text-anchor="middle">no</text>
<line class="edge" x1="3962.5" y1="1396.0" x2="3820.0" y2="1470.0" />
<text class="edge-label" x="3891.2" y="1425.0" text-anchor="middle">yes</text>
<line class="edge" x1="3820.0" y1="1526.0" x2="3725.0" y2="1600.0" />
<text class="edge-label" x="3772.5" y="1555.0" text-anchor="middle">yes</text>
<line class="edge" x1="3820.0" y1="1526.0" x2="3915.0" y2="1600.0" />
<text class="edge-label" x="3867.5" y="1555.0" text-anchor="middle">no</text>
<line class="edge" x1="3962.5" y1="1396.0" x2="4105.0" y2="1470.0" />
<text class="edge-label" x="4033.8" y="1425.0" text-anchor="middle">no</text>
<line class="edge" x1="4351.8" y1="876.0" x2="6007.2" y2="950.0" />
<text class="edge-label" x="5179.5" y="905.0" text-anchor="middle">no</text>
<line class="edge" x1="6007.2" y1="1006.0" x2="5641.3" y2="1080.0" />
<text class="edge-label" x="5824.3" y="1035.0" text-anchor="middle">yes</text>
<line class="edge" x1="5641.3" y1="1136.0" x2="5277.7" y2="1210.0" />
<text class="edge-label" x="5459.5" y="1165.0" text-anchor="middle">yes</text>
<line class="edge" x1="5277.7" y1="1266.0" x2="4740.3" y2="1340.0" />
<text class="edge-label" x="5009.0" y="1295.0" text-anchor="middle">yes</text>
<line class="edge" x1="4740.3" y1="1396.0" x2="4295.0" y2="1470.0" />
<text class="edge-label" x="4517.7" y="1425.0" text-anchor="middle">yes</text>
<line class="edge" x1="4740.3" y1="1396.0" x2="5185.6" y2="1470.0" />
<text class="edge-label" x="4963.0" y="1425.0" text-anchor="middle">no</text>
<line class="edge" x1="5185.6" y1="1526.0" x2="4888.8" y2="1600.0" />
<text class="edge-label" x="5037.2" y="1555.0" text-anchor="middle">yes</text>
<line class="edge" x1="4888.8" y1="1656.0" x2="4722.5" y2="1730.0" />
<text class="edge-label" x="4805.6" y="1685.0" text-anchor="middle">yes</text>
<line class="edge" x1="4722.5" y1="1786.0" x2="4580.0" y2="1860.0" />
<text class="edge-label" x="4651.2" y="1815.0" text-anchor="middle">yes</text>
<line class="edge" x1="4580.0" y1="1916.0" x2="4485.0" y2="1990.0" />
<text class="edge-label" x="4532.5" y="1945.0" text-anchor="middle">yes</text>
<line class="edge" x1="4580.0" y1="1916.0" x2="4675.0" y2="1990.0" />
<text class="edge-label" x="4627.5" y="1945.0" text-anchor="middle">no</text>
<line class="edge" x1="4722.5" y1="1786.0" x2="4865.0" y2="1860.0" />
<text class="edge-label" x="4793.8" y="1815.0" text-anchor="middle">no</text>
<line class="edge" x1="4888.8" y1="1656.0" x2="5055.0" y2="1730.0" />
<text class="edge-label" x="4971.9" y="1685.0" text-anchor="middle">no</text>
<line class="edge" x1="5185.6" y1="1526.0" x2="5482.5" y2="1600.0" />
<text class="edge-label" x="5334.1" y="1555.0" text-anchor="middle">no</text>
<line class="edge" x1="5482.5" y1="1656.0" x2="5340.0" y2="1730.0" />
<text class="edge-label" x="5411.2" y="1685.0" text-anchor="middle">yes</text>
<line class="edge" x1="5340.0" y1="1786.0" x2="5245.0" y2="1860.0" />
<text class="edge-label" x="5292.5" y="1815.0" text-anchor="middle">yes</text>
<line class="edge" x1="5340.0" y1="1786.0" x2="5435.0" y2="1860.0" />
<text class="edge-label" x="5387.5" y="1815.0" text-anchor="middle">no</text>
<line class="edge" x1="5482.5" y1="1656.0" x2="5625.0" y2="1730.0" />
<text class="edge-label" x="5553.8" y="1685.0" text-anchor="middle">no</text>
<line class="edge" x1="5277.7" y1="1266.0" x2="5815.0" y2="1340.0" />
<text class="edge-label" x="5546.3" y="1295.0" text-anchor="middle">no</text>
<line class="edge" x1="5641.3" y1="1136.0" x2="6005.0" y2="1210.0" />
<text class="edge-label" x="5823.2" y="1165.0" text-anchor="middle">no</text>
<line class="edge" x1="6007.2" y1="1006.0" x2="6373.1" y2="1080.0" />
<text class="edge-label" x="6190.2" y="1035.0" text-anchor="middle">no</text>
<line class="edge" x1="6373.1" y1="1136.0" x2="6195.0" y2="1210.0" />
<text class="edge-label" x="6284.1" y="1165.0" text-anchor="middle">yes</text>
<line class="edge" x1="6373.1" y1="1136.0" x2="6551.2" y2="1210.0" />
<text class="edge-label" x="6462.2" y="1165.0" text-anchor="middle">no</text>
<line class="edge" x1="6551.2" y1="1266.0" x2="6385.0" y2="1340.0" />
<text class="edge-label" x="6468.1" y="1295.0" text-anchor="middle">yes</text>
<line class="edge" x1="6551.2" y1="1266.0" x2="6717.5" y2="1340.0" />
<text class="edge-label" x="6634.4" y="1295.0" text-anchor="middle">no</text>
<line class="edge" x1="6717.5" y1="1396.0" x2="6575.0" y2="1470.0" />
<text class="edge-label" x="6646.2" y="1425.0" text-anchor="middle">yes</text>
<line class="edge" x1="6717.5" y1="1396.0" x2="6860.0" y2="1470.0" />
<text class="edge-label" x="6788.8" y="1425.0" text-anchor="middle">no</text>
<line class="edge" x1="6860.0" y1="1526.0" x2="6765.0" y2="1600.0" />
<text class="edge-label" x="6812.5" y="1555.0" text-anchor="middle">yes</text>
<line class="edge" x1="6860.0" y1="1526.0" x2="6955.0" y2="1600.0" />
<text class="edge-label" x="6907.5" y="1555.0" text-anchor="middle">no</text>
<line class="edge" x1="4329.7" y1="356.0" x2="7240.0" y2="430.0" />
<text class="edge-label" x="5784.9" y="385.0" text-anchor="middle">no</text>
<line class="edge" x1="7240.0" y1="486.0" x2="7145.0" y2="560.0" />
<text class="edge-label" x="7192.5" y="515.0" text-anchor="middle">yes</text>
<line class="edge" x1="7240.0" y1="486.0" x2="7335.0" y2="560.0" />
<text class="edge-label" x="7287.5" y="515.0" text-anchor="middle">no</text>
<line class="edge" x1="6046.1" y1="226.0" x2="7762.5" y2="300.0" />
<text class="edge-label" x="6904.3" y="255.0" text-anchor="middle">no</text>
<line class="edge" x1="7762.5" y1="356.0" x2="7620.0" y2="430.0" />
<text class="edge-label" x="7691.2" y="385.0" text-anchor="middle">yes</text>
<line class="edge" x1="7620.0" y1="486.0" x2="7525.0" y2="560.0" />
<text class="edge-label" x="7572.5" y="515.0" text-anchor="middle">yes</text>
<line class="edge" x1="7620.0" y1="486.0" x2="7715.0" y2="560.0" />
<text class="edge-label" x="7667.5" y="515.0" text-anchor="middle">no</text>
<line class="edge" x1="7762.5" y1="356.0" x2="7905.0" y2="430.0" />
<text class="edge-label" x="7833.8" y="385.0" text-anchor="middle">no</text>
<line class="edge" x1="7162.6" y1="96.0" x2="8279.1" y2="170.0" />
<text class="edge-label" x="7720.8" y="125.0" text-anchor="middle">no</text>
<line class="edge" x1="8279.1" y1="226.0" x2="8095.0" y2="300.0" />
<text class="edge-label" x="8187.0" y="255.0" text-anchor="middle">yes</text>
<line class="edge" x1="8279.1" y1="226.0" x2="8463.1" y2="300.0" />
<text class="edge-label" x="8371.1" y="255.0" text-anchor="middle">no</text>
<line class="edge" x1="8463.1" y1="356.0" x2="8285.0" y2="430.0" />
<text class="edge-label" x="8374.1" y="385.0" text-anchor="middle">yes</text>
<line class="edge" x1="8463.1" y1="356.0" x2="8641.2" y2="430.0" />
<text class="edge-label" x="8552.2" y="385.0" text-anchor="middle">no</text>
<line class="edge" x1="8641.2" y1="486.0" x2="8475.0" y2="560.0" />
<text class="edge-label" x="8558.1" y="515.0" text-anchor="middle">yes</text>
<line class="edge" x1="8641.2" y1="486.0" x2="8807.5" y2="560.0" />
<text class="edge-label" x="8724.4" y="515.0" text-anchor="middle">no</text>
<line class="edge" x1="8807.5" y1="616.0" x2="8665.0" y2="690.0" />
<text class="edge-label" x="8736.2" y="645.0" text-anchor="middle">yes</text>
<line class="edge" x1="8807.5" y1="616.0" x2="8950.0" y2="690.0" />
<text class="edge-label" x="8878.8" y="645.0" text-anchor="middle">no</text>
<line class="edge" x1="8950.0" y1="746.0" x2="8855.0" y2="820.0" />
<text class="edge-label" x="8902.5" y="775.0" text-anchor="middle">yes</text>
<line class="edge" x1="8950.0" y1="746.0" x2="9045.0" y2="820.0" />
<text class="edge-label" x="8997.5" y="775.0" text-anchor="middle">no</text>
<rect class="decision" x="7087.6" y="40.0" width="150" height="56" rx="14" ry="14" />
<text class="node-title" x="7162.6" y="63.0" text-anchor="middle">Glucose &lt;= 165.500</text>
<text class="node-meta" x="7162.6" y="81.0" text-anchor="middle">n=768</text>
<rect class="decision" x="5971.1" y="170.0" width="150" height="56" rx="14" ry="14" />
<text class="node-title" x="6046.1" y="193.0" text-anchor="middle">Glucose &lt;= 154.500</text>
<text class="node-meta" x="6046.1" y="211.0" text-anchor="middle">n=686</text>
<rect class="decision" x="4254.7" y="300.0" width="150" height="56" rx="14" ry="14" />
<text class="node-title" x="4329.7" y="323.0" text-anchor="middle">BMI &lt;= 45.400</text>
<text class="node-meta" x="4329.7" y="341.0" text-anchor="middle">n=646</text>
<rect class="decision" x="1344.4" y="430.0" width="150" height="56" rx="14" ry="14" />
<text class="node-title" x="1419.4" y="453.0" text-anchor="middle">BMI &lt;= 26.450</text>
<text class="node-meta" x="1419.4" y="471.0" text-anchor="middle">n=625</text>
<rect class="decision" x="366.6" y="560.0" width="150" height="56" rx="14" ry="14" />
<text class="node-title" x="441.6" y="583.0" text-anchor="middle">BMI &lt;= 9.100</text>
<text class="node-meta" x="441.6" y="601.0" text-anchor="middle">n=156</text>
<rect class="leaf" x="40.0" y="690.0" width="150" height="56" rx="14" ry="14" />
<text class="node-title" x="115.0" y="713.0" text-anchor="middle">Leaf: 0</text>
<text class="node-meta" x="115.0" y="731.0" text-anchor="middle">n=11</text>
<rect class="decision" x="693.1" y="690.0" width="150" height="56" rx="14" ry="14" />
<text class="node-title" x="768.1" y="713.0" text-anchor="middle">Glucose &lt;= 129.500</text>
<text class="node-meta" x="768.1" y="731.0" text-anchor="middle">n=145</text>
<rect class="decision" x="396.2" y="820.0" width="150" height="56" rx="14" ry="14" />
<text class="node-title" x="471.2" y="843.0" text-anchor="middle">Insulin &lt;= 47.000</text>
<text class="node-meta" x="471.2" y="861.0" text-anchor="middle">n=125</text>
<rect class="leaf" x="230.0" y="950.0" width="150" height="56" rx="14" ry="14" />
<text class="node-title" x="305.0" y="973.0" text-anchor="middle">Leaf: 0</text>
<text class="node-meta" x="305.0" y="991.0" text-anchor="middle">n=76</text>
<rect class="decision" x="562.5" y="950.0" width="150" height="56" rx="14" ry="14" />
<text class="node-title" x="637.5" y="973.0" text-anchor="middle">Glucose &lt;= 105.000</text>
<text class="node-meta" x="637.5" y="991.0" text-anchor="middle">n=49</text>
<rect class="leaf" x="420.0" y="1080.0" width="150" height="56" rx="14" ry="14" />
<text class="node-title" x="495.0" y="1103.0" text-anchor="middle">Leaf: 0</text>
<text class="node-meta" x="495.0" y="1121.0" text-anchor="middle">n=28</text>
<rect class="decision" x="705.0" y="1080.0" width="150" height="56" rx="14" ry="14" />
<text class="node-title" x="780.0" y="1103.0" text-anchor="middle">BloodPressure &lt;= 67.000</text>
<text class="node-meta" x="780.0" y="1121.0" text-anchor="middle">n=21</text>
<rect class="leaf" x="610.0" y="1210.0" width="150" height="56" rx="14" ry="14" />
<text class="node-title" x="685.0" y="1233.0" text-anchor="middle">Leaf: 0</text>
<text class="node-meta" x="685.0" y="1251.0" text-anchor="middle">n=11</text>
<rect class="leaf" x="800.0" y="1210.0" width="150" height="56" rx="14" ry="14" />
<text class="node-title" x="875.0" y="1233.0" text-anchor="middle">Leaf: 0</text>
<text class="node-meta" x="875.0" y="1251.0" text-anchor="middle">n=10</text>
<rect class="leaf" x="990.0" y="820.0" width="150" height="56" rx="14" ry="14" />
<text class="node-title" x="1065.0" y="843.0" text-anchor="middle">Leaf: 0</text>
<text class="node-meta" x="1065.0" y="861.0" text-anchor="middle">n=20</text>
<rect class="decision" x="2322.3" y="560.0" width="150" height="56" rx="14" ry="14" />
<text class="node-title" x="2397.3" y="583.0" text-anchor="middle">Glucose &lt;= 93.500</text>
<text class="node-meta" x="2397.3" y="601.0" text-anchor="middle">n=469</text>
<rect class="decision" x="1536.2" y="690.0" width="150" height="56" rx="14" ry="14" />
<text class="node-title" x="1611.2" y="713.0" text-anchor="middle">DiabetesPedigreeFunction &lt;= 0.664</text>
<text class="node-meta" x="1611.2" y="731.0" text-anchor="middle">n=101</text>
<rect class="decision" x="1322.5" y="820.0" width="150" height="56" rx="14" ry="14" />
<text class="node-title" x="1397.5" y="843.0" text-anchor="middle">SkinThickness &lt;= 30.500</text>
<text class="node-meta" x="1397.5" y="861.0" text-anchor="middle">n=84</text>
<rect class="leaf" x="1180.0" y="950.0" width="150" height="56" rx="14" ry="14" />
<text class="node-title" x="1255.0" y="973.0" text-anchor="middle">Leaf: 0</text>
<text class="node-meta" x="1255.0" y="991.0" text-anchor="middle">n=61</text>
<rect class="decision" x="1465.0" y="950.0" width="150" height="56" rx="14" ry="14" />
<text class="node-title" x="1540.0" y="973.0" text-anchor="middle">Age &lt;= 25.500</text>
<text class="node-meta" x="1540.0" y="991.0" text-anchor="middle">n=23</text>
<rect class="leaf" x="1370.0" y="1080.0" width="150" height="56" rx="14" ry="14" />
<text class="node-title" x="1445.0" y="1103.0" text-anchor="middle">Leaf: 0</text>
<text class="node-meta" x="1445.0" y="1121.0" text-anchor="middle">n=11</text>
<rect class="leaf" x="1560.0" y="1080.0" width="150" height="56" rx="14" ry="14" />
<text class="node-title" x="1635.0" y="1103.0" text-anchor="middle">Leaf: 0</text>
<text class="node-meta" x="1635.0" y="1121.0" text-anchor="middle">n=12</text>
<rect class="leaf" x="1750.0" y="820.0" width="150" height="56" rx="14" ry="14" />
<text class="node-title" x="1825.0" y="843.0" text-anchor="middle">Leaf: 0</text>
<text class="node-meta" x="1825.0" y="861.0" text-anchor="middle">n=17</text>
<rect class="decision" x="3108.4" y="690.0" width="150" height="56" rx="14" ry="14" />
<text class="node-title" x="3183.4" y="713.0" text-anchor="middle">BloodPressure &lt;= 15.000</text>
<text class="node-meta" x="3183.4" y="731.0" text-anchor="middle">n=368</text>
<rect class="leaf" x="1940.0" y="820.0" width="150" height="56" rx="14" ry="14" />
<text class="node-title" x="2015.0" y="843.0" text-anchor="middle">Leaf: 1</text>
<text class="node-meta" x="2015.0" y="861.0" text-anchor="middle">n=14</text>
<rect class="decision" x="4276.8" y="820.0" width="150" height="56" rx="14" ry="14" />
<text class="node-title" x="4351.8" y="843.0" text-anchor="middle">Age &lt;= 28.500</text>
<text class="node-meta" x="4351.8" y="861.0" text-anchor="middle">n=354</text>
<rect class="decision" x="2621.3" y="950.0" width="150" height="56" rx="14" ry="14" />
<text class="node-title" x="2696.3" y="973.0" text-anchor="middle">SkinThickness &lt;= 5.000</text>
<text class="node-meta" x="2696.3" y="991.0" text-anchor="middle">n=154</text>
<rect class="decision" x="2225.0" y="1080.0" width="150" height="56" rx="14" ry="14" />
<text class="node-title" x="2300.0" y="1103.0" text-anchor="middle">DiabetesPedigreeFunction &lt;= 0.319</text>
<text class="node-meta" x="2300.0" y="1121.0" text-anchor="middle">n=22</text>
<rect class="leaf" x="2130.0" y="1210.0" width="150" height="56" rx="14" ry="14" />
<text class="node-title" x="2205.0" y="1233.0" text-anchor="middle">Leaf: 0</text>
<text class="node-meta" x="2205.0" y="1251.0" text-anchor="middle">n=11</text>
<rect class="leaf" x="2320.0" y="1210.0" width="150" height="56" rx="14" ry="14" />
<text class="node-title" x="2395.0" y="1233.0" text-anchor="middle">Leaf: 1</text>
<text class="node-meta" x="2395.0" y="1251.0" text-anchor="middle">n=11</text>
<rect class="decision" x="3017.7" y="1080.0" width="150" height="56" rx="14" ry="14" />
<text class="node-title" x="3092.7" y="1103.0" text-anchor="middle">DiabetesPedigreeFunction &lt;= 0.193</text>
<text class="node-meta" x="3092.7" y="1121.0" text-anchor="middle">n=132</text>
<rect class="leaf" x="2510.0" y="1210.0" width="150" height="56" rx="14" ry="14" />
<text class="node-title" x="2585.0" y="1233.0" text-anchor="middle">Leaf: 0</text>
<text class="node-meta" x="2585.0" y="1251.0" text-anchor="middle">n=17</text>
<rect class="decision" x="3525.3" y="1210.0" width="150" height="56" rx="14" ry="14" />
<text class="node-title" x="3600.3" y="1233.0" text-anchor="middle">Glucose &lt;= 124.500</text>
<text class="node-meta" x="3600.3" y="1251.0" text-anchor="middle">n=115</text>
<rect class="decision" x="3163.1" y="1340.0" width="150" height="56" rx="14" ry="14" />
<text class="node-title" x="3238.1" y="1363.0" text-anchor="middle">Glucose &lt;= 113.500</text>
<text class="node-meta" x="3238.1" y="1381.0" text-anchor="middle">n=78</text>
<rect class="decision" x="2866.2" y="1470.0" width="150" height="56" rx="14" ry="14" />
<text class="node-title" x="2941.2" y="1493.0" text-anchor="middle">BloodPressure &lt;= 61.000</text>
<text class="node-meta" x="2941.2" y="1511.0" text-anchor="middle">n=55</text>
<rect class="leaf" x="2700.0" y="1600.0" width="150" height="56" rx="14" ry="14" />
<text class="node-title" x="2775.0" y="1623.0" text-anchor="middle">Leaf: 0</text>
<text class="node-meta" x="2775.0" y="1641.0" text-anchor="middle">n=14</text>
<rect class="decision" x="3032.5" y="1600.0" width="150" height="56" rx="14" ry="14" />
<text class="node-title" x="3107.5" y="1623.0" text-anchor="middle">BloodPressure &lt;= 67.000</text>
<text class="node-meta" x="3107.5" y="1641.0" text-anchor="middle">n=41</text>
<rect class="leaf" x="2890.0" y="1730.0" width="150" height="56" rx="14" ry="14" />
<text class="node-title" x="2965.0" y="1753.0" text-anchor="middle">Leaf: 0</text>
<text class="node-meta" x="2965.0" y="1771.0" text-anchor="middle">n=13</text>
<rect class="decision" x="3175.0" y="1730.0" width="150" height="56" rx="14" ry="14" />
<text class="node-title" x="3250.0" y="1753.0" text-anchor="middle">Insulin &lt;= 43.000</text>
<text class="node-meta" x="3250.0" y="1771.0" text-anchor="middle">n=28</text>
<rect class="leaf" x="3080.0" y="1860.0" width="150" height="56" rx="14" ry="14" />
<text class="node-title" x="3155.0" y="1883.0" text-anchor="middle">Leaf: 0</text>
<text class="node-meta" x="3155.0" y="1901.0" text-anchor="middle">n=10</text>
<rect class="leaf" x="3270.0" y="1860.0" width="150" height="56" rx="14" ry="14" />
<text class="node-title" x="3345.0" y="1883.0" text-anchor="middle">Leaf: 0</text>
<text class="node-meta" x="3345.0" y="1901.0" text-anchor="middle">n=18</text>
<rect class="leaf" x="3460.0" y="1470.0" width="150" height="56" rx="14" ry="14" />
<text class="node-title" x="3535.0" y="1493.0" text-anchor="middle">Leaf: 0</text>
<text class="node-meta" x="3535.0" y="1511.0" text-anchor="middle">n=23</text>
<rect class="decision" x="3887.5" y="1340.0" width="150" height="56" rx="14" ry="14" />
<text class="node-title" x="3962.5" y="1363.0" text-anchor="middle">BloodPressure &lt;= 81.000</text>
<text class="node-meta" x="3962.5" y="1381.0" text-anchor="middle">n=37</text>
<rect class="decision" x="3745.0" y="1470.0" width="150" height="56" rx="14" ry="14" />
<text class="node-title" x="3820.0" y="1493.0" text-anchor="middle">SkinThickness &lt;= 32.000</text>
<text class="node-meta" x="3820.0" y="1511.0" text-anchor="middle">n=23</text>
<rect class="leaf" x="3650.0" y="1600.0" width="150" height="56" rx="14" ry="14" />
<text class="node-title" x="3725.0" y="1623.0" text-anchor="middle">Leaf: 0</text>
<text class="node-meta" x="3725.0" y="1641.0" text-anchor="middle">n=11</text>
<rect class="leaf" x="3840.0" y="1600.0" width="150" height="56" rx="14" ry="14" />
<text class="node-title" x="3915.0" y="1623.0" text-anchor="middle">Leaf: 1</text>
<text class="node-meta" x="3915.0" y="1641.0" text-anchor="middle">n=12</text>
<rect class="leaf" x="4030.0" y="1470.0" width="150" height="56" rx="14" ry="14" />
<text class="node-title" x="4105.0" y="1493.0" text-anchor="middle">Leaf: 0</text>
<text class="node-meta" x="4105.0" y="1511.0" text-anchor="middle">n=14</text>
<rect class="decision" x="5932.2" y="950.0" width="150" height="56" rx="14" ry="14" />
<text class="node-title" x="6007.2" y="973.0" text-anchor="middle">DiabetesPedigreeFunction &lt;= 0.514</text>
<text class="node-meta" x="6007.2" y="991.0" text-anchor="middle">n=200</text>
<rect class="decision" x="5566.3" y="1080.0" width="150" height="56" rx="14" ry="14" />
<text class="node-title" x="5641.3" y="1103.0" text-anchor="middle">Age &lt;= 58.500</text>
<text class="node-meta" x="5641.3" y="1121.0" text-anchor="middle">n=130</text>
<rect class="decision" x="5202.7" y="1210.0" width="150" height="56" rx="14" ry="14" />
<text class="node-title" x="5277.7" y="1233.0" text-anchor="middle">DiabetesPedigreeFunction &lt;= 0.444</text>
<text class="node-meta" x="5277.7" y="1251.0" text-anchor="middle">n=120</text>
<rect class="decision" x="4665.3" y="1340.0" width="150" height="56" rx="14" ry="14" />
<text class="node-title" x="4740.3" y="1363.0" text-anchor="middle">BloodPressure &lt;= 67.000</text>
<text class="node-meta" x="4740.3" y="1381.0" text-anchor="middle">n=108</text>
<rect class="leaf" x="4220.0" y="1470.0" width="150" height="56" rx="14" ry="14" />
<text class="node-title" x="4295.0" y="1493.0" text-anchor="middle">Leaf: 1</text>
<text class="node-meta" x="4295.0" y="1511.0" text-anchor="middle">n=20</text>
<rect class="decision" x="5110.6" y="1470.0" width="150" height="56" rx="14" ry="14" />
<text class="node-title" x="5185.6" y="1493.0" text-anchor="middle">Age &lt;= 41.500</text>
<text class="node-meta" x="5185.6" y="1511.0" text-anchor="middle">n=88</text>
<rect class="decision" x="4813.8" y="1600.0" width="150" height="56" rx="14" ry="14" />
<text class="node-title" x="4888.8" y="1623.0" text-anchor="middle">BMI &lt;= 35.100</text>
<text class="node-meta" x="4888.8" y="1641.0" text-anchor="middle">n=49</text>
<rect class="decision" x="4647.5" y="1730.0" width="150" height="56" rx="14" ry="14" />
<text class="node-title" x="4722.5" y="1753.0" text-anchor="middle">DiabetesPedigreeFunction &lt;= 0.338</text>
<text class="node-meta" x="4722.5" y="1771.0" text-anchor="middle">n=37</text>
<rect class="decision" x="4505.0" y="1860.0" width="150" height="56" rx="14" ry="14" />
<text class="node-title" x="4580.0" y="1883.0" text-anchor="middle">SkinThickness &lt;= 17.500</text>
<text class="node-meta" x="4580.0" y="1901.0" text-anchor="middle">n=27</text>
<rect class="leaf" x="4410.0" y="1990.0" width="150" height="56" rx="14" ry="14" />
<text class="node-title" x="4485.0" y="2013.0" text-anchor="middle">Leaf: 0</text>
<text class="node-meta" x="4485.0" y="2031.0" text-anchor="middle">n=13</text>
<rect class="leaf" x="4600.0" y="1990.0" width="150" height="56" rx="14" ry="14" />
<text class="node-title" x="4675.0" y="2013.0" text-anchor="middle">Leaf: 1</text>
<text class="node-meta" x="4675.0" y="2031.0" text-anchor="middle">n=14</text>
<rect class="leaf" x="4790.0" y="1860.0" width="150" height="56" rx="14" ry="14" />
<text class="node-title" x="4865.0" y="1883.0" text-anchor="middle">Leaf: 0</text>
<text class="node-meta" x="4865.0" y="1901.0" text-anchor="middle">n=10</text>
<rect class="leaf" x="4980.0" y="1730.0" width="150" height="56" rx="14" ry="14" />
<text class="node-title" x="5055.0" y="1753.0" text-anchor="middle">Leaf: 0</text>
<text class="node-meta" x="5055.0" y="1771.0" text-anchor="middle">n=12</text>
<rect class="decision" x="5407.5" y="1600.0" width="150" height="56" rx="14" ry="14" />
<text class="node-title" x="5482.5" y="1623.0" text-anchor="middle">Insulin &lt;= 109.000</text>
<text class="node-meta" x="5482.5" y="1641.0" text-anchor="middle">n=39</text>
<rect class="decision" x="5265.0" y="1730.0" width="150" height="56" rx="14" ry="14" />
<text class="node-title" x="5340.0" y="1753.0" text-anchor="middle">DiabetesPedigreeFunction &lt;= 0.254</text>
<text class="node-meta" x="5340.0" y="1771.0" text-anchor="middle">n=29</text>
<rect class="leaf" x="5170.0" y="1860.0" width="150" height="56" rx="14" ry="14" />
<text class="node-title" x="5245.0" y="1883.0" text-anchor="middle">Leaf: 0</text>
<text class="node-meta" x="5245.0" y="1901.0" text-anchor="middle">n=16</text>
<rect class="leaf" x="5360.0" y="1860.0" width="150" height="56" rx="14" ry="14" />
<text class="node-title" x="5435.0" y="1883.0" text-anchor="middle">Leaf: 1</text>
<text class="node-meta" x="5435.0" y="1901.0" text-anchor="middle">n=13</text>
<rect class="leaf" x="5550.0" y="1730.0" width="150" height="56" rx="14" ry="14" />
<text class="node-title" x="5625.0" y="1753.0" text-anchor="middle">Leaf: 1</text>
<text class="node-meta" x="5625.0" y="1771.0" text-anchor="middle">n=10</text>
<rect class="leaf" x="5740.0" y="1340.0" width="150" height="56" rx="14" ry="14" />
<text class="node-title" x="5815.0" y="1363.0" text-anchor="middle">Leaf: 0</text>
<text class="node-meta" x="5815.0" y="1381.0" text-anchor="middle">n=12</text>
<rect class="leaf" x="5930.0" y="1210.0" width="150" height="56" rx="14" ry="14" />
<text class="node-title" x="6005.0" y="1233.0" text-anchor="middle">Leaf: 0</text>
<text class="node-meta" x="6005.0" y="1251.0" text-anchor="middle">n=10</text>
<rect class="decision" x="6298.1" y="1080.0" width="150" height="56" rx="14" ry="14" />
<text class="node-title" x="6373.1" y="1103.0" text-anchor="middle">BloodPressure &lt;= 65.000</text>
<text class="node-meta" x="6373.1" y="1121.0" text-anchor="middle">n=70</text>
<rect class="leaf" x="6120.0" y="1210.0" width="150" height="56" rx="14" ry="14" />
<text class="node-title" x="6195.0" y="1233.0" text-anchor="middle">Leaf: 0</text>
<text class="node-meta" x="6195.0" y="1251.0" text-anchor="middle">n=12</text>
<rect class="decision" x="6476.2" y="1210.0" width="150" height="56" rx="14" ry="14" />
<text class="node-title" x="6551.2" y="1233.0" text-anchor="middle">DiabetesPedigreeFunction &lt;= 0.694</text>
<text class="node-meta" x="6551.2" y="1251.0" text-anchor="middle">n=58</text>
<rect class="leaf" x="6310.0" y="1340.0" width="150" height="56" rx="14" ry="14" />
<text class="node-title" x="6385.0" y="1363.0" text-anchor="middle">Leaf: 1</text>
<text class="node-meta" x="6385.0" y="1381.0" text-anchor="middle">n=20</text>
<rect class="decision" x="6642.5" y="1340.0" width="150" height="56" rx="14" ry="14" />
<text class="node-title" x="6717.5" y="1363.0" text-anchor="middle">SkinThickness &lt;= 22.000</text>
<text class="node-meta" x="6717.5" y="1381.0" text-anchor="middle">n=38</text>
<rect class="leaf" x="6500.0" y="1470.0" width="150" height="56" rx="14" ry="14" />
<text class="node-title" x="6575.0" y="1493.0" text-anchor="middle">Leaf: 0</text>
<text class="node-meta" x="6575.0" y="1511.0" text-anchor="middle">n=16</text>
<rect class="decision" x="6785.0" y="1470.0" width="150" height="56" rx="14" ry="14" />
<text class="node-title" x="6860.0" y="1493.0" text-anchor="middle">Age &lt;= 38.500</text>
<text class="node-meta" x="6860.0" y="1511.0" text-anchor="middle">n=22</text>
<rect class="leaf" x="6690.0" y="1600.0" width="150" height="56" rx="14" ry="14" />
<text class="node-title" x="6765.0" y="1623.0" text-anchor="middle">Leaf: 1</text>
<text class="node-meta" x="6765.0" y="1641.0" text-anchor="middle">n=11</text>
<rect class="leaf" x="6880.0" y="1600.0" width="150" height="56" rx="14" ry="14" />
<text class="node-title" x="6955.0" y="1623.0" text-anchor="middle">Leaf: 1</text>
<text class="node-meta" x="6955.0" y="1641.0" text-anchor="middle">n=11</text>
<rect class="decision" x="7165.0" y="430.0" width="150" height="56" rx="14" ry="14" />
<text class="node-title" x="7240.0" y="453.0" text-anchor="middle">SkinThickness &lt;= 40.500</text>
<text class="node-meta" x="7240.0" y="471.0" text-anchor="middle">n=21</text>
<rect class="leaf" x="7070.0" y="560.0" width="150" height="56" rx="14" ry="14" />
<text class="node-title" x="7145.0" y="583.0" text-anchor="middle">Leaf: 1</text>
<text class="node-meta" x="7145.0" y="601.0" text-anchor="middle">n=11</text>
<rect class="leaf" x="7260.0" y="560.0" width="150" height="56" rx="14" ry="14" />
<text class="node-title" x="7335.0" y="583.0" text-anchor="middle">Leaf: 1</text>
<text class="node-meta" x="7335.0" y="601.0" text-anchor="middle">n=10</text>
<rect class="decision" x="7687.5" y="300.0" width="150" height="56" rx="14" ry="14" />
<text class="node-title" x="7762.5" y="323.0" text-anchor="middle">DiabetesPedigreeFunction &lt;= 0.641</text>
<text class="node-meta" x="7762.5" y="341.0" text-anchor="middle">n=40</text>
<rect class="decision" x="7545.0" y="430.0" width="150" height="56" rx="14" ry="14" />
<text class="node-title" x="7620.0" y="453.0" text-anchor="middle">Insulin &lt;= 150.000</text>
<text class="node-meta" x="7620.0" y="471.0" text-anchor="middle">n=30</text>
<rect class="leaf" x="7450.0" y="560.0" width="150" height="56" rx="14" ry="14" />
<text class="node-title" x="7525.0" y="583.0" text-anchor="middle">Leaf: 1</text>
<text class="node-meta" x="7525.0" y="601.0" text-anchor="middle">n=18</text>
<rect class="leaf" x="7640.0" y="560.0" width="150" height="56" rx="14" ry="14" />
<text class="node-title" x="7715.0" y="583.0" text-anchor="middle">Leaf: 0</text>
<text class="node-meta" x="7715.0" y="601.0" text-anchor="middle">n=12</text>
<rect class="leaf" x="7830.0" y="430.0" width="150" height="56" rx="14" ry="14" />
<text class="node-title" x="7905.0" y="453.0" text-anchor="middle">Leaf: 1</text>
<text class="node-meta" x="7905.0" y="471.0" text-anchor="middle">n=10</text>
<rect class="decision" x="8204.1" y="170.0" width="150" height="56" rx="14" ry="14" />
<text class="node-title" x="8279.1" y="193.0" text-anchor="middle">BMI &lt;= 29.100</text>
<text class="node-meta" x="8279.1" y="211.0" text-anchor="middle">n=82</text>
<rect class="leaf" x="8020.0" y="300.0" width="150" height="56" rx="14" ry="14" />
<text class="node-title" x="8095.0" y="323.0" text-anchor="middle">Leaf: 1</text>
<text class="node-meta" x="8095.0" y="341.0" text-anchor="middle">n=12</text>
<rect class="decision" x="8388.1" y="300.0" width="150" height="56" rx="14" ry="14" />
<text class="node-title" x="8463.1" y="323.0" text-anchor="middle">Glucose &lt;= 172.500</text>
<text class="node-meta" x="8463.1" y="341.0" text-anchor="middle">n=70</text>
<rect class="leaf" x="8210.0" y="430.0" width="150" height="56" rx="14" ry="14" />
<text class="node-title" x="8285.0" y="453.0" text-anchor="middle">Leaf: 1</text>
<text class="node-meta" x="8285.0" y="471.0" text-anchor="middle">n=14</text>
<rect class="decision" x="8566.2" y="430.0" width="150" height="56" rx="14" ry="14" />
<text class="node-title" x="8641.2" y="453.0" text-anchor="middle">Age &lt;= 25.500</text>
<text class="node-meta" x="8641.2" y="471.0" text-anchor="middle">n=56</text>
<rect class="leaf" x="8400.0" y="560.0" width="150" height="56" rx="14" ry="14" />
<text class="node-title" x="8475.0" y="583.0" text-anchor="middle">Leaf: 1</text>
<text class="node-meta" x="8475.0" y="601.0" text-anchor="middle">n=12</text>
<rect class="decision" x="8732.5" y="560.0" width="150" height="56" rx="14" ry="14" />
<text class="node-title" x="8807.5" y="583.0" text-anchor="middle">DiabetesPedigreeFunction &lt;= 0.306</text>
<text class="node-meta" x="8807.5" y="601.0" text-anchor="middle">n=44</text>
<rect class="leaf" x="8590.0" y="690.0" width="150" height="56" rx="14" ry="14" />
<text class="node-title" x="8665.0" y="713.0" text-anchor="middle">Leaf: 1</text>
<text class="node-meta" x="8665.0" y="731.0" text-anchor="middle">n=13</text>
<rect class="decision" x="8875.0" y="690.0" width="150" height="56" rx="14" ry="14" />
<text class="node-title" x="8950.0" y="713.0" text-anchor="middle">Age &lt;= 43.000</text>
<text class="node-meta" x="8950.0" y="731.0" text-anchor="middle">n=31</text>
<rect class="leaf" x="8780.0" y="820.0" width="150" height="56" rx="14" ry="14" />
<text class="node-title" x="8855.0" y="843.0" text-anchor="middle">Leaf: 1</text>
<text class="node-meta" x="8855.0" y="861.0" text-anchor="middle">n=20</text>
<rect class="leaf" x="8970.0" y="820.0" width="150" height="56" rx="14" ry="14" />
<text class="node-title" x="9045.0" y="843.0" text-anchor="middle">Leaf: 1</text>
<text class="node-meta" x="9045.0" y="861.0" text-anchor="middle">n=11</text>
</svg>