<svg xmlns="http://www.w3.org/2000/svg" width="4290" height="1046" viewBox="0 0 4290 1046">
<style>
text { font-family: 'DejaVu Sans Mono', monospace; fill: #14213d; }
.edge { stroke: #6c7a89; stroke-width: 2; fill: none; }
.edge-label { font-size: 12px; font-weight: 700; fill: #415a77; }
.decision { fill: #e0fbfc; stroke: #1d3557; stroke-width: 2; }
.leaf { fill: #fefae0; stroke: #bc6c25; stroke-width: 2; }
.node-title { font-size: 12px; font-weight: 700; }
.node-meta { font-size: 11px; }
.card-bg { fill: #ffffff; fill-opacity: 0.92; stroke: #cbd5e1; stroke-width: 1.5; }
.card-header { font-size: 11px; font-weight: 800; fill: #475569; letter-spacing: 0.5px; }
.card-item { font-size: 10px; fill: #334155; }
</style>
<rect x="0" y="0" width="4290" height="1046" fill="#f8f9fa" />
<line class="edge" x1="2193.4" y1="96.0" x2="900.5" y2="170.0" />
<text class="edge-label" x="1546.9" y="125.0" text-anchor="middle">yes</text>
<line class="edge" x1="900.5" y1="226.0" x2="375.0" y2="300.0" />
<text class="edge-label" x="637.7" y="255.0" text-anchor="middle">yes</text>
<line class="edge" x1="900.5" y1="226.0" x2="1425.9" y2="300.0" />
<text class="edge-label" x="1163.2" y="255.0" text-anchor="middle">no</text>
<line class="edge" x1="1425.9" y1="356.0" x2="968.8" y2="430.0" />
<text class="edge-label" x="1197.3" y="385.0" text-anchor="middle">yes</text>
<line class="edge" x1="968.8" y1="486.0" x2="802.5" y2="560.0" />
<text class="edge-label" x="885.6" y="515.0" text-anchor="middle">yes</text>
<line class="edge" x1="802.5" y1="616.0" x2="660.0" y2="690.0" />
<text class="edge-label" x="731.2" y="645.0" text-anchor="middle">yes</text>
<line class="edge" x1="660.0" y1="746.0" x2="565.0" y2="820.0" />
<text class="edge-label" x="612.5" y="775.0" text-anchor="middle">yes</text>
<line class="edge" x1="660.0" y1="746.0" x2="755.0" y2="820.0" />
<text class="edge-label" x="707.5" y="775.0" text-anchor="middle">no</text>
<line class="edge" x1="802.5" y1="616.0" x2="945.0" y2="690.0" />
<text class="edge-label" x="873.8" y="645.0" text-anchor="middle">no</text>
<line class="edge" x1="968.8" y1="486.0" x2="1135.0" y2="560.0" />
<text class="edge-label" x="1051.9" y="515.0" text-anchor="middle">no</text>
<line class="edge" x1="1425.9" y1="356.0" x2="1883.1" y2="430.0" />
<text class="edge-label" x="1654.5" y="385.0" text-anchor="middle">no</text>
<line class="edge" x1="1883.1" y1="486.0" x2="1681.2" y2="560.0" />
<text class="edge-label" x="1782.2" y="515.0" text-anchor="middle">yes</text>
<line class="edge" x1="1681.2" y1="616.0" x2="1467.5" y2="690.0" />
<text class="edge-label" x="1574.4" y="645.0" text-anchor="middle">yes</text>
<line class="edge" x1="1467.5" y1="746.0" x2="1325.0" y2="820.0" />
<text class="edge-label" x="1396.2" y="775.0" text-anchor="middle">yes</text>
<line class="edge" x1="1467.5" y1="746.0" x2="1610.0" y2="820.0" />
<text class="edge-label" x="1538.8" y="775.0" text-anchor="middle">no</text>
<line class="edge" x1="1610.0" y1="876.0" x2="1515.0" y2="950.0" />
<text class="edge-label" x="1562.5" y="905.0" text-anchor="middle">yes</text>
<line class="edge" x1="1610.0" y1="876.0" x2="1705.0" y2="950.0" />
<text class="edge-label" x="1657.5" y="905.0" text-anchor="middle">no</text>
<line class="edge" x1="1681.2" y1="616.0" x2="1895.0" y2="690.0" />
<text class="edge-label" x="1788.1" y="645.0" text-anchor="middle">no</text>
<line class="edge" x1="1883.1" y1="486.0" x2="2085.0" y2="560.0" />
<text class="edge-label" x="1984.1" y="515.0" text-anchor="middle">no</text>
<line class="edge" x1="2193.4" y1="96.0" x2="3486.2" y2="170.0" />
<text class="edge-label" x="2839.8" y="125.0" text-anchor="middle">no</text>
<line class="edge" x1="3486.2" y1="226.0" x2="3035.0" y2="300.0" />
<text class="edge-label" x="3260.6" y="255.0" text-anchor="middle">yes</text>
<line class="edge" x1="3035.0" y1="356.0" x2="2631.2" y2="430.0" />
<text class="edge-label" x="2833.1" y="385.0" text-anchor="middle">yes</text>
<line class="edge" x1="2631.2" y1="486.0" x2="2417.5" y2="560.0" />
<text class="edge-label" x="2524.4" y="515.0" text-anchor="middle">yes</text>
<line class="edge" x1="2417.5" y1="616.0" x2="2275.0" y2="690.0" />
<text class="edge-label" x="2346.2" y="645.0" text-anchor="middle">yes</text>
<line class="edge" x1="2417.5" y1="616.0" x2="2560.0" y2="690.0" />
<text class="edge-label" x="2488.8" y="645.0" text-anchor="middle">no</text>
<line class="edge" x1="2560.0" y1="746.0" x2="2465.0" y2="820.0" />
<text class="edge-label" x="2512.5" y="775.0" text-anchor="middle">yes</text>
<line class="edge" x1="2560.0" y1="746.0" x2="2655.0" y2="820.0" />
<text class="edge-label" x="2607.5" y="775.0" text-anchor="middle">no</text>
<line class="edge" x1="2631.2" y1="486.0" x2="2845.0" y2="560.0" />
<text class="edge-label" x="2738.1" y="515.0" text-anchor="middle">no</text>
<line class="edge" x1="3035.0" y1="356.0" x2="3438.8" y2="430.0" />
<text class="edge-label" x="3236.9" y="385.0" text-anchor="middle">no</text>
<line class="edge" x1="3438.8" y1="486.0" x2="3272.5" y2="560.0" />
<text class="edge-label" x="3355.6" y="515.0" text-anchor="middle">yes</text>
<line class="edge" x1="3272.5" y1="616.0" x2="3130.0" y2="690.0" />
<text class="edge-label" x="3201.2" y="645.0" text-anchor="middle">yes</text>
<line class="edge" x1="3130.0" y1="746.0" x2="3035.0" y2="820.0" />
<text class="edge-label" x="3082.5" y="775.0" text-anchor="middle">yes</text>
<line class="edge" x1="3130.0" y1="746.0" x2="3225.0" y2="820.0" />
<text class="edge-label" x="3177.5" y="775.0" text-anchor="middle">no</text>
<line class="edge" x1="3272.5" y1="616.0" x2="3415.0" y2="690.0" />
<text class="edge-label" x="3343.8" y="645.0" text-anchor="middle">no</text>
<line class="edge" x1="3438.8" y1="486.0" x2="3605.0" y2="560.0" />
<text class="edge-label" x="3521.9" y="515.0" text-anchor="middle">no</text>
<line class="edge" x1="3486.2" y1="226.0" x2="3937.5" y2="300.0" />
<text class="edge-label" x="3711.9" y="255.0" text-anchor="middle">no</text>
<line class="edge" x1="3937.5" y1="356.0" x2="3795.0" y2="430.0" />
<text class="edge-label" x="3866.2" y="385.0" text-anchor="middle">yes</text>
<line class="edge" x1="3937.5" y1="356.0" x2="4080.0" y2="430.0" />
<text class="edge-label" x="4008.8" y="385.0" text-anchor="middle">no</text>
<line class="edge" x1="4080.0" y1="486.0" x2="3985.0" y2="560.0" />
<text class="edge-label" x="4032.5" y="515.0" text-anchor="middle">yes</text>
<line class="edge" x1="4080.0" y1="486.0" x2="4175.0" y2="560.0" />
<text class="edge-label" x="4127.5" y="515.0" text-anchor="middle">no</text>
<rect class="decision" x="2118.4" y="40.0" width="150" height="56" rx="14" ry="14" />
<text class="node-title" x="2193.4" y="63.0" text-anchor="middle">Elevation &lt;= 3055.500</text>
<text class="node-meta" x="2193.4" y="81.0" text-anchor="middle">n=5810</text>
<rect class="decision" x="825.5" y="170.0" width="150" height="56" rx="14" ry="14" />
<text class="node-title" x="900.5" y="193.0" text-anchor="middle">Elevation &lt;= 2510.500</text>
<text class="node-meta" x="900.5" y="211.0" text-anchor="middle">n=3437</text>
<rect class="leaf" x="300.0" y="300.0" width="150" height="56" rx="14" ry="14" />
<text class="node-title" x="375.0" y="323.0" text-anchor="middle">Leaf: Ponderosa_Pine</text>
<text class="node-meta" x="375.0" y="341.0" text-anchor="middle">n=425</text>
<rect class="decision" x="1350.9" y="300.0" width="150" height="56" rx="14" ry="14" />
<text class="node-title" x="1425.9" y="323.0" text-anchor="middle">Elevation &lt;= 2985.500</text>
<text class="node-meta" x="1425.9" y="341.0" text-anchor="middle">n=3012</text>
<rect class="decision" x="893.8" y="430.0" width="150" height="56" rx="14" ry="14" />
<text class="node-title" x="968.8" y="453.0" text-anchor="middle">Soil_Type_4 &lt;= 0.500</text>
<text class="node-meta" x="968.8" y="471.0" text-anchor="middle">n=2359</text>
<rect class="decision" x="727.5" y="560.0" width="150" height="56" rx="14" ry="14" />
<text class="node-title" x="802.5" y="583.0" text-anchor="middle">Soil_Type_2 &lt;= 0.500</text>
<text class="node-meta" x="802.5" y="601.0" text-anchor="middle">n=2272</text>
<rect class="decision" x="585.0" y="690.0" width="150" height="56" rx="14" ry="14" />
<text class="node-title" x="660.0" y="713.0" text-anchor="middle">Soil_Type_22 &lt;= 0.500</text>
<text class="node-meta" x="660.0" y="731.0" text-anchor="middle">n=2225</text>
<rect class="leaf" x="490.0" y="820.0" width="150" height="56" rx="14" ry="14" />
<text class="node-title" x="565.0" y="843.0" text-anchor="middle">Leaf: Lodgepole_Pine</text>
<text class="node-meta" x="565.0" y="861.0" text-anchor="middle">n=2197</text>
<rect class="leaf" x="680.0" y="820.0" width="150" height="56" rx="14" ry="14" />
<text class="node-title" x="755.0" y="843.0" text-anchor="middle">Leaf: Spruce_Fir</text>
<text class="node-meta" x="755.0" y="861.0" text-anchor="middle">n=28</text>
<rect class="leaf" x="870.0" y="690.0" width="150" height="56" rx="14" ry="14" />
<text class="node-title" x="945.0" y="713.0" text-anchor="middle">Leaf: Ponderosa_Pine</text>
<text class="node-meta" x="945.0" y="731.0" text-anchor="middle">n=47</text>
<rect class="leaf" x="1060.0" y="560.0" width="150" height="56" rx="14" ry="14" />
<text class="node-title" x="1135.0" y="583.0" text-anchor="middle">Leaf: Ponderosa_Pine</text>
<text class="node-meta" x="1135.0" y="601.0" text-anchor="middle">n=87</text>
<rect class="decision" x="1808.1" y="430.0" width="150" height="56" rx="14" ry="14" />
<text class="node-title" x="1883.1" y="453.0" text-anchor="middle">Horizontal_Distance_To_Roadways &lt;= 3703.000</text>
<text class="node-meta" x="1883.1" y="471.0" text-anchor="middle">n=653</text>
<rect class="decision" x="1606.2" y="560.0" width="150" height="56" rx="14" ry="14" />
<text class="node-title" x="1681.2" y="583.0" text-anchor="middle">Horizontal_Distance_To_Hydrology &lt;= 596.500</text>
<text class="node-meta" x="1681.2" y="601.0" text-anchor="middle">n=438</text>
<rect class="decision" x="1392.5" y="690.0" width="150" height="56" rx="14" ry="14" />
<text class="node-title" x="1467.5" y="713.0" text-anchor="middle">Hillshade_Noon &lt;= 222.500</text>
<text class="node-meta" x="1467.5" y="731.0" text-anchor="middle">n=410</text>
<rect class="leaf" x="1250.0" y="820.0" width="150" height="56" rx="14" ry="14" />
<text class="node-title" x="1325.0" y="843.0" text-anchor="middle">Leaf: Spruce_Fir</text>
<text class="node-meta" x="1325.0" y="861.0" text-anchor="middle">n=171</text>
<rect class="decision" x="1535.0" y="820.0" width="150" height="56" rx="14" ry="14" />
<text class="node-title" x="1610.0" y="843.0" text-anchor="middle">Soil_Type_23 &lt;= 0.500</text>
<text class="node-meta" x="1610.0" y="861.0" text-anchor="middle">n=239</text>
<rect class="leaf" x="1440.0" y="950.0" width="150" height="56" rx="14" ry="14" />
<text class="node-title" x="1515.0" y="973.0" text-anchor="middle">Leaf: Lodgepole_Pine</text>
<text class="node-meta" x="1515.0" y="991.0" text-anchor="middle">n=184</text>
<rect class="leaf" x="1630.0" y="950.0" width="150" height="56" rx="14" ry="14" />
<text class="node-title" x="1705.0" y="973.0" text-anchor="middle">Leaf: Spruce_Fir</text>
<text class="node-meta" x="1705.0" y="991.0" text-anchor="middle">n=55</text>
<rect class="leaf" x="1820.0" y="690.0" width="150" height="56" rx="14" ry="14" />
<text class="node-title" x="1895.0" y="713.0" text-anchor="middle">Leaf: Lodgepole_Pine</text>
<text class="node-meta" x="1895.0" y="731.0" text-anchor="middle">n=28</text>
<rect class="leaf" x="2010.0" y="560.0" width="150" height="56" rx="14" ry="14" />
<text class="node-title" x="2085.0" y="583.0" text-anchor="middle">Leaf: Lodgepole_Pine</text>
<text class="node-meta" x="2085.0" y="601.0" text-anchor="middle">n=215</text>
<rect class="decision" x="3411.2" y="170.0" width="150" height="56" rx="14" ry="14" />
<text class="node-title" x="3486.2" y="193.0" text-anchor="middle">Elevation &lt;= 3297.500</text>
<text class="node-meta" x="3486.2" y="211.0" text-anchor="middle">n=2373</text>
<rect class="decision" x="2960.0" y="300.0" width="150" height="56" rx="14" ry="14" />
<text class="node-title" x="3035.0" y="323.0" text-anchor="middle">Hillshade_Noon &lt;= 240.500</text>
<text class="node-meta" x="3035.0" y="341.0" text-anchor="middle">n=1931</text>
<rect class="decision" x="2556.2" y="430.0" width="150" height="56" rx="14" ry="14" />
<text class="node-title" x="2631.2" y="453.0" text-anchor="middle">Horizontal_Distance_To_Roadways &lt;= 1023.000</text>
<text class="node-meta" x="2631.2" y="471.0" text-anchor="middle">n=1486</text>
<rect class="decision" x="2342.5" y="560.0" width="150" height="56" rx="14" ry="14" />
<text class="node-title" x="2417.5" y="583.0" text-anchor="middle">Horizontal_Distance_To_Hydrology &lt;= 257.000</text>
<text class="node-meta" x="2417.5" y="601.0" text-anchor="middle">n=253</text>
<rect class="leaf" x="2200.0" y="690.0" width="150" height="56" rx="14" ry="14" />
<text class="node-title" x="2275.0" y="713.0" text-anchor="middle">Leaf: Spruce_Fir</text>
<text class="node-meta" x="2275.0" y="731.0" text-anchor="middle">n=97</text>
<rect class="decision" x="2485.0" y="690.0" width="150" height="56" rx="14" ry="14" />
<text class="node-title" x="2560.0" y="713.0" text-anchor="middle">Hillshade_9am &lt;= 185.500</text>
<text class="node-meta" x="2560.0" y="731.0" text-anchor="middle">n=156</text>
<rect class="leaf" x="2390.0" y="820.0" width="150" height="56" rx="14" ry="14" />
<text class="node-title" x="2465.0" y="843.0" text-anchor="middle">Leaf: Spruce_Fir</text>
<text class="node-meta" x="2465.0" y="861.0" text-anchor="middle">n=22</text>
<rect class="leaf" x="2580.0" y="820.0" width="150" height="56" rx="14" ry="14" />
<text class="node-title" x="2655.0" y="843.0" text-anchor="middle">Leaf: Lodgepole_Pine</text>
<text class="node-meta" x="2655.0" y="861.0" text-anchor="middle">n=134</text>
<rect class="leaf" x="2770.0" y="560.0" width="150" height="56" rx="14" ry="14" />
<text class="node-title" x="2845.0" y="583.0" text-anchor="middle">Leaf: Spruce_Fir</text>
<text class="node-meta" x="2845.0" y="601.0" text-anchor="middle">n=1233</text>
<rect class="decision" x="3363.8" y="430.0" width="150" height="56" rx="14" ry="14" />
<text class="node-title" x="3438.8" y="453.0" text-anchor="middle">Horizontal_Distance_To_Hydrology &lt;= 361.500</text>
<text class="node-meta" x="3438.8" y="471.0" text-anchor="middle">n=445</text>
<rect class="decision" x="3197.5" y="560.0" width="150" height="56" rx="14" ry="14" />
<text class="node-title" x="3272.5" y="583.0" text-anchor="middle">Elevation &lt;= 3159.000</text>
<text class="node-meta" x="3272.5" y="601.0" text-anchor="middle">n=266</text>
<rect class="decision" x="3055.0" y="690.0" width="150" height="56" rx="14" ry="14" />
<text class="node-title" x="3130.0" y="713.0" text-anchor="middle">Horizontal_Distance_To_Roadways &lt;= 1884.500</text>
<text class="node-meta" x="3130.0" y="731.0" text-anchor="middle">n=120</text>
<rect class="leaf" x="2960.0" y="820.0" width="150" height="56" rx="14" ry="14" />
<text class="node-title" x="3035.0" y="843.0" text-anchor="middle">Leaf: Spruce_Fir</text>
<text class="node-meta" x="3035.0" y="861.0" text-anchor="middle">n=47</text>
<rect class="leaf" x="3150.0" y="820.0" width="150" height="56" rx="14" ry="14" />
<text class="node-title" x="3225.0" y="843.0" text-anchor="middle">Leaf: Lodgepole_Pine</text>
<text class="node-meta" x="3225.0" y="861.0" text-anchor="middle">n=73</text>
<rect class="leaf" x="3340.0" y="690.0" width="150" height="56" rx="14" ry="14" />
<text class="node-title" x="3415.0" y="713.0" text-anchor="middle">Leaf: Spruce_Fir</text>
<text class="node-meta" x="3415.0" y="731.0" text-anchor="middle">n=146</text>
<rect class="leaf" x="3530.0" y="560.0" width="150" height="56" rx="14" ry="14" />
<text class="node-title" x="3605.0" y="583.0" text-anchor="middle">Leaf: Lodgepole_Pine</text>
<text class="node-meta" x="3605.0" y="601.0" text-anchor="middle">n=179</text>
<rect class="decision" x="3862.5" y="300.0" width="150" height="56" rx="14" ry="14" />
<text class="node-title" x="3937.5" y="323.0" text-anchor="middle">Wilderness_Area_3 &lt;= 0.500</text>
<text class="node-meta" x="3937.5" y="341.0" text-anchor="middle">n=442</text>
<rect class="leaf" x="3720.0" y="430.0" width="150" height="56" rx="14" ry="14" />
<text class="node-title" x="3795.0" y="453.0" text-anchor="middle">Leaf: Spruce_Fir</text>
<text class="node-meta" x="3795.0" y="471.0" text-anchor="middle">n=217</text>
<rect class="decision" x="4005.0" y="430.0" width="150" height="56" rx="14" ry="14" />
<text class="node-title" x="4080.0" y="453.0" text-anchor="middle">Soil_Type_32 &lt;= 0.500</text>
<text class="node-meta" x="4080.0" y="471.0" text-anchor="middle">n=225</text>
<rect class="leaf" x="3910.0" y="560.0" width="150" height="56" rx="14" ry="14" />
<text class="node-title" x="3985.0" y="583.0" text-anchor="middle">Leaf: Krummholz</text>
<text class="node-meta" x="3985.0" y="601.0" text-anchor="middle">n=163</text>
<rect class="leaf" x="4100.0" y="560.0" width="150" height="56" rx="14" ry="14" />
<text class="node-title" x="4175.0" y="583.0" text-anchor="middle">Leaf: Spruce_Fir</text>
<text class="node-meta" x="4175.0" y="601.0" text-anchor="middle">n=62</text>
<g transform="translate(15, 15)">
  <rect class="card-bg" x="0" y="0" width="250" height="293" rx="8" />
  <text class="card-header" x="12" y="22">EVALUATION METRICS</text>
  <text class="card-item" x="18" y="43">• checked samples = 5810</text>
  <text class="card-item" x="18" y="58">• correct predictions = 4222</text>
  <text class="card-item" x="18" y="73">• tree depth = 7</text>
  <text class="card-item" x="18" y="88">• node count = 41</text>
  <text class="card-item" x="18" y="103">• accuracy = 72.6678%</text>
  <text class="card-header" x="12" y="125">TRAINING OPTIONS</text>
  <text class="card-item" x="18" y="146">• impurityMeasure = Gini</text>
  <text class="card-item" x="18" y="161">• splitSelectionMode = MaxGain</text>
  <text class="card-item" x="18" y="176">• pruningMode = CostComplexity</text>
  <text class="card-item" x="18" y="191">• maxDepth = 10</text>
  <text class="card-item" x="18" y="206">• minSamplesToSplit = 2</text>
  <text class="card-item" x="18" y="221">• minSamplesPerLeaf = 1</text>
  <text class="card-item" x="18" y="236">• maxThreadCount = 28</text>
  <text class="card-item" x="18" y="251">• minCandidatesToParallelize = 128</text>
  <text class="card-item" x="18" y="266">• pruningConfidenceFactor = 0.0300</text>
  <text class="card-item" x="18" y="281">• ccpAlpha = 10.0000</text>
</g>
</svg>