<svg xmlns="http://www.w3.org/2000/svg" width="1440" height="526" viewBox="0 0 1440 526">
<style>
text { font-family: 'DejaVu Sans Mono', monospace; fill: #14213d; }
.edge { stroke: #6c7a89; stroke-width: 2; fill: none; }
.edge-label { font-size: 12px; font-weight: 700; fill: #415a77; }
.decision { fill: #e0fbfc; stroke: #1d3557; stroke-width: 2; }
.leaf { fill: #fefae0; stroke: #bc6c25; stroke-width: 2; }
.node-title { font-size: 12px; font-weight: 700; }
.node-meta { font-size: 11px; }
.card-bg { fill: #ffffff; fill-opacity: 0.92; stroke: #cbd5e1; stroke-width: 1.5; }
.card-header { font-size: 11px; font-weight: 800; fill: #475569; letter-spacing: 0.5px; }
.card-item { font-size: 10px; fill: #334155; }
</style>
<rect x="0" y="0" width="1440" height="526" fill="#f8f9fa" />
<line class="edge" x1="850.0" y1="96.0" x2="612.5" y2="170.0" />
<text class="edge-label" x="731.2" y="125.0" text-anchor="middle">yes</text>
<line class="edge" x1="612.5" y1="226.0" x2="470.0" y2="300.0" />
<text class="edge-label" x="541.2" y="255.0" text-anchor="middle">yes</text>
<line class="edge" x1="470.0" y1="356.0" x2="375.0" y2="430.0" />
<text class="edge-label" x="422.5" y="385.0" text-anchor="middle">yes</text>
<line class="edge" x1="470.0" y1="356.0" x2="565.0" y2="430.0" />
<text class="edge-label" x="517.5" y="385.0" text-anchor="middle">no</text>
<line class="edge" x1="612.5" y1="226.0" x2="755.0" y2="300.0" />
<text class="edge-label" x="683.8" y="255.0" text-anchor="middle">no</text>
<line class="edge" x1="850.0" y1="96.0" x2="1087.5" y2="170.0" />
<text class="edge-label" x="968.8" y="125.0" text-anchor="middle">no</text>
<line class="edge" x1="1087.5" y1="226.0" x2="945.0" y2="300.0" />
<text class="edge-label" x="1016.2" y="255.0" text-anchor="middle">yes</text>
<line class="edge" x1="1087.5" y1="226.0" x2="1230.0" y2="300.0" />
<text class="edge-label" x="1158.8" y="255.0" text-anchor="middle">no</text>
<line class="edge" x1="1230.0" y1="356.0" x2="1135.0" y2="430.0" />
<text class="edge-label" x="1182.5" y="385.0" text-anchor="middle">yes</text>
<line class="edge" x1="1230.0" y1="356.0" x2="1325.0" y2="430.0" />
<text class="edge-label" x="1277.5" y="385.0" text-anchor="middle">no</text>
<rect class="decision" x="775.0" y="40.0" width="150" height="56" rx="14" ry="14" />
<text class="node-title" x="850.0" y="63.0" text-anchor="middle">Elevation &lt;= 3050.500</text>
<text class="node-meta" x="850.0" y="81.0" text-anchor="middle">n=58101</text>
<rect class="decision" x="537.5" y="170.0" width="150" height="56" rx="14" ry="14" />
<text class="node-title" x="612.5" y="193.0" text-anchor="middle">Elevation &lt;= 2507.500</text>
<text class="node-meta" x="612.5" y="211.0" text-anchor="middle">n=34063</text>
<rect class="decision" x="395.0" y="300.0" width="150" height="56" rx="14" ry="14" />
<text class="node-title" x="470.0" y="323.0" text-anchor="middle">Horizontal_Distance_To_Hydrology &lt;= 15.000</text>
<text class="node-meta" x="470.0" y="341.0" text-anchor="middle">n=4245</text>
<rect class="leaf" x="300.0" y="430.0" width="150" height="56" rx="14" ry="14" />
<text class="node-title" x="375.0" y="453.0" text-anchor="middle">Leaf: Cottonwood_Willow</text>
<text class="node-meta" x="375.0" y="471.0" text-anchor="middle">n=297</text>
<rect class="leaf" x="490.0" y="430.0" width="150" height="56" rx="14" ry="14" />
<text class="node-title" x="565.0" y="453.0" text-anchor="middle">Leaf: Ponderosa_Pine</text>
<text class="node-meta" x="565.0" y="471.0" text-anchor="middle">n=3948</text>
<rect class="leaf" x="680.0" y="300.0" width="150" height="56" rx="14" ry="14" />
<text class="node-title" x="755.0" y="323.0" text-anchor="middle">Leaf: Lodgepole_Pine</text>
<text class="node-meta" x="755.0" y="341.0" text-anchor="middle">n=29818</text>
<rect class="decision" x="1012.5" y="170.0" width="150" height="56" rx="14" ry="14" />
<text class="node-title" x="1087.5" y="193.0" text-anchor="middle">Elevation &lt;= 3321.500</text>
<text class="node-meta" x="1087.5" y="211.0" text-anchor="middle">n=24038</text>
<rect class="leaf" x="870.0" y="300.0" width="150" height="56" rx="14" ry="14" />
<text class="node-title" x="945.0" y="323.0" text-anchor="middle">Leaf: Spruce_Fir</text>
<text class="node-meta" x="945.0" y="341.0" text-anchor="middle">n=20731</text>
<rect class="decision" x="1155.0" y="300.0" width="150" height="56" rx="14" ry="14" />
<text class="node-title" x="1230.0" y="323.0" text-anchor="middle">Wilderness_Area_3 &lt;= 0.500</text>
<text class="node-meta" x="1230.0" y="341.0" text-anchor="middle">n=3307</text>
<rect class="leaf" x="1060.0" y="430.0" width="150" height="56" rx="14" ry="14" />
<text class="node-title" x="1135.0" y="453.0" text-anchor="middle">Leaf: Spruce_Fir</text>
<text class="node-meta" x="1135.0" y="471.0" text-anchor="middle">n=1640</text>
<rect class="leaf" x="1250.0" y="430.0" width="150" height="56" rx="14" ry="14" />
<text class="node-title" x="1325.0" y="453.0" text-anchor="middle">Leaf: Krummholz</text>
<text class="node-meta" x="1325.0" y="471.0" text-anchor="middle">n=1667</text>
<g transform="translate(15, 15)">
  <rect class="card-bg" x="0" y="0" width="250" height="293" rx="8" />
  <text class="card-header" x="12" y="22">EVALUATION METRICS</text>
  <text class="card-item" x="18" y="43">• checked samples = 58101</text>
  <text class="card-item" x="18" y="58">• correct predictions = 39231</text>
  <text class="card-item" x="18" y="73">• tree depth = 3</text>
  <text class="card-item" x="18" y="88">• node count = 11</text>
  <text class="card-item" x="18" y="103">• accuracy = 67.5221%</text>
  <text class="card-header" x="12" y="125">TRAINING OPTIONS</text>
  <text class="card-item" x="18" y="146">• impurityMeasure = Gini</text>
  <text class="card-item" x="18" y="161">• splitSelectionMode = MaxGain</text>
  <text class="card-item" x="18" y="176">• pruningMode = CostComplexity</text>
  <text class="card-item" x="18" y="191">• maxDepth = 3</text>
  <text class="card-item" x="18" y="206">• minSamplesToSplit = 2</text>
  <text class="card-item" x="18" y="221">• minSamplesPerLeaf = 1</text>
  <text class="card-item" x="18" y="236">• maxThreadCount = 28</text>
  <text class="card-item" x="18" y="251">• minCandidatesToParallelize = 256</text>
  <text class="card-item" x="18" y="266">• pruningConfidenceFactor = 0.0300</text>
  <text class="card-item" x="18" y="281">• ccpAlpha = 10.0000</text>
</g>
</svg>