<svg xmlns="http://www.w3.org/2000/svg" width="2010" height="916" viewBox="0 0 2010 916">
<style>
text { font-family: 'DejaVu Sans Mono', monospace; fill: #14213d; }
.edge { stroke: #6c7a89; stroke-width: 2; fill: none; }
.edge-label { font-size: 12px; font-weight: 700; fill: #415a77; }
.decision { fill: #e0fbfc; stroke: #1d3557; stroke-width: 2; }
.leaf { fill: #fefae0; stroke: #bc6c25; stroke-width: 2; }
.node-title { font-size: 12px; font-weight: 700; }
.node-meta { font-size: 11px; }
.card-bg { fill: #ffffff; fill-opacity: 0.92; stroke: #cbd5e1; stroke-width: 1.5; }
.card-header { font-size: 11px; font-weight: 800; fill: #475569; letter-spacing: 0.5px; }
.card-item { font-size: 10px; fill: #334155; }
</style>
<rect x="0" y="0" width="2010" height="916" fill="#f8f9fa" />
<line class="edge" x1="1179.5" y1="96.0" x2="701.6" y2="170.0" />
<text class="edge-label" x="940.5" y="125.0" text-anchor="middle">yes</text>
<line class="edge" x1="701.6" y1="226.0" x2="375.0" y2="300.0" />
<text class="edge-label" x="538.3" y="255.0" text-anchor="middle">yes</text>
<line class="edge" x1="701.6" y1="226.0" x2="1028.1" y2="300.0" />
<text class="edge-label" x="864.8" y="255.0" text-anchor="middle">no</text>
<line class="edge" x1="1028.1" y1="356.0" x2="731.2" y2="430.0" />
<text class="edge-label" x="879.7" y="385.0" text-anchor="middle">yes</text>
<line class="edge" x1="731.2" y1="486.0" x2="565.0" y2="560.0" />
<text class="edge-label" x="648.1" y="515.0" text-anchor="middle">yes</text>
<line class="edge" x1="731.2" y1="486.0" x2="897.5" y2="560.0" />
<text class="edge-label" x="814.4" y="515.0" text-anchor="middle">no</text>
<line class="edge" x1="897.5" y1="616.0" x2="755.0" y2="690.0" />
<text class="edge-label" x="826.2" y="645.0" text-anchor="middle">yes</text>
<line class="edge" x1="897.5" y1="616.0" x2="1040.0" y2="690.0" />
<text class="edge-label" x="968.8" y="645.0" text-anchor="middle">no</text>
<line class="edge" x1="1040.0" y1="746.0" x2="945.0" y2="820.0" />
<text class="edge-label" x="992.5" y="775.0" text-anchor="middle">yes</text>
<line class="edge" x1="1040.0" y1="746.0" x2="1135.0" y2="820.0" />
<text class="edge-label" x="1087.5" y="775.0" text-anchor="middle">no</text>
<line class="edge" x1="1028.1" y1="356.0" x2="1325.0" y2="430.0" />
<text class="edge-label" x="1176.6" y="385.0" text-anchor="middle">no</text>
<line class="edge" x1="1179.5" y1="96.0" x2="1657.5" y2="170.0" />
<text class="edge-label" x="1418.5" y="125.0" text-anchor="middle">no</text>
<line class="edge" x1="1657.5" y1="226.0" x2="1515.0" y2="300.0" />
<text class="edge-label" x="1586.2" y="255.0" text-anchor="middle">yes</text>
<line class="edge" x1="1657.5" y1="226.0" x2="1800.0" y2="300.0" />
<text class="edge-label" x="1728.8" y="255.0" text-anchor="middle">no</text>
<line class="edge" x1="1800.0" y1="356.0" x2="1705.0" y2="430.0" />
<text class="edge-label" x="1752.5" y="385.0" text-anchor="middle">yes</text>
<line class="edge" x1="1800.0" y1="356.0" x2="1895.0" y2="430.0" />
<text class="edge-label" x="1847.5" y="385.0" text-anchor="middle">no</text>
<rect class="decision" x="1104.5" y="40.0" width="150" height="56" rx="14" ry="14" />
<text class="node-title" x="1179.5" y="63.0" text-anchor="middle">Glucose &lt;= 165.500</text>
<text class="node-meta" x="1179.5" y="81.0" text-anchor="middle">n=768</text>
<rect class="decision" x="626.6" y="170.0" width="150" height="56" rx="14" ry="14" />
<text class="node-title" x="701.6" y="193.0" text-anchor="middle">Glucose &lt;= 154.500</text>
<text class="node-meta" x="701.6" y="211.0" text-anchor="middle">n=686</text>
<rect class="leaf" x="300.0" y="300.0" width="150" height="56" rx="14" ry="14" />
<text class="node-title" x="375.0" y="323.0" text-anchor="middle">Leaf: 0</text>
<text class="node-meta" x="375.0" y="341.0" text-anchor="middle">n=646</text>
<rect class="decision" x="953.1" y="300.0" width="150" height="56" rx="14" ry="14" />
<text class="node-title" x="1028.1" y="323.0" text-anchor="middle">Insulin &lt;= 542.500</text>
<text class="node-meta" x="1028.1" y="341.0" text-anchor="middle">n=40</text>
<rect class="decision" x="656.2" y="430.0" width="150" height="56" rx="14" ry="14" />
<text class="node-title" x="731.2" y="453.0" text-anchor="middle">DiabetesPedigreeFunction &lt;= 0.141</text>
<text class="node-meta" x="731.2" y="471.0" text-anchor="middle">n=38</text>
<rect class="leaf" x="490.0" y="560.0" width="150" height="56" rx="14" ry="14" />
<text class="node-title" x="565.0" y="583.0" text-anchor="middle">Leaf: 0</text>
<text class="node-meta" x="565.0" y="601.0" text-anchor="middle">n=2</text>
<rect class="decision" x="822.5" y="560.0" width="150" height="56" rx="14" ry="14" />
<text class="node-title" x="897.5" y="583.0" text-anchor="middle">Age &lt;= 53.500</text>
<text class="node-meta" x="897.5" y="601.0" text-anchor="middle">n=36</text>
<rect class="leaf" x="680.0" y="690.0" width="150" height="56" rx="14" ry="14" />
<text class="node-title" x="755.0" y="713.0" text-anchor="middle">Leaf: 1</text>
<text class="node-meta" x="755.0" y="731.0" text-anchor="middle">n=32</text>
<rect class="decision" x="965.0" y="690.0" width="150" height="56" rx="14" ry="14" />
<text class="node-title" x="1040.0" y="713.0" text-anchor="middle">BloodPressure &lt;= 87.000</text>
<text class="node-meta" x="1040.0" y="731.0" text-anchor="middle">n=4</text>
<rect class="leaf" x="870.0" y="820.0" width="150" height="56" rx="14" ry="14" />
<text class="node-title" x="945.0" y="843.0" text-anchor="middle">Leaf: 0</text>
<text class="node-meta" x="945.0" y="861.0" text-anchor="middle">n=3</text>
<rect class="leaf" x="1060.0" y="820.0" width="150" height="56" rx="14" ry="14" />
<text class="node-title" x="1135.0" y="843.0" text-anchor="middle">Leaf: 1</text>
<text class="node-meta" x="1135.0" y="861.0" text-anchor="middle">n=1</text>
<rect class="leaf" x="1250.0" y="430.0" width="150" height="56" rx="14" ry="14" />
<text class="node-title" x="1325.0" y="453.0" text-anchor="middle">Leaf: 0</text>
<text class="node-meta" x="1325.0" y="471.0" text-anchor="middle">n=2</text>
<rect class="decision" x="1582.5" y="170.0" width="150" height="56" rx="14" ry="14" />
<text class="node-title" x="1657.5" y="193.0" text-anchor="middle">BMI &lt;= 23.100</text>
<text class="node-meta" x="1657.5" y="211.0" text-anchor="middle">n=82</text>
<rect class="leaf" x="1440.0" y="300.0" width="150" height="56" rx="14" ry="14" />
<text class="node-title" x="1515.0" y="323.0" text-anchor="middle">Leaf: 0</text>
<text class="node-meta" x="1515.0" y="341.0" text-anchor="middle">n=1</text>
<rect class="decision" x="1725.0" y="300.0" width="150" height="56" rx="14" ry="14" />
<text class="node-title" x="1800.0" y="323.0" text-anchor="middle">Age &lt;= 66.500</text>
<text class="node-meta" x="1800.0" y="341.0" text-anchor="middle">n=81</text>
<rect class="leaf" x="1630.0" y="430.0" width="150" height="56" rx="14" ry="14" />
<text class="node-title" x="1705.0" y="453.0" text-anchor="middle">Leaf: 1</text>
<text class="node-meta" x="1705.0" y="471.0" text-anchor="middle">n=80</text>
<rect class="leaf" x="1820.0" y="430.0" width="150" height="56" rx="14" ry="14" />
<text class="node-title" x="1895.0" y="453.0" text-anchor="middle">Leaf: 0</text>
<text class="node-meta" x="1895.0" y="471.0" text-anchor="middle">n=1</text>
<g transform="translate(15, 15)">
  <rect class="card-bg" x="0" y="0" width="250" height="263" rx="8" />
  <text class="card-header" x="12" y="22">EVALUATION METRICS</text>
  <text class="card-item" x="18" y="43">• checked samples = 768</text>
  <text class="card-item" x="18" y="58">• correct predictions = 582</text>
  <text class="card-item" x="18" y="73">• tree depth = 6</text>
  <text class="card-item" x="18" y="88">• node count = 17</text>
  <text class="card-item" x="18" y="103">• accuracy = 75.7812%</text>
  <text class="card-header" x="12" y="125">TRAINING OPTIONS</text>
  <text class="card-item" x="18" y="146">• impurityMeasure = Entropy</text>
  <text class="card-item" x="18" y="161">• splitSelectionMode = MeanGainFiltered</text>
  <text class="card-item" x="18" y="176">• pruningMode = PessimisticError</text>
  <text class="card-item" x="18" y="191">• maxDepth = -1</text>
  <text class="card-item" x="18" y="206">• minSamplesToSplit = 2</text>
  <text class="card-item" x="18" y="221">• minSamplesPerLeaf = 1</text>
  <text class="card-item" x="18" y="236">• pruningConfidenceFactor = 0.0001</text>
  <text class="card-item" x="18" y="251">• ccpAlpha = 0.5000</text>
</g>
</svg>