<svg xmlns="http://www.w3.org/2000/svg" width="2390" height="786" viewBox="0 0 2390 786">
<style>
text { font-family: 'DejaVu Sans Mono', monospace; fill: #14213d; }
.edge { stroke: #6c7a89; stroke-width: 2; fill: none; }
.edge-label { font-size: 12px; font-weight: 700; fill: #415a77; }
.decision { fill: #e0fbfc; stroke: #1d3557; stroke-width: 2; }
.leaf { fill: #fefae0; stroke: #bc6c25; stroke-width: 2; }
.node-title { font-size: 12px; font-weight: 700; }
.node-meta { font-size: 11px; }
.card-bg { fill: #ffffff; fill-opacity: 0.92; stroke: #cbd5e1; stroke-width: 1.5; }
.card-header { font-size: 11px; font-weight: 800; fill: #475569; letter-spacing: 0.5px; }
.card-item { font-size: 10px; fill: #334155; }
</style>
<rect x="0" y="0" width="2390" height="786" fill="#f8f9fa" />
<line class="edge" x1="1158.8" y1="96.0" x2="553.1" y2="170.0" />
<text class="edge-label" x="855.9" y="125.0" text-anchor="middle">yes</text>
<line class="edge" x1="553.1" y1="226.0" x2="375.0" y2="300.0" />
<text class="edge-label" x="464.1" y="255.0" text-anchor="middle">yes</text>
<line class="edge" x1="553.1" y1="226.0" x2="731.2" y2="300.0" />
<text class="edge-label" x="642.2" y="255.0" text-anchor="middle">no</text>
<line class="edge" x1="731.2" y1="356.0" x2="565.0" y2="430.0" />
<text class="edge-label" x="648.1" y="385.0" text-anchor="middle">yes</text>
<line class="edge" x1="731.2" y1="356.0" x2="897.5" y2="430.0" />
<text class="edge-label" x="814.4" y="385.0" text-anchor="middle">no</text>
<line class="edge" x1="897.5" y1="486.0" x2="755.0" y2="560.0" />
<text class="edge-label" x="826.2" y="515.0" text-anchor="middle">yes</text>
<line class="edge" x1="897.5" y1="486.0" x2="1040.0" y2="560.0" />
<text class="edge-label" x="968.8" y="515.0" text-anchor="middle">no</text>
<line class="edge" x1="1040.0" y1="616.0" x2="945.0" y2="690.0" />
<text class="edge-label" x="992.5" y="645.0" text-anchor="middle">yes</text>
<line class="edge" x1="1040.0" y1="616.0" x2="1135.0" y2="690.0" />
<text class="edge-label" x="1087.5" y="645.0" text-anchor="middle">no</text>
<line class="edge" x1="1158.8" y1="96.0" x2="1764.4" y2="170.0" />
<text class="edge-label" x="1461.6" y="125.0" text-anchor="middle">no</text>
<line class="edge" x1="1764.4" y1="226.0" x2="1420.0" y2="300.0" />
<text class="edge-label" x="1592.2" y="255.0" text-anchor="middle">yes</text>
<line class="edge" x1="1420.0" y1="356.0" x2="1325.0" y2="430.0" />
<text class="edge-label" x="1372.5" y="385.0" text-anchor="middle">yes</text>
<line class="edge" x1="1420.0" y1="356.0" x2="1515.0" y2="430.0" />
<text class="edge-label" x="1467.5" y="385.0" text-anchor="middle">no</text>
<line class="edge" x1="1764.4" y1="226.0" x2="2108.8" y2="300.0" />
<text class="edge-label" x="1936.6" y="255.0" text-anchor="middle">no</text>
<line class="edge" x1="2108.8" y1="356.0" x2="1942.5" y2="430.0" />
<text class="edge-label" x="2025.6" y="385.0" text-anchor="middle">yes</text>
<line class="edge" x1="1942.5" y1="486.0" x2="1800.0" y2="560.0" />
<text class="edge-label" x="1871.2" y="515.0" text-anchor="middle">yes</text>
<line class="edge" x1="1800.0" y1="616.0" x2="1705.0" y2="690.0" />
<text class="edge-label" x="1752.5" y="645.0" text-anchor="middle">yes</text>
<line class="edge" x1="1800.0" y1="616.0" x2="1895.0" y2="690.0" />
<text class="edge-label" x="1847.5" y="645.0" text-anchor="middle">no</text>
<line class="edge" x1="1942.5" y1="486.0" x2="2085.0" y2="560.0" />
<text class="edge-label" x="2013.8" y="515.0" text-anchor="middle">no</text>
<line class="edge" x1="2108.8" y1="356.0" x2="2275.0" y2="430.0" />
<text class="edge-label" x="2191.9" y="385.0" text-anchor="middle">no</text>
<rect class="decision" x="1083.8" y="40.0" width="150" height="56" rx="14" ry="14" />
<text class="node-title" x="1158.8" y="63.0" text-anchor="middle">Glucose &lt;= 127.500</text>
<text class="node-meta" x="1158.8" y="81.0" text-anchor="middle">n=768</text>
<rect class="decision" x="478.1" y="170.0" width="150" height="56" rx="14" ry="14" />
<text class="node-title" x="553.1" y="193.0" text-anchor="middle">Age &lt;= 28.500</text>
<text class="node-meta" x="553.1" y="211.0" text-anchor="middle">n=485</text>
<rect class="leaf" x="300.0" y="300.0" width="150" height="56" rx="14" ry="14" />
<text class="node-title" x="375.0" y="323.0" text-anchor="middle">Leaf: 0</text>
<text class="node-meta" x="375.0" y="341.0" text-anchor="middle">n=271</text>
<rect class="decision" x="656.2" y="300.0" width="150" height="56" rx="14" ry="14" />
<text class="node-title" x="731.2" y="323.0" text-anchor="middle">BMI &lt;= 26.350</text>
<text class="node-meta" x="731.2" y="341.0" text-anchor="middle">n=214</text>
<rect class="leaf" x="490.0" y="430.0" width="150" height="56" rx="14" ry="14" />
<text class="node-title" x="565.0" y="453.0" text-anchor="middle">Leaf: 0</text>
<text class="node-meta" x="565.0" y="471.0" text-anchor="middle">n=41</text>
<rect class="decision" x="822.5" y="430.0" width="150" height="56" rx="14" ry="14" />
<text class="node-title" x="897.5" y="453.0" text-anchor="middle">Glucose &lt;= 99.500</text>
<text class="node-meta" x="897.5" y="471.0" text-anchor="middle">n=173</text>
<rect class="leaf" x="680.0" y="560.0" width="150" height="56" rx="14" ry="14" />
<text class="node-title" x="755.0" y="583.0" text-anchor="middle">Leaf: 0</text>
<text class="node-meta" x="755.0" y="601.0" text-anchor="middle">n=55</text>
<rect class="decision" x="965.0" y="560.0" width="150" height="56" rx="14" ry="14" />
<text class="node-title" x="1040.0" y="583.0" text-anchor="middle">DiabetesPedigreeFunction &lt;= 0.561</text>
<text class="node-meta" x="1040.0" y="601.0" text-anchor="middle">n=118</text>
<rect class="leaf" x="870.0" y="690.0" width="150" height="56" rx="14" ry="14" />
<text class="node-title" x="945.0" y="713.0" text-anchor="middle">Leaf: 0</text>
<text class="node-meta" x="945.0" y="731.0" text-anchor="middle">n=84</text>
<rect class="leaf" x="1060.0" y="690.0" width="150" height="56" rx="14" ry="14" />
<text class="node-title" x="1135.0" y="713.0" text-anchor="middle">Leaf: 1</text>
<text class="node-meta" x="1135.0" y="731.0" text-anchor="middle">n=34</text>
<rect class="decision" x="1689.4" y="170.0" width="150" height="56" rx="14" ry="14" />
<text class="node-title" x="1764.4" y="193.0" text-anchor="middle">BMI &lt;= 29.950</text>
<text class="node-meta" x="1764.4" y="211.0" text-anchor="middle">n=283</text>
<rect class="decision" x="1345.0" y="300.0" width="150" height="56" rx="14" ry="14" />
<text class="node-title" x="1420.0" y="323.0" text-anchor="middle">Glucose &lt;= 145.500</text>
<text class="node-meta" x="1420.0" y="341.0" text-anchor="middle">n=76</text>
<rect class="leaf" x="1250.0" y="430.0" width="150" height="56" rx="14" ry="14" />
<text class="node-title" x="1325.0" y="453.0" text-anchor="middle">Leaf: 0</text>
<text class="node-meta" x="1325.0" y="471.0" text-anchor="middle">n=41</text>
<rect class="leaf" x="1440.0" y="430.0" width="150" height="56" rx="14" ry="14" />
<text class="node-title" x="1515.0" y="453.0" text-anchor="middle">Leaf: 1</text>
<text class="node-meta" x="1515.0" y="471.0" text-anchor="middle">n=35</text>
<rect class="decision" x="2033.8" y="300.0" width="150" height="56" rx="14" ry="14" />
<text class="node-title" x="2108.8" y="323.0" text-anchor="middle">Glucose &lt;= 157.500</text>
<text class="node-meta" x="2108.8" y="341.0" text-anchor="middle">n=207</text>
<rect class="decision" x="1867.5" y="430.0" width="150" height="56" rx="14" ry="14" />
<text class="node-title" x="1942.5" y="453.0" text-anchor="middle">Age &lt;= 30.500</text>
<text class="node-meta" x="1942.5" y="471.0" text-anchor="middle">n=115</text>
<rect class="decision" x="1725.0" y="560.0" width="150" height="56" rx="14" ry="14" />
<text class="node-title" x="1800.0" y="583.0" text-anchor="middle">BloodPressure &lt;= 61.000</text>
<text class="node-meta" x="1800.0" y="601.0" text-anchor="middle">n=50</text>
<rect class="leaf" x="1630.0" y="690.0" width="150" height="56" rx="14" ry="14" />
<text class="node-title" x="1705.0" y="713.0" text-anchor="middle">Leaf: 1</text>
<text class="node-meta" x="1705.0" y="731.0" text-anchor="middle">n=10</text>
<rect class="leaf" x="1820.0" y="690.0" width="150" height="56" rx="14" ry="14" />
<text class="node-title" x="1895.0" y="713.0" text-anchor="middle">Leaf: 0</text>
<text class="node-meta" x="1895.0" y="731.0" text-anchor="middle">n=40</text>
<rect class="leaf" x="2010.0" y="560.0" width="150" height="56" rx="14" ry="14" />
<text class="node-title" x="2085.0" y="583.0" text-anchor="middle">Leaf: 1</text>
<text class="node-meta" x="2085.0" y="601.0" text-anchor="middle">n=65</text>
<rect class="leaf" x="2200.0" y="430.0" width="150" height="56" rx="14" ry="14" />
<text class="node-title" x="2275.0" y="453.0" text-anchor="middle">Leaf: 1</text>
<text class="node-meta" x="2275.0" y="471.0" text-anchor="middle">n=92</text>
<g transform="translate(15, 15)">
  <rect class="card-bg" x="0" y="0" width="250" height="125" rx="8" />
  <text class="card-header" x="12" y="22">EVALUATION METRICS</text>
  <text class="card-item" x="18" y="43">• checked samples = 768</text>
  <text class="card-item" x="18" y="58">• correct predictions = 624</text>
  <text class="card-item" x="18" y="73">• tree depth = 5</text>
  <text class="card-item" x="18" y="88">• node count = 21</text>
  <text class="card-item" x="18" y="103">• accuracy = 81.2500%</text>
</g>
</svg>